SplineFontDB: 3.0
FontName: Jost-Heavy
FullName: Jost* 800 Heavy
FamilyName: Jost* Heavy
Weight: Heavy
Copyright: Copyright (c) 2018, Owen Earl,,,
UComments: "2018-6-8: Created with FontForge (http://fontforge.org)"
Version: 003.300
ItalicAngle: 0
UnderlinePosition: -100
UnderlineWidth: 50
Ascent: 800
Descent: 200
InvalidEm: 0
LayerCount: 2
Layer: 0 0 "Back" 1
Layer: 1 0 "Fore" 0
XUID: [1021 69 1495626776 4534362]
FSType: 0
OS2Version: 0
OS2_WeightWidthSlopeOnly: 0
OS2_UseTypoMetrics: 0
CreationTime: 1528479348
ModificationTime: 1536011069
PfmFamily: 17
TTFWeight: 800
TTFWidth: 5
LineGap: 100
VLineGap: 0
OS2TypoAscent: 825
OS2TypoAOffset: 0
OS2TypoDescent: -225
OS2TypoDOffset: 0
OS2TypoLinegap: 100
OS2WinAscent: 900
OS2WinAOffset: 0
OS2WinDescent: 300
OS2WinDOffset: 0
HheadAscent: 1030
HheadAOffset: 0
HheadDescent: -350
HheadDOffset: 0
OS2CapHeight: 700
OS2XHeight: 460
OS2Vendor: 'PfEd'
Lookup: 1 0 0 "alt a" { "alt a"  } ['ss01' ('DFLT' <'dflt' > 'latn' <'dflt' > ) ]
Lookup: 1 0 0 "Tabular Numbers lookup" { "Tabular Numbers lookup"  } ['tnum' ('DFLT' <'dflt' > 'grek' <'dflt' > 'latn' <'dflt' > ) ]
Lookup: 258 0 0 "Lets get our kern on" { "kernin like nobodys business" [150,0,0] } ['kern' ('DFLT' <'dflt' > 'latn' <'dflt' > ) ]
MarkAttachClasses: 1
DEI: 91125
KernClass2: 16 14 "kernin like nobodys business"
 15 slash seven V W
 175 quotedbl quotesingle asterisk grave dieresis ordfeminine macron degree acute ordmasculine circumflex breve dotaccent ring tilde quoteleft quoteright quotedblleft quotedblright
 17 nine question F P
 107 A L backslash Agrave Aacute Acircumflex Atilde Adieresis Aring Amacron Abreve Aogonek Lacute uni013B Lslash
 26 three eight B C germandbls
 5 K X Z
 125 at D G O Ograve Oacute Ocircumflex Otilde Odieresis Oslash Dcaron Dcroat Gcircumflex Gbreve Gdotaccent uni0122 Omacron Obreve
 158 a h m n s agrave aacute acircumflex atilde adieresis aring egrave eacute ecircumflex edieresis ntilde amacron abreve aogonek hcircumflex nacute uni0146 ncaron

StartChar: H
Encoding: 72 72 0
Width: 763
VWidth: 0
Flags: HMW
LayerCount: 2
Fore
SplineSet
148 277 m 257
 210 454 l 257
 731 454 l 257
 670 277 l 257
 148 277 l 257
691 700 m 257
 886 700 l 257
 645 0 l 257
 452 0 l 257
 691 700 l 257
249 700 m 257
 444 700 l 257
 202 0 l 257
 10 0 l 257
 249 700 l 257
EndSplineSet
EndChar

StartChar: O
Encoding: 79 79 1
Width: 782
VWidth: 0
Flags: HMW
LayerCount: 2
Fore
SplineSet
295 350 m 256
 265 269 276 166 382 163 c 256
 490 160 582 256 618 350 c 256
 649 432 639 535 532 537 c 256
 424 539 331 444 295 350 c 256
92 350 m 256
 156 552 355 718 571 718 c 256
 779 718 881 540 822 350 c 256
 758 146 558 -28 339 -27 c 256
 127 -26 33 160 92 350 c 256
EndSplineSet
EndChar

StartChar: I
Encoding: 73 73 2
Width: 325
VWidth: 0
Flags: HMW
LayerCount: 2
Fore
SplineSet
249 700 m 257
 447 700 l 257
 207 0 l 257
 10 0 l 257
 249 700 l 257
EndSplineSet
EndChar

StartChar: C
Encoding: 67 67 3
Width: 664
VWidth: 0
Flags: HMW
LayerCount: 2
Fore
SplineSet
302 350 m 256
 267 259 306 174 409 171 c 256
 493 169 569 213 637 256 c 257
 575 50 l 257
 507 10 434 -18 354 -18 c 256
 143 -18 30 153 92 350 c 256
 157 559 362 718 583 718 c 256
 656 718 716 694 773 649 c 257
 710 442 l 257
 672 497 623 529 553 529 c 256
 445 528 340 450 302 350 c 256
EndSplineSet
EndChar

StartChar: E
Encoding: 69 69 4
Width: 584
VWidth: 0
Flags: HMW
LayerCount: 2
Fore
SplineSet
137 0 m 257
 193 160 l 257
 532 160 l 257
 475 0 l 257
 137 0 l 257
322 540 m 257
 378 700 l 257
 716 700 l 257
 660 540 l 257
 322 540 l 257
234 285 m 257
 289 441 l 257
 609 441 l 257
 554 285 l 257
 234 285 l 257
249 700 m 257
 435 700 l 257
 195 0 l 257
 10 0 l 257
 249 700 l 257
EndSplineSet
EndChar

StartChar: F
Encoding: 70 70 6
Width: 537
VWidth: 0
Flags: HMW
LayerCount: 2
Fore
SplineSet
319 531 m 257
 378 700 l 257
 678 700 l 257
 619 531 l 257
 319 531 l 257
226 260 m 257
 281 416 l 257
 572 416 l 257
 517 260 l 257
 226 260 l 257
249 700 m 257
 435 700 l 257
 195 0 l 257
 10 0 l 257
 249 700 l 257
EndSplineSet
EndChar

StartChar: G
Encoding: 71 71 7
Width: 778
VWidth: 0
Flags: HMW
LayerCount: 2
Fore
SplineSet
426 245 m 257
 478 392 l 257
 821 392 l 257
 763 175 612 -27 356 -27 c 256
 142 -27 31 156 92 350 c 256
 158 559 366 718 587 718 c 256
 710 718 795 652 848 544 c 257
 653 461 l 257
 637 512 609 548 551 548 c 256
 435 548 332 451 293 350 c 256
 258 259 274 144 391 144 c 256
 473 144 528 181 573 245 c 257
 426 245 l 257
EndSplineSet
EndChar

StartChar: T
Encoding: 84 84 8
Width: 560
VWidth: 0
Flags: HMW
LayerCount: 2
Fore
SplineSet
122 523 m 257
 184 700 l 257
 748 700 l 257
 686 523 l 257
 502 523 l 257
 322 0 l 257
 129 0 l 257
 308 523 l 257
 122 523 l 257
EndSplineSet
EndChar

StartChar: L
Encoding: 76 76 9
Width: 522
VWidth: 0
Flags: HMW
LayerCount: 2
Fore
SplineSet
250 700 m 257
 444 700 l 257
 261 169 l 257
 528 169 l 257
 469 0 l 257
 10 0 l 257
 250 700 l 257
EndSplineSet
EndChar

StartChar: D
Encoding: 68 68 10
Width: 706
VWidth: 0
Flags: HMW
LayerCount: 2
Fore
SplineSet
249 700 m 257
 450 700 l 257
 210 0 l 257
 10 0 l 257
 249 700 l 257
273 0 m 258
 137 0 l 257
 198 174 l 257
 303 174 l 258
 415 174 505 245 545 350 c 256
 582 446 551 527 444 527 c 258
 316 527 l 257
 377 700 l 257
 490 700 l 258
 694 700 808 548 746 350 c 256
 681 142 489 0 273 0 c 258
EndSplineSet
EndChar

StartChar: Q
Encoding: 81 81 11
Width: 836
VWidth: 0
Flags: HMW
LayerCount: 2
Fore
SplineSet
295 350 m 256
 261 261 282 148 396 146 c 256
 503 144 596 231 633 325 c 256
 668 414 653 534 535 537 c 256
 427 539 331 445 295 350 c 256
92 350 m 256
 156 553 359 719 575 718 c 256
 783 717 880 538 822 350 c 256
 758 147 563 -28 344 -27 c 256
 132 -26 33 160 92 350 c 256
383 300 m 257
 557 300 l 257
 779 -17 l 257
 596 -17 l 257
 383 300 l 257
EndSplineSet
EndChar

StartChar: A
Encoding: 65 65 12
Width: 715
VWidth: 0
Flags: HMW
LayerCount: 2
Fore
SplineSet
165 109 m 257
 221 254 l 257
 567 254 l 257
 520 109 l 257
 165 109 l 257
442 407 m 257
 291 200 l 257
 289 154 l 257
 162 0 l 257
 -66 0 l 257
 557 752 l 257
 663 0 l 257
 455 0 l 257
 438 150 l 257
 459 200 l 257
 442 407 l 257
EndSplineSet
EndChar

StartChar: R
Encoding: 82 82 13
Width: 637
VWidth: 0
Flags: HMW
LayerCount: 2
Fore
SplineSet
302 307 m 257
 488 307 l 257
 578 0 l 257
 367 0 l 257
 302 307 l 257
249 700 m 257
 444 700 l 257
 202 0 l 257
 10 0 l 257
 249 700 l 257
313 531 m 257
 370 700 l 257
 503 700 l 258
 642 700 740 613 705 464 c 256
 669 311 514 229 364 229 c 258
 207 229 l 257
 261 380 l 257
 379 380 l 258
 428 380 484 407 502 457 c 256
 518 502 492 530 449 531 c 258
 313 531 l 257
EndSplineSet
EndChar

StartChar: V
Encoding: 86 86 14
Width: 715
VWidth: 0
Flags: HMW
LayerCount: 2
Fore
SplineSet
422 334 m 257
 675 699 l 257
 908 699 l 257
 312 -52 l 257
 180 700 l 257
 397 700 l 257
 422 334 l 257
EndSplineSet
EndChar

StartChar: M
Encoding: 77 77 15
Width: 865
VWidth: 0
Flags: HMW
LayerCount: 2
Fore
SplineSet
323 314 m 257
 178 0 l 257
 -30 0 l 257
 339 735 l 257
 487 340 l 257
 921 746 l 257
 782 0 l 257
 580 0 l 257
 650 301 l 257
 406 62 l 257
 323 314 l 257
EndSplineSet
EndChar

StartChar: W
Encoding: 87 87 16
Width: 1026
VWidth: 0
Flags: HMW
LayerCount: 2
Fore
SplineSet
758 329 m 257
 977 700 l 257
 1214 699 l 257
 686 -47 l 257
 587 331 l 257
 249 -49 l 257
 184 700 l 257
 408 700 l 257
 395 334 l 257
 704 741 l 257
 758 329 l 257
EndSplineSet
EndChar

StartChar: N
Encoding: 78 78 17
Width: 752
VWidth: 0
Flags: HMW
LayerCount: 2
Fore
SplineSet
689 700 m 257
 874 700 l 257
 624 -31 l 257
 316 351 l 257
 195 0 l 257
 10 0 l 257
 260 731 l 257
 567 349 l 257
 689 700 l 257
EndSplineSet
EndChar

StartChar: a
Encoding: 97 97 18
Width: 531
VWidth: 0
Flags: HMW
LayerCount: 2
Fore
SplineSet
180 137 m 256
 175 115 193 102 212 100 c 256
 268 95 307 146 334 187 c 257
 332 128 l 257
 294 47 225 -8 133 -9 c 256
 50 -10 -17 43 8 131 c 256
 36 228 144 275 238 276 c 256
 292 277 340 263 382 230 c 257
 358 153 l 257
 331 174 305 188 269 187 c 256
 234 186 186 171 180 137 c 256
168 306 m 257
 146 424 l 257
 216 451 290 474 366 474 c 256
 458 474 567 433 540 322 c 257
 431 0 l 257
 266 0 l 257
 368 282 l 257
 377 317 361 336 324 341 c 256
 272 347 216 324 168 306 c 257
EndSplineSet
Substitution2: "alt a" a.alt
EndChar

StartChar: X
Encoding: 88 88 19
Width: 688
VWidth: 0
Flags: HMW
LayerCount: 2
Fore
SplineSet
615 699 m 257
 863 699 l 257
 537 348 l 257
 650 0 l 257
 422 0 l 257
 381 206 l 257
 207 0 l 257
 -41 0 l 257
 308 364 l 257
 209 700 l 257
 438 700 l 257
 469 523 l 257
 615 699 l 257
EndSplineSet
EndChar

StartChar: K
Encoding: 75 75 20
Width: 702
VWidth: 0
Flags: HMW
LayerCount: 2
Fore
SplineSet
249 700 m 257
 451 700 l 257
 211 0 l 257
 10 0 l 257
 249 700 l 257
650 699 m 257
 887 699 l 257
 503 364 l 257
 648 0 l 257
 430 0 l 257
 280 375 l 257
 650 699 l 257
EndSplineSet
EndChar

StartChar: Y
Encoding: 89 89 21
Width: 653
VWidth: 0
Flags: HMW
LayerCount: 2
Fore
SplineSet
619 699 m 257
 851 699 l 257
 465 270 l 257
 372 0 l 257
 174 0 l 257
 274 288 l 257
 184 700 l 257
 396 700 l 257
 425 465 l 257
 619 699 l 257
EndSplineSet
EndChar

StartChar: B
Encoding: 66 66 22
Width: 659
VWidth: 0
Flags: HMW
LayerCount: 2
Fore
SplineSet
264 341 m 257
 294 424 l 257
 393 424 l 258
 434 424 485 447 500 490 c 256
 514 529 488 548 453 549 c 258
 394 549 l 257
 252 150 l 257
 317 150 l 258
 366 152 431 171 448 225 c 256
 463 273 423 287 383 289 c 258
 246 290 l 257
 285 398 l 257
 424 398 l 258
 543 398 675 333 635 193 c 256
 594 49 446 0 311 0 c 258
 10 0 l 257
 250 700 l 257
 509 700 l 258
 614 700 748 650 710 520 c 256
 673 392 529 341 409 341 c 258
 264 341 l 257
EndSplineSet
EndChar

StartChar: Z
Encoding: 90 90 23
Width: 607
VWidth: 0
Flags: HMW
LayerCount: 2
Fore
SplineSet
181 523 m 257
 243 700 l 257
 790 699 l 257
 310 170 l 257
 566 169 l 257
 506 0 l 257
 -57 0 l 257
 416 522 l 257
 181 523 l 257
EndSplineSet
EndChar

StartChar: o
Encoding: 111 111 24
Width: 568
VWidth: 0
Flags: HMW
LayerCount: 2
Fore
SplineSet
63 231 m 256
 101 371 242 471 385 471 c 256
 522 471 617 365 580 229 c 256
 542 89 401 -10 258 -10 c 256
 122 -10 26 95 63 231 c 256
238 229 m 256
 224 189 232 137 283 134 c 256
 336 131 389 184 405 231 c 256
 419 271 410 324 359 327 c 256
 306 330 254 276 238 229 c 256
EndSplineSet
EndChar

StartChar: J
Encoding: 74 74 25
Width: 340
VWidth: 0
Flags: HMW
LayerCount: 2
Fore
SplineSet
-150 -50 m 257
 -131 -65 -111 -83 -85 -82 c 256
 -42 -81 -6 -40 7 -3 c 258
 250 700 l 257
 462 700 l 257
 207 -53 l 258
 162 -182 35 -245 -97 -245 c 256
 -169 -245 -232 -220 -292 -183 c 257
 -150 -50 l 257
EndSplineSet
EndChar

StartChar: t
Encoding: 116 116 26
Width: 324
VWidth: 0
Flags: HMW
LayerCount: 2
Fore
SplineSet
106 460 m 257
 428 460 l 257
 377 317 l 257
 55 317 l 257
 106 460 l 257
238 620 m 257
 403 620 l 257
 190 0 l 257
 25 0 l 257
 238 620 l 257
EndSplineSet
EndChar

StartChar: d
Encoding: 100 100 27
Width: 595
VWidth: 0
Flags: HMW
LayerCount: 2
Fore
SplineSet
589 780 m 257
 762 780 l 257
 494 0 l 257
 322 0 l 257
 589 780 l 257
50 231 m 256
 86 349 195 470 327 470 c 256
 459 470 477 331 446 229 c 256
 411 114 315 -9 185 -9 c 256
 53 -9 17 123 50 231 c 256
229 229 m 256
 214 189 222 132 274 129 c 256
 329 126 382 184 400 231 c 256
 415 270 412 328 360 331 c 256
 305 334 247 276 229 229 c 256
EndSplineSet
EndChar

StartChar: l
Encoding: 108 108 28
Width: 267
VWidth: 0
Flags: HMW
LayerCount: 2
Fore
SplineSet
260 780 m 257
 434 780 l 257
 165 0 l 257
 -7 0 l 257
 260 780 l 257
EndSplineSet
EndChar

StartChar: i
Encoding: 105 105 29
Width: 265
VWidth: 0
Flags: HMW
LayerCount: 2
Fore
SplineSet
193 625 m 256
 193 680 238 717 293 717 c 256
 348 717 392 680 392 625 c 256
 392 570 348 534 293 534 c 256
 238 534 193 570 193 625 c 256
152 460 m 257
 319 460 l 257
 161 0 l 257
 -5 0 l 257
 152 460 l 257
EndSplineSet
EndChar

StartChar: r
Encoding: 114 114 30
Width: 418
VWidth: 0
Flags: HMW
LayerCount: 2
Fore
SplineSet
320 460 m 257
 161 0 l 257
 -7 0 l 257
 151 460 l 257
 320 460 l 257
395 280 m 257
 383 293 370 305 350 306 c 256
 296 308 247 247 233 208 c 257
 235 282 l 257
 269 364 358 472 435 472 c 256
 469 472 489 451 509 427 c 257
 395 280 l 257
EndSplineSet
EndChar

StartChar: c
Encoding: 99 99 31
Width: 469
VWidth: 0
Flags: HMW
LayerCount: 2
Fore
SplineSet
237 229 m 256
 219 177 245 132 301 129 c 256
 355 126 403 158 444 188 c 257
 402 25 l 257
 357 4 311 -10 261 -10 c 256
 124 -10 25 92 62 231 c 256
 101 374 244 470 389 470 c 256
 437 470 480 457 522 436 c 257
 478 271 l 257
 455 307 427 333 381 333 c 256
 313 333 257 285 237 229 c 256
EndSplineSet
EndChar

StartChar: b
Encoding: 98 98 32
Width: 595
VWidth: 0
Flags: HMW
LayerCount: 2
Fore
SplineSet
433 780 m 257
 165 0 l 257
 -8 0 l 257
 259 780 l 257
 433 780 l 257
594 229 m 256
 558 111 450 -10 318 -10 c 256
 186 -10 167 129 198 231 c 256
 233 346 330 469 460 469 c 256
 592 469 627 337 594 229 c 256
416 231 m 256
 431 271 422 328 370 331 c 256
 315 334 262 276 244 229 c 256
 229 190 233 132 285 129 c 256
 340 126 398 184 416 231 c 256
EndSplineSet
EndChar

StartChar: p
Encoding: 112 112 33
Width: 595
VWidth: 0
Flags: HMW
LayerCount: 2
Fore
SplineSet
90 -220 m 257
 -83 -220 l 257
 150 460 l 257
 322 460 l 257
 90 -220 l 257
594 229 m 256
 558 110 450 -19 315 -18 c 256
 177 -17 176 129 207 230 c 256
 242 345 330 476 463 477 c 256
 600 478 627 337 594 229 c 256
416 232 m 256
 431 275 418 319 368 322 c 256
 316 325 260 274 244 228 c 256
 229 186 239 142 288 138 c 256
 341 134 400 185 416 232 c 256
EndSplineSet
EndChar

StartChar: q
Encoding: 113 113 34
Width: 595
VWidth: 0
Flags: HMW
LayerCount: 2
Fore
SplineSet
246 -220 m 257
 479 460 l 257
 653 460 l 257
 419 -220 l 257
 246 -220 l 257
50 231 m 256
 86 350 194 479 329 478 c 256
 467 477 469 331 438 230 c 256
 403 115 315 -16 182 -17 c 256
 45 -18 17 123 50 231 c 256
229 228 m 256
 214 185 227 141 277 138 c 256
 329 135 384 186 400 232 c 256
 415 274 406 318 357 322 c 256
 304 326 245 275 229 228 c 256
EndSplineSet
EndChar

StartChar: h
Encoding: 104 104 35
Width: 548
VWidth: 0
Flags: HMW
LayerCount: 2
Fore
SplineSet
434 780 m 257
 166 0 l 257
 -7 0 l 257
 260 780 l 257
 434 780 l 257
375 280 m 258
 384 305 392 345 355 352 c 256
 314 359 280 308 262 280 c 257
 233 282 l 257
 269 378 334 477 449 479 c 256
 557 481 580 396 551 307 c 257
 447 0 l 257
 275 0 l 257
 375 280 l 258
EndSplineSet
EndChar

StartChar: n
Encoding: 110 110 36
Width: 557
VWidth: 0
Flags: HMW
LayerCount: 2
Fore
SplineSet
324 460 m 257
 166 0 l 257
 -7 0 l 257
 151 460 l 257
 324 460 l 257
375 280 m 258
 384 305 391 345 354 352 c 256
 313 359 280 309 262 281 c 257
 231 274 l 257
 266 370 331 469 446 471 c 256
 554 473 586 388 556 298 c 257
 455 0 l 257
 275 0 l 257
 375 280 l 258
EndSplineSet
EndChar

StartChar: m
Encoding: 109 109 37
Width: 785
VWidth: 0
Flags: HMW
LayerCount: 2
Fore
SplineSet
348 281 m 258
 354 302 367 345 334 352 c 256
 298 360 267 305 253 281 c 257
 223 274 l 257
 258 368 322 469 434 471 c 256
 538 473 548 390 524 307 c 258
 420 0 l 257
 247 0 l 257
 348 281 l 258
316 460 m 257
 158 0 l 257
 -7 0 l 257
 151 460 l 257
 316 460 l 257
784 298 m 258
 684 0 l 257
 510 0 l 257
 611 280 l 258
 618 301 630 345 597 352 c 256
 561 360 529 305 515 281 c 257
 460 274 l 257
 500 372 580 470 696 471 c 256
 803 472 809 381 784 298 c 258
EndSplineSet
EndChar

StartChar: k
Encoding: 107 107 38
Width: 587
VWidth: 0
Flags: HMW
LayerCount: 2
Fore
SplineSet
259 780 m 257
 425 780 l 257
 157 0 l 257
 -7 0 l 257
 259 780 l 257
459 459 m 257
 676 459 l 257
 413 261 l 257
 522 0 l 257
 338 0 l 257
 219 279 l 257
 459 459 l 257
EndSplineSet
EndChar

StartChar: u
Encoding: 117 117 39
Width: 557
VWidth: 0
Flags: HMW
LayerCount: 2
Fore
SplineSet
282 0 m 257
 441 460 l 257
 614 460 l 257
 455 0 l 257
 282 0 l 257
232 180 m 257
 225 154 215 115 252 108 c 256
 293 101 327 151 345 179 c 257
 375 186 l 257
 340 90 274 -9 159 -11 c 256
 51 -13 24 70 50 162 c 257
 151 460 l 257
 332 460 l 257
 232 180 l 257
EndSplineSet
EndChar

StartChar: e
Encoding: 101 101 40
Width: 559
VWidth: 0
Flags: HMW
LayerCount: 2
Fore
SplineSet
147 194 m 257
 173 282 l 257
 408 282 l 257
 412 315 403 357 361 357 c 256
 301 357 264 297 243 251 c 258
 234 229 l 257
 218 184 213 119 274 113 c 256
 317 109 356 137 387 162 c 257
 539 129 l 257
 469 46 375 -10 263 -10 c 256
 122 -10 26 87 63 230 c 256
 67 247 73 263 80 279 c 256
 133 398 254 470 383 470 c 256
 523 470 603 375 570 238 c 256
 566 223 562 209 557 194 c 257
 147 194 l 257
EndSplineSet
EndChar

StartChar: g
Encoding: 103 103 41
Width: 587
VWidth: 0
Flags: HMW
LayerCount: 2
Fore
SplineSet
-33 -33 m 257
 126 -35 l 257
 128 -75 135 -102 182 -103 c 256
 249 -105 303 -46 323 11 c 258
 479 460 l 257
 644 460 l 257
 491 9 l 258
 440 -135 327 -241 167 -242 c 256
 31 -243 -44 -168 -33 -33 c 257
53 239 m 256
 89 357 197 470 327 470 c 256
 457 470 481 342 449 238 c 256
 415 124 319 7 191 7 c 256
 61 7 20 131 53 239 c 256
232 237 m 256
 217 194 230 149 280 146 c 256
 332 143 388 194 404 240 c 256
 419 282 409 330 360 331 c 256
 299 332 248 284 232 237 c 256
EndSplineSet
EndChar

StartChar: f
Encoding: 102 102 42
Width: 342
VWidth: 0
Flags: HMW
LayerCount: 2
Fore
SplineSet
110 460 m 257
 440 460 l 257
 390 317 l 257
 60 317 l 257
 110 460 l 257
480 618 m 257
 472 629 462 642 446 643 c 256
 414 644 387 607 377 581 c 258
 175 0 l 257
 10 0 l 257
 224 631 l 258
 260 728 346 798 453 797 c 256
 505 797 542 775 579 741 c 257
 480 618 l 257
EndSplineSet
EndChar

StartChar: s
Encoding: 115 115 43
Width: 446
VWidth: 0
Flags: HMW
LayerCount: 2
Fore
SplineSet
88 179 m 257
 122 145 166 97 220 103 c 256
 236 105 263 118 267 134 c 256
 275 169 223 179 201 189 c 256
 138 215 97 267 116 337 c 256
 140 426 233 468 320 469 c 256
 390 470 452 442 508 407 c 257
 429 293 l 257
 400 323 366 354 321 354 c 256
 305 354 276 346 270 329 c 256
 257 293 329 280 350 271 c 256
 410 246 451 196 435 128 c 256
 411 31 324 -20 227 -22 c 256
 140 -24 64 14 -2 61 c 257
 88 179 l 257
EndSplineSet
EndChar

StartChar: y
Encoding: 121 121 44
Width: 516
VWidth: 0
Flags: HMW
LayerCount: 2
Fore
SplineSet
640 459 m 257
 124 -219 l 257
 -54 -219 l 257
 140 37 l 257
 93 460 l 257
 269 460 l 257
 283 87 l 257
 189 89 l 257
 458 459 l 257
 640 459 l 257
EndSplineSet
EndChar

StartChar: w
Encoding: 119 119 45
Width: 742
VWidth: 0
Flags: HMW
LayerCount: 2
Fore
SplineSet
95 460 m 257
 263 460 l 257
 271 255 l 257
 483 500 l 257
 524 252 l 257
 679 459 l 257
 866 459 l 257
 459 -31 l 257
 399 220 l 257
 163 -31 l 257
 95 460 l 257
EndSplineSet
EndChar

StartChar: v
Encoding: 118 118 46
Width: 524
VWidth: 0
Flags: HMW
LayerCount: 2
Fore
SplineSet
105 460 m 257
 282 460 l 257
 299 237 l 257
 459 459 l 257
 644 459 l 257
 213 -65 l 257
 105 460 l 257
EndSplineSet
EndChar

StartChar: x
Encoding: 120 120 47
Width: 537
VWidth: 0
Flags: HMW
LayerCount: 2
Fore
SplineSet
445 460 m 257
 645 460 l 257
 394 228 l 257
 500 0 l 257
 324 0 l 257
 272 125 l 257
 165 0 l 257
 -43 0 l 257
 216 253 l 257
 121 460 l 257
 305 460 l 257
 342 356 l 257
 445 460 l 257
EndSplineSet
EndChar

StartChar: z
Encoding: 122 122 48
Width: 511
VWidth: 0
Flags: HMW
LayerCount: 2
Fore
SplineSet
266 301 m 257
 103 301 l 257
 158 459 l 257
 610 459 l 257
 309 159 l 257
 468 159 l 257
 412 0 l 257
 -49 0 l 257
 266 301 l 257
EndSplineSet
EndChar

StartChar: j
Encoding: 106 106 49
Width: 262
VWidth: 0
Flags: HMW
LayerCount: 2
Fore
SplineSet
191 625 m 256
 191 680 236 717 291 717 c 256
 346 717 391 680 391 625 c 256
 391 570 346 534 291 534 c 256
 236 534 191 570 191 625 c 256
-121 -65 m 257
 -113 -76 -99 -90 -80 -90 c 256
 -49 -91 -25 -52 -17 -28 c 258
 152 460 l 257
 317 460 l 257
 135 -78 l 258
 99 -175 15 -245 -92 -244 c 256
 -144 -244 -183 -222 -220 -188 c 257
 -121 -65 l 257
EndSplineSet
EndChar

StartChar: P
Encoding: 80 80 50
Width: 610
VWidth: 0
Flags: HMW
LayerCount: 2
Fore
SplineSet
249 700 m 257
 444 700 l 257
 202 0 l 257
 10 0 l 257
 249 700 l 257
315 541 m 257
 370 700 l 257
 487 700 l 258
 629 697 717 615 688 464 c 256
 658 308 501 232 349 229 c 258
 207 229 l 257
 264 390 l 257
 382 390 l 258
 430 391 487 415 505 465 c 256
 521 510 495 539 452 540 c 258
 315 541 l 257
EndSplineSet
EndChar

StartChar: U
Encoding: 85 85 51
Width: 683
VWidth: 0
Flags: HMW
LayerCount: 2
Fore
SplineSet
245 700 m 257
 439 700 l 257
 280 247 l 258
 266 201 267 146 327 143 c 256
 392 140 439 195 460 248 c 257
 617 700 l 257
 810 700 l 257
 651 230 l 258
 595 73 461 -35 287 -35 c 256
 128 -35 40 76 86 230 c 257
 245 700 l 257
EndSplineSet
EndChar

StartChar: S
Encoding: 83 83 52
Width: 613
VWidth: 0
Flags: HMW
LayerCount: 2
Fore
SplineSet
184 260 m 257
 203 203 230 144 299 145 c 256
 334 145 379 163 394 198 c 256
 416 250 339 272 305 289 c 256
 216 332 158 412 188 514 c 256
 227 646 374 719 504 718 c 256
 610 717 679 659 711 561 c 257
 550 481 l 257
 534 519 514 552 467 552 c 256
 438 552 394 535 381 506 c 256
 359 456 462 432 492 419 c 256
 583 379 625 294 596 197 c 256
 554 56 408 -28 265 -27 c 256
 144 -26 55 50 28 165 c 257
 184 260 l 257
EndSplineSet
EndChar

StartChar: at
Encoding: 64 64 53
Width: 724
VWidth: 0
Flags: HMW
LayerCount: 2
Fore
SplineSet
368 319 m 256
 362 305 353 268 373 261 c 256
 409 247 459 336 469 362 c 256
 474 376 485 414 464 421 c 256
 427 435 378 345 368 319 c 256
236 312 m 256
 262 401 341 533 448 530 c 256
 531 528 539 431 522 369 c 256
 498 280 421 153 316 153 c 256
 225 153 216 243 236 312 c 256
65 320 m 256
 132 532 342 727 573 727 c 256
 766 727 844 555 793 390 c 256
 758 277 665 136 532 142 c 256
 454 145 446 198 450 263 c 257
 448 305 l 257
 538 520 l 257
 661 520 l 257
 573 314 l 258
 569 305 566 297 562 287 c 256
 559 278 552 257 565 251 c 256
 610 230 661 363 671 391 c 256
 708 494 694 614 557 614 c 256
 387 614 243 469 188 320 c 256
 143 198 178 84 322 81 c 256
 387 80 450 101 510 122 c 257
 519 18 l 257
 447 -14 369 -32 289 -31 c 256
 88 -28 8 140 65 320 c 256
EndSplineSet
EndChar

StartChar: period
Encoding: 46 46 54
Width: 310
VWidth: 0
Flags: HMW
LayerCount: 2
Fore
SplineSet
28 78 m 256
 28 136 72 184 136 184 c 256
 200 184 244 136 244 78 c 256
 244 20 200 -28 136 -28 c 256
 72 -28 28 20 28 78 c 256
EndSplineSet
EndChar

StartChar: comma
Encoding: 44 44 55
Width: 309
VWidth: 0
Flags: HMW
LayerCount: 2
Fore
SplineSet
81 108 m 257
 248 73 l 257
 41 -171 l 257
 -90 -145 l 257
 81 108 l 257
EndSplineSet
EndChar

StartChar: colon
Encoding: 58 58 56
Width: 310
VWidth: 0
Flags: HMW
LayerCount: 2
Fore
SplineSet
20 78 m 256
 20 136 64 184 128 184 c 256
 192 184 236 136 236 78 c 256
 236 20 192 -28 128 -28 c 256
 64 -28 20 20 20 78 c 256
146 449 m 256
 146 507 191 554 255 554 c 256
 319 554 363 507 363 449 c 256
 363 391 319 343 255 343 c 256
 191 343 146 391 146 449 c 256
EndSplineSet
EndChar

StartChar: semicolon
Encoding: 59 59 57
Width: 390
VWidth: 0
Flags: HMW
LayerCount: 2
Fore
SplineSet
200 440 m 256
 200 498 244 546 308 546 c 256
 372 546 416 498 416 440 c 256
 416 382 372 335 308 335 c 256
 244 335 200 382 200 440 c 256
109 108 m 257
 276 73 l 257
 69 -171 l 257
 -62 -145 l 257
 109 108 l 257
EndSplineSet
EndChar

StartChar: quotedbl
Encoding: 34 34 58
Width: 504
VWidth: 0
Flags: HMW
LayerCount: 2
Fore
SplineSet
268 700 m 257
 451 699 l 257
 245 376 l 257
 128 375 l 257
 268 700 l 257
478 700 m 257
 661 699 l 257
 454 376 l 257
 337 375 l 257
 478 700 l 257
EndSplineSet
EndChar

StartChar: exclam
Encoding: 33 33 59
Width: 337
VWidth: 0
Flags: HMW
LayerCount: 2
Fore
SplineSet
250 700 m 257
 460 700 l 257
 270 242 l 257
 125 242 l 257
 250 700 l 257
32 70 m 256
 32 128 77 167 141 167 c 256
 205 167 249 128 249 70 c 256
 249 12 205 -28 141 -28 c 256
 77 -28 32 12 32 70 c 256
EndSplineSet
EndChar

StartChar: quotesingle
Encoding: 39 39 60
Width: 295
VWidth: 0
Flags: HMW
LayerCount: 2
Fore
SplineSet
268 700 m 257
 451 699 l 257
 245 376 l 257
 128 375 l 257
 268 700 l 257
EndSplineSet
EndChar

StartChar: numbersign
Encoding: 35 35 61
Width: 648
VWidth: 0
Flags: HMW
LayerCount: 2
Fore
SplineSet
156 403 m 257
 200 543 l 257
 750 543 l 257
 702 402 l 257
 558 402 l 257
 529 410 l 257
 333 410 l 257
 301 402 l 257
 156 403 l 257
30 162 m 257
 80 303 l 257
 207 303 l 257
 240 295 l 257
 466 295 l 257
 500 303 l 257
 631 303 l 257
 582 162 l 257
 30 162 l 257
628 699 m 257
 786 699 l 257
 385 0 l 257
 231 0 l 257
 359 223 l 257
 383 250 l 257
 499 454 l 257
 511 491 l 257
 628 699 l 257
394 700 m 257
 548 699 l 257
 427 490 l 257
 398 452 l 257
 284 253 l 257
 276 225 l 257
 147 0 l 257
 -5 0 l 257
 394 700 l 257
EndSplineSet
EndChar

StartChar: hyphen
Encoding: 45 45 62
Width: 213
VWidth: 0
Flags: HMW
LayerCount: 2
Fore
SplineSet
2 162 m 257
 55 313 l 257
 266 313 l 257
 213 162 l 257
 2 162 l 257
EndSplineSet
EndChar

StartChar: dollar
Encoding: 36 36 63
Width: 598
VWidth: 0
Flags: HMW
LayerCount: 2
Fore
SplineSet
463 818 m 257
 603 818 l 257
 533 626 l 257
 411 626 l 257
 463 818 l 257
240 66 m 257
 362 66 l 257
 313 -112 l 257
 175 -112 l 257
 240 66 l 257
546 481 m 257
 533 521 517 569 467 569 c 256
 435 569 394 545 382 515 c 256
 358 455 457 436 494 420 c 256
 585 380 630 294 603 197 c 256
 564 55 413 -12 276 -10 c 256
 161 -8 76 60 38 165 c 257
 190 260 l 257
 211 203 239 144 309 145 c 256
 344 145 389 163 402 200 c 256
 420 252 343 274 309 290 c 256
 220 333 157 414 185 516 c 256
 219 641 364 709 485 710 c 256
 592 711 665 658 707 561 c 257
 546 481 l 257
EndSplineSet
EndChar

StartChar: bar
Encoding: 124 124 64
Width: 357
VWidth: 0
Flags: HMW
LayerCount: 2
Fore
SplineSet
299 785 m 257
 474 785 l 257
 166 -215 l 257
 -10 -215 l 257
 299 785 l 257
EndSplineSet
EndChar

StartChar: zero
Encoding: 48 48 65
Width: 643
VWidth: 0
Flags: HMW
LayerCount: 2
Fore
SplineSet
285 350 m 256
 267 301 221 161 310 156 c 256
 402 151 464 279 490 350 c 256
 508 399 553 539 464 544 c 256
 372 549 311 421 285 350 c 256
100 350 m 256
 156 526 298 714 500 714 c 256
 707 714 724 506 675 350 c 256
 619 172 478 -15 274 -14 c 256
 70 -13 51 195 100 350 c 256
EndSplineSet
Substitution2: "Tabular Numbers lookup" uniFF10
EndChar

StartChar: one
Encoding: 49 49 66
Width: 498
VWidth: 0
Flags: HMW
LayerCount: 2
Fore
SplineSet
162 472 m 257
 223 645 l 257
 603 717 l 257
 357 0 l 257
 171 0 l 257
 347 513 l 257
 162 472 l 257
EndSplineSet
Substitution2: "Tabular Numbers lookup" uniFF11
EndChar

StartChar: two
Encoding: 50 50 67
Width: 646
VWidth: 0
Flags: HMW
LayerCount: 2
Fore
SplineSet
-24 0 m 257
 359 312 l 258
 410 354 489 404 507 472 c 256
 517 509 503 544 462 546 c 256
 399 550 361 483 338 435 c 257
 149 436 l 257
 200 591 331 716 502 715 c 256
 630 715 745 621 708 484 c 256
 687 405 624 345 559 299 c 258
 391 182 l 257
 636 181 l 257
 580 0 l 257
 -24 0 l 257
EndSplineSet
Substitution2: "Tabular Numbers lookup" uniFF12
EndChar

StartChar: four
Encoding: 52 52 68
Width: 695
VWidth: 0
Flags: HMW
LayerCount: 2
Fore
SplineSet
-11 120 m 257
 576 699 l 257
 736 700 l 257
 497 0 l 257
 294 0 l 257
 354 175 l 257
 381 186 l 257
 463 417 l 257
 292 258 l 257
 523 258 l 257
 550 287 l 257
 699 287 l 257
 640 119 l 257
 -11 120 l 257
EndSplineSet
Substitution2: "Tabular Numbers lookup" uniFF14
EndChar

StartChar: slash
Encoding: 47 47 69
Width: 603
VWidth: 0
Flags: HMW
LayerCount: 2
Fore
SplineSet
608 699 m 257
 783 699 l 257
 82 -149 l 257
 -99 -149 l 257
 608 699 l 257
EndSplineSet
EndChar

StartChar: backslash
Encoding: 92 92 70
Width: 523
VWidth: 0
Flags: HMW
LayerCount: 2
Fore
SplineSet
200 700 m 257
 357 700 l 257
 454 0 l 257
 299 0 l 257
 200 700 l 257
EndSplineSet
EndChar

StartChar: eight
Encoding: 56 56 71
Width: 616
VWidth: 0
Flags: HMW
LayerCount: 2
Fore
SplineSet
196 532 m 256
 232 655 368 718 488 718 c 256
 597 718 711 654 675 530 c 256
 640 407 501 338 381 338 c 256
 271 338 161 410 196 532 c 256
368 511 m 256
 358 484 365 445 399 445 c 256
 443 445 480 483 491 514 c 256
 501 542 493 579 459 579 c 256
 414 579 379 543 368 511 c 256
56 191 m 256
 95 326 247 398 379 398 c 256
 498 398 622 324 583 189 c 256
 544 55 390 -18 259 -18 c 256
 141 -18 17 57 56 191 c 256
257 219 m 256
 244 185 253 142 295 142 c 256
 347 142 389 183 403 223 c 256
 414 256 402 296 363 296 c 256
 313 296 272 256 257 219 c 256
EndSplineSet
Substitution2: "Tabular Numbers lookup" uniFF18
EndChar

StartChar: nine
Encoding: 57 57 72
Width: 660
VWidth: 0
Flags: HMW
LayerCount: 2
Fore
SplineSet
532 450 m 256
 549 498 528 547 473 549 c 256
 415 551 356 501 338 448 c 256
 321 401 340 349 395 347 c 256
 453 345 514 397 532 450 c 256
322 5 m 257
 67 5 l 257
 359 242 l 257
 414 263 l 257
 378 240 341 222 297 222 c 256
 174 222 120 341 148 449 c 256
 189 608 345 718 507 718 c 256
 662 718 764 603 721 449 c 256
 698 364 635 295 572 236 c 258
 322 5 l 257
EndSplineSet
Substitution2: "Tabular Numbers lookup" uniFF19
EndChar

StartChar: three
Encoding: 51 51 73
Width: 608
VWidth: 0
Flags: HMW
LayerCount: 2
Fore
SplineSet
335 338 m 257
 358 419 l 257
 407 427 493 446 505 505 c 256
 511 535 494 557 464 558 c 256
 416 561 385 520 362 484 c 257
 184 486 l 257
 232 619 349 713 494 714 c 256
 608 715 731 647 696 516 c 256
 655 362 467 341 335 338 c 257
280 -18 m 256
 130 -16 52 93 74 236 c 257
 259 235 l 257
 254 187 259 143 317 139 c 256
 364 136 417 169 432 214 c 256
 457 286 376 295 325 300 c 257
 351 395 l 257
 473 391 657 357 614 192 c 256
 577 49 416 -20 280 -18 c 256
EndSplineSet
Substitution2: "Tabular Numbers lookup" uniFF13
EndChar

StartChar: five
Encoding: 53 53 74
Width: 633
VWidth: 0
Flags: HMW
LayerCount: 2
Fore
SplineSet
633 221 m 256
 592 72 437 -12 290 -14 c 256
 193 -15 106 15 27 59 c 257
 132 227 l 257
 175 194 222 168 279 167 c 256
 334 167 414 187 432 248 c 256
 449 305 388 319 344 321 c 256
 273 323 202 306 134 287 c 257
 349 700 l 257
 764 700 l 257
 709 528 l 257
 443 529 l 257
 366 424 l 257
 405 439 447 448 489 447 c 256
 613 443 663 331 633 221 c 256
EndSplineSet
Substitution2: "Tabular Numbers lookup" uniFF15
EndChar

StartChar: six
Encoding: 54 54 75
Width: 660
VWidth: 0
Flags: HMW
LayerCount: 2
Fore
SplineSet
277 250 m 256
 260 202 280 153 335 151 c 256
 393 149 453 199 471 252 c 256
 488 299 468 351 413 353 c 256
 355 355 295 303 277 250 c 256
486 695 m 257
 742 695 l 257
 450 458 l 257
 394 437 l 257
 430 460 467 478 511 478 c 256
 634 478 688 359 660 251 c 256
 619 92 463 -18 301 -18 c 256
 146 -18 44 97 87 251 c 256
 110 336 173 405 236 464 c 258
 486 695 l 257
EndSplineSet
Substitution2: "Tabular Numbers lookup" uniFF16
EndChar

StartChar: seven
Encoding: 55 55 76
Width: 592
VWidth: 0
Flags: HMW
LayerCount: 2
Fore
SplineSet
148 514 m 257
 207 699 l 257
 781 699 l 257
 245 0 l 257
 28 0 l 257
 436 514 l 257
 148 514 l 257
EndSplineSet
Substitution2: "Tabular Numbers lookup" uniFF17
EndChar

StartChar: plus
Encoding: 43 43 77
Width: 654
VWidth: 0
Flags: HMW
LayerCount: 2
Fore
SplineSet
68 190 m 257
 127 358 l 257
 665 358 l 257
 606 190 l 257
 68 190 l 257
374 555 m 257
 552 555 l 257
 358 -7 l 257
 181 -7 l 257
 374 555 l 257
EndSplineSet
EndChar

StartChar: equal
Encoding: 61 61 78
Width: 592
VWidth: 0
Flags: HMW
LayerCount: 2
Fore
SplineSet
14 64 m 257
 66 215 l 257
 567 215 l 257
 514 64 l 257
 14 64 l 257
90 290 m 257
 144 441 l 257
 644 441 l 257
 591 290 l 257
 90 290 l 257
EndSplineSet
EndChar

StartChar: percent
Encoding: 37 37 79
Width: 920
VWidth: 0
Flags: HMW
LayerCount: 2
Fore
SplineSet
140 530 m 256
 169 632 278 722 387 722 c 256
 493 722 551 625 523 528 c 256
 494 426 385 336 276 336 c 256
 170 336 112 433 140 530 c 256
278 526 m 256
 272 505 281 474 315 474 c 256
 343 474 377 505 385 531 c 256
 391 552 383 584 349 584 c 256
 321 584 286 552 278 526 c 256
529 173 m 256
 558 275 666 365 775 365 c 256
 881 365 939 268 911 171 c 256
 882 69 774 -21 665 -21 c 256
 559 -21 501 76 529 173 c 256
666 169 m 256
 659 148 675 117 700 117 c 256
 728 117 762 141 774 175 c 256
 781 196 767 227 742 227 c 256
 714 227 678 203 666 169 c 256
817 699 m 257
 1009 699 l 257
 234 0 l 257
 43 0 l 257
 817 699 l 257
EndSplineSet
EndChar

StartChar: ampersand
Encoding: 38 38 80
Width: 733
VWidth: 0
Flags: HMW
LayerCount: 2
Fore
SplineSet
293 367 m 258
 262 420 234 477 251 540 c 256
 280 651 408 718 517 718 c 256
 615 718 703 649 677 545 c 256
 651 440 538 380 449 335 c 256
 385 303 266 284 242 205 c 256
 228 162 257 137 297 133 c 256
 431 120 556 263 639 349 c 257
 730 255 l 257
 607 122 436 -16 245 -14 c 256
 129 -13 25 64 59 190 c 256
 98 334 252 371 373 421 c 256
 418 440 509 473 520 529 c 256
 525 552 513 580 479 580 c 256
 449 580 420 560 409 526 c 256
 394 477 431 428 453 391 c 258
 680 0 l 257
 501 0 l 257
 293 367 l 258
EndSplineSet
EndChar

StartChar: question
Encoding: 63 63 81
Width: 612
VWidth: 0
Flags: HMW
LayerCount: 2
Fore
SplineSet
513 501 m 256
 528 547 498 573 454 575 c 256
 385 579 320 530 270 488 c 257
 184 592 l 257
 272 663 377 724 493 723 c 256
 618 722 723 631 684 499 c 256
 648 377 528 313 414 283 c 257
 384 212 l 257
 238 212 l 257
 277 391 l 257
 307 391 l 257
 377 394 488 425 513 501 c 256
146 67 m 256
 146 119 194 157 250 157 c 256
 307 157 355 120 355 67 c 256
 355 13 306 -27 250 -27 c 256
 193 -27 146 12 146 67 c 256
EndSplineSet
EndChar

StartChar: parenleft
Encoding: 40 40 82
Width: 330
VWidth: 0
Flags: HMW
LayerCount: 2
Fore
SplineSet
371 779 m 257
 529 778 l 257
 426 626 331 467 275 290 c 256
 224 132 206 -36 232 -201 c 257
 82 -201 l 257
 50 -37 62 130 109 290 c 256
 162 469 256 633 371 779 c 257
EndSplineSet
EndChar

StartChar: parenright
Encoding: 41 41 83
Width: 330
VWidth: 0
Flags: HMW
LayerCount: 2
Fore
SplineSet
70 -199 m 257
 -87 -198 l 257
 16 -46 111 113 167 290 c 256
 218 448 236 616 210 781 c 257
 360 781 l 257
 392 617 379 450 332 290 c 256
 279 111 185 -53 70 -199 c 257
EndSplineSet
EndChar

StartChar: asterisk
Encoding: 42 42 84
Width: 557
VWidth: 0
Flags: HMW
LayerCount: 2
Fore
SplineSet
625 605 m 257
 624 448 l 257
 375 409 l 257
 376 492 l 257
 625 605 l 257
528 292 m 257
 371 196 l 257
 339 434 l 257
 409 474 l 257
 528 292 l 257
225 201 m 257
 123 304 l 257
 348 473 l 257
 403 423 l 257
 225 201 l 257
130 452 m 257
 225 603 l 257
 407 483 l 257
 360 412 l 257
 130 452 l 257
381 700 m 257
 546 699 l 257
 419 451 l 257
 341 450 l 257
 381 700 l 257
EndSplineSet
EndChar

StartChar: less
Encoding: 60 60 85
Width: 602
VWidth: 0
Flags: HMW
LayerCount: 2
Fore
SplineSet
329 261 m 257
 546 157 l 257
 488 -3 l 257
 75 211 l 257
 117 330 l 257
 677 543 l 257
 613 358 l 257
 329 261 l 257
EndSplineSet
EndChar

StartChar: greater
Encoding: 62 62 86
Width: 602
VWidth: 0
Flags: HMW
LayerCount: 2
Fore
SplineSet
347 271 m 257
 130 375 l 257
 187 535 l 257
 600 321 l 257
 558 202 l 257
 -1 -12 l 257
 62 174 l 257
 347 271 l 257
EndSplineSet
EndChar

StartChar: bracketleft
Encoding: 91 91 87
Width: 361
VWidth: 0
Flags: HMW
LayerCount: 2
Fore
SplineSet
411 629 m 257
 196 -69 l 257
 291 -69 l 257
 243 -220 l 257
 -24 -220 l 257
 285 780 l 257
 552 780 l 257
 505 629 l 257
 411 629 l 257
EndSplineSet
EndChar

StartChar: bracketright
Encoding: 93 93 88
Width: 361
VWidth: 0
Flags: HMW
LayerCount: 2
Fore
SplineSet
56 -69 m 257
 270 629 l 257
 175 629 l 257
 222 780 l 257
 489 780 l 257
 180 -220 l 257
 -87 -220 l 257
 -39 -69 l 257
 56 -69 l 257
EndSplineSet
EndChar

StartChar: asciicircum
Encoding: 94 94 89
Width: 479
VWidth: 0
Flags: HMW
LayerCount: 2
Fore
SplineSet
384 560 m 257
 280 444 l 257
 117 444 l 257
 370 709 l 257
 475 710 l 257
 545 443 l 257
 403 443 l 257
 384 560 l 257
EndSplineSet
EndChar

StartChar: underscore
Encoding: 95 95 90
Width: 509
VWidth: 0
Flags: HMW
LayerCount: 2
Fore
SplineSet
-113 -161 m 257
 -74 -50 l 257
 442 -50 l 257
 403 -161 l 257
 -113 -161 l 257
EndSplineSet
EndChar

StartChar: grave
Encoding: 96 96 91
Width: 352
VWidth: 0
Flags: HMW
LayerCount: 2
Fore
SplineSet
210 657 m 257
 343 709 l 257
 440 543 l 257
 340 502 l 257
 210 657 l 257
EndSplineSet
EndChar

StartChar: braceleft
Encoding: 123 123 92
Width: 403
VWidth: 0
Flags: HMW
LayerCount: 2
Fore
SplineSet
432 592 m 258
 400 489 l 258
 363 374 308 299 184 281 c 257
 189 301 l 257
 306 278 303 188 273 89 c 258
 240 -13 l 258
 231 -41 237 -60 266 -61 c 258
 304 -62 l 257
 264 -199 l 257
 175 -200 l 258
 92 -198 11 -151 39 -60 c 258
 93 116 l 258
 108 167 111 197 65 226 c 257
 101 353 l 257
 153 377 177 411 196 465 c 258
 250 641 l 258
 279 732 366 777 457 780 c 258
 566 780 l 257
 526 643 l 257
 495 643 l 258
 465 643 441 622 432 592 c 258
EndSplineSet
EndChar

StartChar: braceright
Encoding: 125 125 93
Width: 403
VWidth: 0
Flags: HMW
LayerCount: 2
Fore
SplineSet
84 -12 m 258
 116 91 l 258
 153 206 207 281 331 299 c 257
 327 279 l 257
 210 302 212 392 242 491 c 258
 275 593 l 258
 284 620 277 640 249 641 c 258
 212 642 l 257
 252 780 l 257
 341 780 l 258
 424 777 504 731 476 640 c 258
 422 464 l 258
 407 413 404 383 450 354 c 257
 414 227 l 257
 362 203 337 169 318 115 c 258
 265 -61 l 258
 237 -153 149 -197 58 -200 c 258
 -51 -200 l 257
 -11 -63 l 257
 20 -63 l 258
 50 -63 75 -42 84 -12 c 258
EndSplineSet
EndChar

StartChar: asciitilde
Encoding: 126 126 94
Width: 541
VWidth: 0
Flags: HMW
LayerCount: 2
Fore
SplineSet
172 157 m 257
 42 164 l 257
 42 172 42 181 44 189 c 256
 52 228 75 265 102 292 c 256
 139 329 193 354 247 352 c 256
 288 351 323 329 353 303 c 256
 366 292 386 268 406 268 c 256
 424 268 441 290 448 304 c 256
 453 315 453 330 453 342 c 257
 583 335 l 257
 583 325 583 315 581 306 c 256
 573 267 552 229 525 201 c 256
 493 168 445 146 399 147 c 256
 358 148 323 172 292 198 c 256
 275 212 253 234 229 232 c 256
 206 230 184 210 175 190 c 256
 170 180 172 167 172 157 c 257
EndSplineSet
EndChar

StartChar: exclamdown
Encoding: 161 161 95
Width: 337
VWidth: 0
Flags: HMW
LayerCount: 2
Fore
SplineSet
143 -224 m 257
 -69 -224 l 257
 123 234 l 257
 266 234 l 257
 143 -224 l 257
357 405 m 256
 343 351 283 310 228 310 c 256
 173 310 135 353 150 409 c 256
 164 463 224 503 279 503 c 256
 334 503 372 461 357 405 c 256
EndSplineSet
EndChar

StartChar: cent
Encoding: 162 162 96
Width: 545
VWidth: 0
Flags: HMW
LayerCount: 2
Fore
SplineSet
164 38 m 257
 290 38 l 257
 248 -112 l 257
 98 -112 l 257
 164 38 l 257
233 229 m 256
 214 178 236 132 293 129 c 256
 347 126 397 160 439 189 c 257
 391 23 l 257
 346 3 299 -10 249 -10 c 256
 112 -9 17 93 58 231 c 256
 101 374 246 469 392 470 c 256
 440 470 482 457 524 435 c 257
 475 269 l 257
 453 306 427 333 381 333 c 256
 321 333 254 285 233 229 c 256
338 578 m 257
 487 578 l 257
 423 428 l 257
 297 428 l 257
 338 578 l 257
EndSplineSet
EndChar

StartChar: sterling
Encoding: 163 163 97
Width: 584
VWidth: 0
Flags: HMW
LayerCount: 2
Fore
SplineSet
133 370 m 257
 501 370 l 257
 463 261 l 257
 93 261 l 257
 133 370 l 257
512 463 m 257
 518 506 520 555 464 557 c 256
 419 559 374 525 357 485 c 256
 326 415 391 343 370 271 c 256
 337 153 199 85 91 54 c 257
 186 159 l 257
 519 160 l 257
 463 0 l 257
 -10 0 l 257
 75 89 180 176 215 300 c 256
 238 379 169 444 190 523 c 256
 223 645 370 709 487 709 c 256
 603 709 690 639 681 520 c 257
 512 463 l 257
EndSplineSet
EndChar

StartChar: currency
Encoding: 164 164 98
Width: 541
VWidth: 0
Flags: HMW
LayerCount: 2
Fore
SplineSet
132 507 m 257
 216 571 l 257
 281 458 l 257
 205 403 l 257
 132 507 l 257
44 30 m 257
 -3 107 l 257
 123 199 l 257
 169 128 l 257
 44 30 l 257
519 402 m 257
 471 477 l 257
 598 571 l 257
 644 498 l 257
 519 402 l 257
354 136 m 257
 437 199 l 257
 503 87 l 257
 427 31 l 257
 354 136 l 257
92 301 m 256
 129 427 254 540 390 540 c 256
 523 540 581 417 546 299 c 256
 509 173 384 60 248 60 c 256
 115 60 57 183 92 301 c 256
243 298 m 256
 230 262 241 222 284 220 c 256
 330 217 380 261 395 302 c 256
 408 338 397 378 354 380 c 256
 308 383 258 339 243 298 c 256
EndSplineSet
EndChar

StartChar: yen
Encoding: 165 165 99
Width: 659
VWidth: 0
Flags: HMW
LayerCount: 2
Fore
SplineSet
72 256 m 257
 110 365 l 257
 689 365 l 257
 650 256 l 257
 72 256 l 257
21 106 m 257
 59 215 l 257
 638 215 l 257
 599 106 l 257
 21 106 l 257
621 699 m 257
 852 699 l 257
 467 271 l 257
 374 0 l 257
 175 0 l 257
 276 289 l 257
 186 700 l 257
 398 700 l 257
 427 465 l 257
 621 699 l 257
EndSplineSet
EndChar

StartChar: brokenbar
Encoding: 166 166 100
Width: 357
VWidth: 0
Flags: HMW
LayerCount: 2
Fore
SplineSet
275 695 m 257
 451 695 l 257
 356 421 l 257
 180 421 l 257
 275 695 l 257
309 279 m 257
 213 5 l 257
 37 5 l 257
 133 279 l 257
 309 279 l 257
EndSplineSet
EndChar

StartChar: section
Encoding: 167 167 101
Width: 598
VWidth: 0
Flags: HMW
LayerCount: 2
Fore
SplineSet
545 540 m 257
 521 563 495 587 459 586 c 256
 444 586 404 575 401 558 c 256
 397 534 458 530 472 525 c 256
 538 506 584 449 564 379 c 256
 531 264 398 233 294 227 c 257
 309 269 l 257
 344 282 388 299 401 338 c 256
 421 393 355 410 318 428 c 256
 260 457 228 511 246 576 c 256
 274 673 382 727 477 728 c 256
 545 729 604 704 649 654 c 257
 545 540 l 257
129 176 m 257
 165 144 206 114 260 116 c 256
 277 117 314 125 320 144 c 256
 328 173 270 180 253 186 c 256
 189 205 123 251 143 327 c 256
 174 443 318 472 420 478 c 257
 406 437 l 257
 372 423 326 407 313 368 c 256
 294 311 371 301 407 284 c 256
 467 255 505 196 485 129 c 256
 456 28 339 -26 241 -27 c 256
 155 -28 83 5 25 62 c 257
 129 176 l 257
EndSplineSet
EndChar

StartChar: dieresis
Encoding: 168 168 102
Width: 494
VWidth: 0
Flags: HMW
LayerCount: 2
Fore
SplineSet
430 624 m 256
 442 673 498 712 548 712 c 256
 599 712 635 671 622 620 c 256
 610 571 555 532 505 532 c 256
 454 532 417 573 430 624 c 256
186 624 m 256
 198 673 254 712 304 712 c 256
 355 712 392 671 379 620 c 256
 367 571 312 532 262 532 c 256
 211 532 173 573 186 624 c 256
EndSplineSet
EndChar

StartChar: copyright
Encoding: 169 169 103
Width: 752
VWidth: 0
Flags: HMW
LayerCount: 2
Fore
SplineSet
363 349 m 256
 344 294 370 246 430 243 c 256
 480 241 525 269 566 294 c 257
 534 170 l 257
 494 147 452 131 404 130 c 256
 279 129 203 231 236 351 c 256
 270 477 391 571 521 571 c 256
 566 571 603 555 640 529 c 257
 608 405 l 257
 583 436 556 458 513 458 c 256
 449 458 384 409 363 349 c 256
166 350 m 256
 118 207 175 43 345 41 c 256
 521 39 680 190 734 350 c 256
 782 493 725 657 555 659 c 256
 379 661 220 510 166 350 c 256
108 350 m 256
 161 541 346 711 550 710 c 256
 748 709 841 528 792 350 c 256
 739 159 553 -11 349 -10 c 256
 151 -9 59 172 108 350 c 256
EndSplineSet
EndChar

StartChar: registered
Encoding: 174 174 104
Width: 752
VWidth: 0
Flags: HMW
LayerCount: 2
Fore
SplineSet
428 317 m 257
 524 317 l 257
 575 150 l 257
 448 150 l 257
 428 317 l 257
371 570 m 257
 489 570 l 257
 358 150 l 257
 240 150 l 257
 371 570 l 257
413 470 m 257
 443 569 l 257
 522 570 l 257
 600 567 674 525 652 436 c 256
 630 346 542 301 455 297 c 257
 356 296 l 257
 385 386 l 257
 458 387 l 257
 483 389 521 402 529 430 c 256
 536 455 515 468 495 470 c 257
 413 470 l 257
166 350 m 256
 118 207 175 43 345 41 c 256
 521 39 680 190 734 350 c 256
 782 493 725 657 555 659 c 256
 379 661 220 510 166 350 c 256
108 350 m 256
 161 541 346 711 550 710 c 256
 748 709 841 528 792 350 c 256
 739 159 553 -11 349 -10 c 256
 151 -9 59 172 108 350 c 256
EndSplineSet
EndChar

StartChar: ordfeminine
Encoding: 170 170 105
Width: 264
VWidth: 0
Flags: HMW
LayerCount: 2
Fore
SplineSet
226 528 m 256
 224 519 231 510 240 510 c 256
 268 510 286 534 302 553 c 257
 300 522 l 257
 277 486 249 456 203 456 c 256
 162 456 127 486 139 529 c 256
 152 575 210 598 253 599 c 256
 282 600 304 590 328 576 c 257
 315 538 l 257
 302 547 289 556 272 555 c 256
 258 555 230 543 226 528 c 256
221 616 m 257
 212 682 l 257
 246 693 281 705 318 705 c 256
 365 705 416 684 407 628 c 257
 351 460 l 257
 266 461 l 257
 320 602 l 257
 318 618 320 629 301 634 c 256
 276 640 244 624 221 616 c 257
EndSplineSet
EndChar

StartChar: ordmasculine
Encoding: 186 186 106
Width: 261
VWidth: 0
Flags: HMW
LayerCount: 2
Fore
SplineSet
158 582 m 256
 177 650 250 699 319 699 c 256
 388 699 439 647 419 578 c 256
 400 509 326 461 257 461 c 256
 188 461 138 513 158 582 c 256
246 578 m 256
 240 562 244 535 266 533 c 256
 290 531 323 561 330 582 c 256
 336 598 332 626 310 628 c 256
 286 630 253 599 246 578 c 256
EndSplineSet
EndChar

StartChar: guillemotleft
Encoding: 171 171 107
Width: 518
VWidth: 0
Flags: HMW
LayerCount: 2
Fore
SplineSet
385 251 m 257
 460 58 l 257
 339 -8 l 257
 261 265 l 257
 505 514 l 257
 593 437 l 257
 385 251 l 257
179 251 m 257
 254 58 l 257
 133 -8 l 257
 55 265 l 257
 299 514 l 257
 387 437 l 257
 179 251 l 257
EndSplineSet
EndChar

StartChar: guillemotright
Encoding: 187 187 108
Width: 518
VWidth: 0
Flags: HMW
LayerCount: 2
Fore
SplineSet
200 259 m 257
 125 452 l 257
 247 518 l 257
 324 245 l 257
 81 -4 l 257
 -8 73 l 257
 200 259 l 257
407 259 m 257
 331 452 l 257
 452 518 l 257
 531 245 l 257
 287 -4 l 257
 198 73 l 257
 407 259 l 257
EndSplineSet
EndChar

StartChar: uni00AD
Encoding: 173 173 109
Width: 197
VWidth: 0
Flags: HMW
LayerCount: 2
Fore
SplineSet
21 201 m 257
 44 275 l 257
 238 275 l 257
 213 201 l 257
 21 201 l 257
EndSplineSet
EndChar

StartChar: logicalnot
Encoding: 172 172 110
Width: 621
VWidth: 0
Flags: HMW
LayerCount: 2
Fore
SplineSet
98 263 m 257
 146 413 l 257
 652 413 l 257
 569 175 l 257
 453 175 l 257
 490 263 l 257
 98 263 l 257
EndSplineSet
EndChar

StartChar: macron
Encoding: 175 175 111
Width: 506
VWidth: 0
Flags: HMW
LayerCount: 2
Fore
SplineSet
211 562 m 257
 258 713 l 257
 622 713 l 257
 574 562 l 257
 211 562 l 257
EndSplineSet
EndChar

StartChar: degree
Encoding: 176 176 112
Width: 284
VWidth: 0
Flags: HMW
LayerCount: 2
Fore
SplineSet
161 598 m 256
 180 666 254 719 324 719 c 256
 394 719 442 663 422 594 c 256
 403 525 329 473 258 473 c 256
 188 473 141 530 161 598 c 256
245 594 m 256
 239 576 245 549 268 547 c 256
 294 545 329 575 337 597 c 256
 343 615 337 644 314 646 c 256
 288 648 253 616 245 594 c 256
EndSplineSet
EndChar

StartChar: plusminus
Encoding: 177 177 113
Width: 601
VWidth: 0
Flags: HMW
LayerCount: 2
Fore
SplineSet
26 8 m 257
 73 156 l 257
 559 156 l 257
 512 8 l 257
 26 8 l 257
125 328 m 257
 174 484 l 257
 660 484 l 257
 611 328 l 257
 125 328 l 257
372 620 m 257
 546 620 l 257
 412 192 l 257
 239 192 l 257
 372 620 l 257
EndSplineSet
EndChar

StartChar: uni00B2
Encoding: 178 178 114
Width: 404
VWidth: 0
Flags: HMW
LayerCount: 2
Fore
SplineSet
57 283 m 257
 294 469 l 258
 326 493 378 525 389 566 c 256
 394 585 389 607 367 609 c 256
 330 613 305 569 289 543 c 257
 173 545 l 257
 210 635 283 711 387 711 c 256
 465 711 533 655 510 572 c 256
 497 525 458 490 420 462 c 258
 317 392 l 257
 461 390 l 257
 423 282 l 257
 57 283 l 257
EndSplineSet
EndChar

StartChar: uni00B3
Encoding: 179 179 115
Width: 360
VWidth: 0
Flags: HMW
LayerCount: 2
Fore
SplineSet
260 483 m 257
 275 531 l 257
 305 538 357 548 367 584 c 256
 371 600 361 614 345 614 c 256
 317 614 298 591 282 572 c 257
 171 574 l 257
 206 650 271 707 359 708 c 256
 427 709 503 668 480 589 c 256
 454 498 339 487 260 483 c 257
224 269 m 256
 131 271 89 334 99 421 c 257
 210 421 l 257
 210 395 207 368 241 364 c 256
 266 361 305 386 313 410 c 256
 327 452 276 456 248 461 c 257
 267 516 l 257
 340 512 453 494 426 394 c 256
 403 310 304 267 224 269 c 256
EndSplineSet
EndChar

StartChar: acute
Encoding: 180 180 116
Width: 352
VWidth: 0
Flags: HMW
LayerCount: 2
Fore
SplineSet
475 646 m 257
 265 503 l 257
 174 555 l 257
 359 707 l 257
 475 646 l 257
EndSplineSet
EndChar

StartChar: mu
Encoding: 181 181 117
Width: 557
VWidth: 0
Flags: HMW
LayerCount: 2
Fore
SplineSet
282 0 m 257
 441 460 l 257
 614 460 l 257
 455 0 l 257
 282 0 l 257
232 180 m 257
 225 154 215 115 252 108 c 256
 293 101 327 151 345 179 c 257
 377 186 l 257
 341 89 274 -9 159 -11 c 256
 51 -13 24 70 50 162 c 257
 151 460 l 257
 332 460 l 257
 232 180 l 257
151 460 m 257
 316 460 l 257
 48 -320 l 257
 -116 -320 l 257
 151 460 l 257
EndSplineSet
EndChar

StartChar: paragraph
Encoding: 182 182 118
Width: 662
VWidth: 0
Flags: HMW
LayerCount: 2
Fore
SplineSet
417 597 m 257
 453 700 l 257
 687 700 l 257
 651 597 l 257
 417 597 l 257
644 700 m 257
 795 700 l 257
 480 -220 l 257
 328 -220 l 257
 644 700 l 257
453 700 m 257
 605 700 l 257
 289 -220 l 257
 138 -220 l 257
 453 700 l 257
315 271 m 257
 196 284 128 365 165 486 c 256
 205 618 322 700 453 700 c 257
 315 271 l 257
EndSplineSet
EndChar

StartChar: periodcentered
Encoding: 183 183 119
Width: 310
VWidth: 0
Flags: HMW
LayerCount: 2
Fore
SplineSet
91 280 m 256
 106 334 167 383 224 383 c 256
 282 383 316 330 301 276 c 256
 286 222 225 173 168 173 c 256
 110 173 76 226 91 280 c 256
EndSplineSet
EndChar

StartChar: uni00B9
Encoding: 185 185 120
Width: 458
VWidth: 0
Flags: HMW
LayerCount: 2
Fore
SplineSet
252 556 m 257
 288 661 l 257
 519 705 l 257
 371 274 l 257
 256 274 l 257
 362 580 l 257
 252 556 l 257
EndSplineSet
EndChar

StartChar: cedilla
Encoding: 184 184 121
Width: 384
VWidth: 0
Flags: HMW
LayerCount: 2
Fore
SplineSet
132 74 m 257
 267 69 l 257
 125 -56 l 257
 137 -53 151 -50 163 -51 c 256
 219 -55 246 -106 231 -158 c 256
 211 -227 135 -267 68 -270 c 256
 13 -273 -37 -253 -84 -227 c 257
 -17 -154 l 257
 5 -167 30 -180 57 -179 c 256
 75 -178 124 -164 127 -141 c 256
 130 -120 97 -115 84 -114 c 256
 52 -112 20 -120 -12 -126 c 257
 132 74 l 257
EndSplineSet
EndChar

StartChar: questiondown
Encoding: 191 191 122
Width: 612
VWidth: 0
Flags: HMW
LayerCount: 2
Fore
SplineSet
231 199 m 256
 216 153 246 127 290 125 c 256
 359 121 423 170 473 212 c 257
 559 108 l 257
 471 37 367 -24 251 -23 c 256
 126 -22 21 69 60 201 c 256
 96 323 215 387 329 417 c 257
 359 488 l 257
 506 488 l 257
 466 309 l 257
 437 309 l 257
 367 306 256 275 231 199 c 256
589 633 m 256
 575 582 512 543 461 543 c 256
 409 543 367 584 381 637 c 256
 395 688 457 727 508 727 c 256
 560 727 603 686 589 633 c 256
EndSplineSet
EndChar

StartChar: multiply
Encoding: 215 215 123
Width: 560
VWidth: 0
Flags: HMW
LayerCount: 2
Fore
SplineSet
89 -4 m 257
 19 113 l 257
 218 262 l 257
 122 415 l 257
 252 515 l 257
 341 360 l 257
 537 514 l 257
 608 397 l 257
 408 248 l 257
 504 95 l 257
 374 -5 l 257
 286 150 l 257
 89 -4 l 257
EndSplineSet
EndChar

StartChar: Oslash
Encoding: 216 216 124
Width: 743
VWidth: 0
Flags: HMW
LayerCount: 2
Fore
SplineSet
295 350 m 256
 264 268 275 165 382 163 c 256
 491 160 582 255 618 350 c 256
 649 432 639 535 532 537 c 256
 423 540 331 445 295 350 c 256
92 350 m 256
 156 553 354 719 571 718 c 256
 778 717 881 540 822 350 c 256
 758 147 558 -28 339 -27 c 256
 128 -26 33 161 92 350 c 256
854 757 m 257
 917 693 l 257
 52 -58 l 257
 -8 -1 l 257
 854 757 l 257
EndSplineSet
EndChar

StartChar: Thorn
Encoding: 222 222 125
Width: 596
VWidth: 0
Flags: HMW
LayerCount: 2
Fore
SplineSet
257 700 m 257
 423 700 l 257
 183 0 l 257
 18 0 l 257
 257 700 l 257
268 434 m 257
 323 585 l 257
 440 585 l 257
 580 581 689 504 643 353 c 256
 597 201 456 127 305 123 c 257
 162 123 l 257
 217 275 l 257
 335 275 l 258
 392 277 454 297 476 355 c 256
 497 411 458 430 409 433 c 257
 268 434 l 257
EndSplineSet
EndChar

StartChar: divide
Encoding: 247 247 126
Width: 607
VWidth: 0
Flags: HMW
LayerCount: 2
Fore
SplineSet
346 591 m 256
 361 645 421 694 478 694 c 256
 536 694 570 641 555 587 c 256
 540 533 480 485 423 485 c 256
 365 485 331 537 346 591 c 256
182 110 m 256
 197 164 257 213 314 213 c 256
 372 213 405 160 390 106 c 256
 375 52 316 3 259 3 c 256
 201 3 167 56 182 110 c 256
48 272 m 257
 103 428 l 257
 691 428 l 257
 636 271 l 257
 48 272 l 257
EndSplineSet
EndChar

StartChar: oslash
Encoding: 248 248 127
Width: 513
VWidth: 0
Flags: HMW
LayerCount: 2
Fore
SplineSet
50 231 m 256
 93 372 234 470 380 470 c 256
 519 470 609 366 568 229 c 256
 525 88 384 -10 238 -10 c 256
 99 -10 9 94 50 231 c 256
210 229 m 256
 191 181 206 127 264 125 c 256
 325 122 389 176 409 231 c 256
 426 277 410 332 354 335 c 256
 295 338 231 282 210 229 c 256
543 507 m 257
 601 463 l 257
 60 -51 l 257
 6 -12 l 257
 543 507 l 257
EndSplineSet
EndChar

StartChar: circumflex
Encoding: 710 710 128
Width: 451
VWidth: 0
Flags: HMW
LayerCount: 2
Fore
SplineSet
392 621 m 257
 285 542 l 257
 186 630 l 257
 423 764 l 257
 582 618 l 257
 443 540 l 257
 392 621 l 257
EndSplineSet
EndChar

StartChar: ogonek
Encoding: 731 731 129
Width: 244
VWidth: 0
Flags: HMW
LayerCount: 2
Fore
SplineSet
114 -104 m 257
 126 -183 l 257
 95 -205 59 -221 20 -220 c 256
 -37 -219 -80 -177 -66 -118 c 256
 -49 -42 43 -5 106 25 c 257
 145 0 l 257
 111 -24 56 -49 44 -92 c 256
 41 -105 42 -120 58 -123 c 256
 75 -126 100 -111 114 -104 c 257
EndSplineSet
EndChar

StartChar: tilde
Encoding: 732 732 130
Width: 498
VWidth: 0
Flags: HMW
LayerCount: 2
Fore
SplineSet
223 645 m 257
 254 692 302 743 364 740 c 256
 409 738 436 686 481 689 c 256
 515 691 541 721 564 742 c 257
 623 654 l 257
 586 612 527 563 466 568 c 256
 421 572 392 627 346 620 c 256
 317 615 301 592 285 571 c 257
 223 645 l 257
EndSplineSet
EndChar

StartChar: ring
Encoding: 730 730 131
Width: 324
VWidth: 0
Flags: HMW
LayerCount: 2
Fore
SplineSet
241 766 m 256
 259 832 332 884 400 884 c 256
 468 884 516 830 497 762 c 256
 479 695 405 644 336 644 c 256
 268 644 222 699 241 766 c 256
326 762 m 256
 321 746 327 721 347 719 c 256
 369 717 404 747 411 766 c 256
 416 782 410 807 390 809 c 256
 368 811 333 781 326 762 c 256
EndSplineSet
EndChar

StartChar: dotaccent
Encoding: 729 729 132
Width: 282
VWidth: 0
Flags: HMW
LayerCount: 2
Fore
SplineSet
271 824 m 256
 285 873 341 912 391 912 c 256
 442 912 477 869 463 818 c 256
 449 769 393 731 343 731 c 256
 292 731 257 773 271 824 c 256
EndSplineSet
EndChar

StartChar: uni2010
Encoding: 8208 8208 133
Width: 213
VWidth: 0
Flags: HMW
LayerCount: 2
Fore
SplineSet
2 162 m 257
 55 313 l 257
 266 313 l 257
 213 162 l 257
 2 162 l 257
EndSplineSet
EndChar

StartChar: endash
Encoding: 8211 8211 134
Width: 751
VWidth: 0
Flags: HMW
LayerCount: 2
Fore
SplineSet
63 162 m 257
 116 313 l 257
 735 313 l 257
 682 162 l 257
 63 162 l 257
EndSplineSet
EndChar

StartChar: figuredash
Encoding: 8210 8210 135
Width: 602
VWidth: 0
Flags: HMW
LayerCount: 2
Fore
SplineSet
63 162 m 257
 116 313 l 257
 582 313 l 257
 529 162 l 257
 63 162 l 257
EndSplineSet
EndChar

StartChar: emdash
Encoding: 8212 8212 136
Width: 900
VWidth: 0
Flags: HMW
LayerCount: 2
Fore
SplineSet
63 162 m 257
 116 313 l 257
 888 313 l 257
 835 162 l 257
 63 162 l 257
EndSplineSet
EndChar

StartChar: minus
Encoding: 8722 8722 137
Width: 558
VWidth: 0
Flags: HMW
LayerCount: 2
Fore
SplineSet
47 162 m 257
 100 313 l 257
 566 313 l 257
 513 162 l 257
 47 162 l 257
EndSplineSet
EndChar

StartChar: quoteright
Encoding: 8217 8217 138
Width: 329
VWidth: 0
Flags: HMW
LayerCount: 2
Fore
SplineSet
276 700 m 257
 457 699 l 257
 267 437 l 257
 136 437 l 257
 276 700 l 257
EndSplineSet
EndChar

StartChar: quoteleft
Encoding: 8216 8216 139
Width: 329
VWidth: 0
Flags: HMW
LayerCount: 2
Fore
SplineSet
333 436 m 257
 152 437 l 257
 343 699 l 257
 474 699 l 257
 333 436 l 257
EndSplineSet
EndChar

StartChar: quotesinglbase
Encoding: 8218 8218 140
Width: 329
VWidth: 0
Flags: HMW
LayerCount: 2
Fore
SplineSet
74 80 m 257
 255 79 l 257
 64 -183 l 257
 -66 -183 l 257
 74 80 l 257
EndSplineSet
EndChar

StartChar: quotedblleft
Encoding: 8220 8220 141
Width: 557
VWidth: 0
Flags: HMW
LayerCount: 2
Fore
SplineSet
333 436 m 257
 152 437 l 257
 343 699 l 257
 474 699 l 257
 333 436 l 257
561 436 m 257
 380 437 l 257
 571 699 l 257
 702 699 l 257
 561 436 l 257
EndSplineSet
EndChar

StartChar: quotedblright
Encoding: 8221 8221 142
Width: 557
VWidth: 0
Flags: HMW
LayerCount: 2
Fore
SplineSet
276 700 m 257
 457 699 l 257
 267 437 l 257
 136 437 l 257
 276 700 l 257
504 700 m 257
 685 699 l 257
 495 437 l 257
 364 437 l 257
 504 700 l 257
EndSplineSet
EndChar

StartChar: perthousand
Encoding: 8240 8240 143
Width: 1374
VWidth: 0
Flags: HMW
LayerCount: 2
Fore
SplineSet
982 173 m 256
 1011 275 1120 365 1229 365 c 256
 1335 365 1393 268 1365 171 c 256
 1336 69 1227 -21 1118 -21 c 256
 1012 -21 954 76 982 173 c 256
1120 169 m 256
 1114 148 1123 120 1148 117 c 256
 1176 114 1218 149 1226 175 c 256
 1232 196 1223 224 1198 227 c 256
 1170 230 1128 195 1120 169 c 256
140 530 m 256
 169 632 278 722 387 722 c 256
 493 722 551 625 523 528 c 256
 494 426 385 336 276 336 c 256
 170 336 112 433 140 530 c 256
278 526 m 256
 272 505 282 477 307 474 c 256
 335 471 377 505 385 531 c 256
 391 552 382 581 357 584 c 256
 329 587 286 552 278 526 c 256
529 173 m 256
 558 275 666 365 775 365 c 256
 881 365 939 268 911 171 c 256
 882 69 774 -21 665 -21 c 256
 559 -21 501 76 529 173 c 256
666 169 m 256
 660 148 670 120 695 117 c 256
 723 114 766 149 774 175 c 256
 780 196 771 224 746 227 c 256
 718 230 674 195 666 169 c 256
817 699 m 257
 1009 699 l 257
 234 0 l 257
 43 0 l 257
 817 699 l 257
EndSplineSet
EndChar

StartChar: guilsinglleft
Encoding: 8249 8249 144
Width: 329
VWidth: 0
Flags: HMW
LayerCount: 2
Fore
SplineSet
179 251 m 257
 254 58 l 257
 133 -8 l 257
 55 265 l 257
 299 514 l 257
 387 437 l 257
 179 251 l 257
EndSplineSet
EndChar

StartChar: guilsinglright
Encoding: 8250 8250 145
Width: 329
VWidth: 0
Flags: HMW
LayerCount: 2
Fore
SplineSet
216 259 m 257
 141 452 l 257
 262 518 l 257
 340 245 l 257
 96 -4 l 257
 8 73 l 257
 216 259 l 257
EndSplineSet
EndChar

StartChar: uni2031
Encoding: 8241 8241 146
Width: 1826
VWidth: 0
Flags: HMW
LayerCount: 2
Fore
SplineSet
1435 173 m 256
 1464 275 1572 365 1681 365 c 256
 1787 365 1845 268 1817 171 c 256
 1788 69 1680 -21 1571 -21 c 256
 1465 -21 1407 76 1435 173 c 256
1572 169 m 256
 1566 148 1576 120 1601 117 c 256
 1629 114 1672 149 1680 175 c 256
 1686 196 1677 224 1652 227 c 256
 1624 230 1580 195 1572 169 c 256
982 173 m 256
 1011 275 1120 365 1229 365 c 256
 1335 365 1393 268 1365 171 c 256
 1336 69 1227 -21 1118 -21 c 256
 1012 -21 954 76 982 173 c 256
1120 169 m 256
 1114 148 1123 120 1148 117 c 256
 1176 114 1218 149 1226 175 c 256
 1232 196 1223 224 1198 227 c 256
 1170 230 1128 195 1120 169 c 256
140 530 m 256
 169 632 278 722 387 722 c 256
 493 722 551 625 523 528 c 256
 494 426 385 336 276 336 c 256
 170 336 112 433 140 530 c 256
278 526 m 256
 272 505 282 477 307 474 c 256
 335 471 377 505 385 531 c 256
 391 552 382 581 357 584 c 256
 329 587 286 552 278 526 c 256
529 173 m 256
 558 275 666 365 775 365 c 256
 881 365 939 268 911 171 c 256
 882 69 774 -21 665 -21 c 256
 559 -21 501 76 529 173 c 256
666 169 m 256
 660 148 670 120 695 117 c 256
 723 114 766 149 774 175 c 256
 780 196 771 224 746 227 c 256
 718 230 674 195 666 169 c 256
817 699 m 257
 1009 699 l 257
 234 0 l 257
 43 0 l 257
 817 699 l 257
EndSplineSet
EndChar

StartChar: uni203D
Encoding: 8253 8253 147
Width: 612
VWidth: 0
Flags: HMW
LayerCount: 2
Fore
SplineSet
521 475 m 256
 545 537 506 574 446 575 c 256
 376 577 318 536 270 489 c 257
 184 592 l 257
 265 669 376 722 491 721 c 256
 615 720 723 631 684 499 c 256
 638 346 469 283 324 274 c 257
 337 349 l 257
 411 362 493 399 521 475 c 256
324 502 m 257
 482 501 l 257
 353 212 l 257
 251 212 l 257
 324 502 l 257
155 72 m 256
 169 126 231 166 285 166 c 256
 339 166 380 123 366 68 c 256
 352 14 289 -27 235 -27 c 256
 181 -27 141 17 155 72 c 256
EndSplineSet
EndChar

StartChar: Euro
Encoding: 8364 8364 148
Width: 640
VWidth: 0
Flags: HMW
LayerCount: 2
Fore
SplineSet
133 373 m 257
 167 469 l 257
 633 469 l 257
 598 373 l 257
 133 373 l 257
69 237 m 257
 103 334 l 257
 570 334 l 257
 536 237 l 257
 69 237 l 257
333 350 m 256
 307 280 276 144 387 139 c 256
 447 135 506 170 556 198 c 257
 503 18 l 257
 456 -4 406 -23 353 -23 c 256
 147 -24 118 193 168 350 c 256
 225 530 381 724 586 723 c 256
 637 723 679 706 723 682 c 257
 668 500 l 257
 637 537 602 563 552 562 c 256
 439 560 368 443 333 350 c 256
EndSplineSet
EndChar

StartChar: fraction
Encoding: 8260 8260 149
Width: 694
VWidth: 0
Flags: HMW
LayerCount: 2
Fore
SplineSet
722 699 m 257
 871 699 l 257
 143 0 l 257
 -7 0 l 257
 722 699 l 257
EndSplineSet
EndChar

StartChar: onequarter
Encoding: 188 188 150
Width: 796
VWidth: 0
Flags: HMW
LayerCount: 2
Fore
SplineSet
774 699 m 257
 892 699 l 257
 163 0 l 257
 45 0 l 257
 774 699 l 257
153 556 m 257
 189 661 l 257
 420 705 l 257
 272 274 l 257
 157 274 l 257
 263 580 l 257
 153 556 l 257
346 72 m 257
 467 153 l 257
 641 154 l 257
 658 172 l 257
 778 172 l 257
 742 71 l 257
 346 72 l 257
489 111 m 257
 337 64 l 257
 700 419 l 257
 801 420 l 257
 656 0 l 257
 532 0 l 257
 564 92 l 257
 580 98 l 257
 632 244 l 257
 489 111 l 257
EndSplineSet
EndChar

StartChar: onehalf
Encoding: 189 189 151
Width: 865
VWidth: 0
Flags: HMW
LayerCount: 2
Fore
SplineSet
774 699 m 257
 892 699 l 257
 163 0 l 257
 45 0 l 257
 774 699 l 257
153 556 m 257
 189 661 l 257
 420 705 l 257
 272 274 l 257
 157 274 l 257
 263 580 l 257
 153 556 l 257
417 3 m 257
 655 189 l 258
 687 213 739 245 750 286 c 256
 755 305 749 327 727 329 c 256
 690 333 666 289 650 263 c 257
 533 265 l 257
 570 355 644 431 748 431 c 256
 826 431 893 375 870 292 c 256
 857 245 819 210 781 182 c 258
 678 112 l 257
 822 110 l 257
 784 2 l 257
 417 3 l 257
EndSplineSet
EndChar

StartChar: threequarters
Encoding: 190 190 152
Width: 846
VWidth: 0
Flags: HMW
LayerCount: 2
Fore
SplineSet
833 699 m 257
 951 699 l 257
 222 0 l 257
 104 0 l 257
 833 699 l 257
269 483 m 257
 284 531 l 257
 314 538 365 548 375 584 c 256
 379 600 369 614 353 614 c 256
 325 614 306 591 290 572 c 257
 179 574 l 257
 214 650 280 707 368 708 c 256
 436 709 512 668 489 589 c 256
 463 498 348 487 269 483 c 257
232 269 m 256
 139 271 99 334 109 421 c 257
 218 421 l 257
 218 395 216 368 250 364 c 256
 275 361 314 386 322 410 c 256
 336 452 286 456 258 461 c 257
 275 516 l 257
 348 512 461 494 434 394 c 256
 411 310 312 267 232 269 c 256
397 72 m 257
 518 153 l 257
 692 154 l 257
 709 172 l 257
 830 172 l 257
 793 71 l 257
 397 72 l 257
540 111 m 257
 388 64 l 257
 751 419 l 257
 852 420 l 257
 707 0 l 257
 583 0 l 257
 615 92 l 257
 631 98 l 257
 684 244 l 257
 540 111 l 257
EndSplineSet
EndChar

StartChar: uni2150
Encoding: 8528 8528 153
Width: 918
VWidth: 0
Flags: HMW
LayerCount: 2
Fore
SplineSet
759 699 m 257
 909 699 l 257
 179 0 l 257
 30 0 l 257
 759 699 l 257
153 556 m 257
 189 661 l 257
 420 705 l 257
 272 274 l 257
 157 274 l 257
 263 580 l 257
 153 556 l 257
611 309 m 257
 649 420 l 257
 998 419 l 257
 663 0 l 257
 527 0 l 257
 780 308 l 257
 611 309 l 257
EndSplineSet
EndChar

StartChar: uni2151
Encoding: 8529 8529 154
Width: 864
VWidth: 0
Flags: HMW
LayerCount: 2
Fore
SplineSet
750 699 m 257
 900 699 l 257
 172 0 l 257
 22 0 l 257
 750 699 l 257
153 556 m 257
 189 661 l 257
 420 705 l 257
 272 274 l 257
 157 274 l 257
 263 580 l 257
 153 556 l 257
769 273 m 256
 777 299 768 328 738 331 c 256
 705 335 661 299 652 270 c 256
 644 244 653 214 683 211 c 256
 716 207 760 244 769 273 c 256
638 6 m 257
 477 6 l 257
 658 144 l 257
 693 158 l 257
 672 146 651 136 626 136 c 256
 551 136 521 207 538 272 c 256
 564 366 660 432 755 432 c 256
 849 432 911 363 883 270 c 256
 868 219 828 179 791 144 c 257
 638 6 l 257
EndSplineSet
EndChar

StartChar: uni2152
Encoding: 8530 8530 155
Width: 1182
VWidth: 0
Flags: HMW
LayerCount: 2
Fore
SplineSet
750 699 m 257
 900 699 l 257
 172 0 l 257
 22 0 l 257
 750 699 l 257
153 556 m 257
 189 661 l 257
 420 705 l 257
 272 274 l 257
 157 274 l 257
 263 580 l 257
 153 556 l 257
578 283 m 257
 615 388 l 257
 845 432 l 257
 697 1 l 257
 582 1 l 257
 688 307 l 257
 578 283 l 257
936 209 m 256
 925 180 899 100 950 94 c 256
 1003 88 1044 172 1060 211 c 256
 1071 240 1097 320 1046 326 c 256
 993 332 952 248 936 209 c 256
824 211 m 256
 856 316 942 428 1061 428 c 256
 1185 428 1200 305 1171 209 c 256
 1139 104 1055 -8 934 -8 c 256
 812 -8 795 116 824 211 c 256
EndSplineSet
EndChar

StartChar: onethird
Encoding: 8531 8531 156
Width: 861
VWidth: 0
Flags: HMW
LayerCount: 2
Fore
SplineSet
750 699 m 257
 899 699 l 257
 171 0 l 257
 21 0 l 257
 750 699 l 257
153 556 m 257
 189 661 l 257
 420 705 l 257
 272 274 l 257
 157 274 l 257
 263 580 l 257
 153 556 l 257
661 203 m 257
 677 251 l 257
 707 258 758 268 768 304 c 256
 772 320 762 334 746 334 c 256
 718 334 699 311 683 292 c 257
 573 294 l 257
 608 370 672 427 760 428 c 256
 828 429 905 388 882 309 c 256
 856 218 740 207 661 203 c 257
625 -11 m 256
 532 -9 492 54 502 141 c 257
 611 141 l 257
 611 115 609 88 643 84 c 256
 668 81 707 106 715 130 c 256
 729 172 678 176 650 181 c 257
 668 236 l 257
 741 232 854 214 827 114 c 256
 804 30 705 -13 625 -11 c 256
EndSplineSet
EndChar

StartChar: twothirds
Encoding: 8532 8532 157
Width: 988
VWidth: 0
Flags: HMW
LayerCount: 2
Fore
SplineSet
894 699 m 257
 1044 699 l 257
 314 0 l 257
 165 0 l 257
 894 699 l 257
61 283 m 257
 299 469 l 258
 331 493 383 525 394 566 c 256
 399 585 393 607 371 609 c 256
 334 613 310 569 294 543 c 257
 177 545 l 257
 214 635 288 711 392 711 c 256
 470 711 537 655 514 572 c 256
 501 525 462 490 424 462 c 258
 322 392 l 257
 466 390 l 257
 428 282 l 257
 61 283 l 257
789 203 m 257
 804 251 l 257
 834 258 886 268 896 304 c 256
 900 320 890 334 874 334 c 256
 846 334 827 311 811 292 c 257
 700 294 l 257
 735 370 800 427 888 428 c 256
 956 429 1032 388 1009 309 c 256
 983 218 868 207 789 203 c 257
753 -11 m 256
 660 -9 618 54 628 141 c 257
 739 141 l 257
 739 115 736 88 770 84 c 256
 795 81 834 106 842 130 c 256
 856 172 806 176 778 181 c 257
 796 236 l 257
 869 232 982 214 955 114 c 256
 932 30 833 -13 753 -11 c 256
EndSplineSet
EndChar

StartChar: uni2155
Encoding: 8533 8533 158
Width: 850
VWidth: 0
Flags: HMW
LayerCount: 2
Fore
SplineSet
750 699 m 257
 900 699 l 257
 172 0 l 257
 22 0 l 257
 750 699 l 257
153 556 m 257
 189 661 l 257
 420 705 l 257
 272 274 l 257
 157 274 l 257
 263 580 l 257
 153 556 l 257
825 130 m 256
 799 42 703 -8 617 -10 c 256
 558 -12 505 9 456 35 c 257
 520 134 l 257
 546 116 572 98 607 98 c 256
 637 98 697 113 704 149 c 256
 710 179 678 189 655 191 c 256
 611 194 568 182 526 172 c 257
 614 223 l 257
 651 245 692 269 738 267 c 256
 812 263 844 197 825 130 c 256
721 314 m 257
 650 215 l 257
 513 161 l 257
 662 417 l 257
 914 418 l 257
 877 315 l 257
 721 314 l 257
EndSplineSet
EndChar

StartChar: uni2156
Encoding: 8534 8534 159
Width: 989
VWidth: 0
Flags: HMW
LayerCount: 2
Fore
SplineSet
894 699 m 257
 1044 699 l 257
 314 0 l 257
 165 0 l 257
 894 699 l 257
61 283 m 257
 299 469 l 258
 331 493 383 525 394 566 c 256
 399 585 393 607 371 609 c 256
 334 613 310 569 294 543 c 257
 177 545 l 257
 214 635 288 711 392 711 c 256
 470 711 537 655 514 572 c 256
 501 525 462 490 424 462 c 258
 322 392 l 257
 466 390 l 257
 428 282 l 257
 61 283 l 257
952 130 m 256
 926 42 831 -8 745 -10 c 256
 686 -12 633 9 584 35 c 257
 648 134 l 257
 674 116 700 98 735 98 c 256
 765 98 825 113 832 149 c 256
 838 179 806 189 783 191 c 256
 739 194 695 182 653 172 c 257
 741 223 l 257
 778 245 819 269 865 267 c 256
 939 263 971 197 952 130 c 256
848 314 m 257
 777 215 l 257
 641 161 l 257
 789 417 l 257
 1041 418 l 257
 1004 315 l 257
 848 314 l 257
EndSplineSet
EndChar

StartChar: uni2157
Encoding: 8535 8535 160
Width: 908
VWidth: 0
Flags: HMW
LayerCount: 2
Fore
SplineSet
816 699 m 257
 966 699 l 257
 238 0 l 257
 88 0 l 257
 816 699 l 257
265 483 m 257
 280 531 l 257
 310 538 361 548 371 584 c 256
 375 600 365 614 349 614 c 256
 321 614 302 591 286 572 c 257
 175 574 l 257
 210 650 276 707 364 708 c 256
 432 709 508 668 485 589 c 256
 459 498 344 487 265 483 c 257
229 269 m 256
 136 271 94 334 104 421 c 257
 215 421 l 257
 215 395 212 368 246 364 c 256
 271 361 310 386 318 410 c 256
 332 452 281 456 253 461 c 257
 272 516 l 257
 345 512 457 494 430 394 c 256
 407 310 309 267 229 269 c 256
867 130 m 256
 841 42 745 -8 659 -10 c 256
 600 -12 548 9 499 35 c 257
 563 134 l 257
 589 116 614 98 649 98 c 256
 679 98 740 113 747 149 c 256
 753 179 720 189 697 191 c 256
 653 194 610 182 568 172 c 257
 656 223 l 257
 693 245 734 269 780 267 c 256
 854 263 886 197 867 130 c 256
763 314 m 257
 692 215 l 257
 555 161 l 257
 704 417 l 257
 955 418 l 257
 919 315 l 257
 763 314 l 257
EndSplineSet
EndChar

StartChar: uni2158
Encoding: 8536 8536 161
Width: 1004
VWidth: 0
Flags: HMW
LayerCount: 2
Fore
SplineSet
881 698 m 257
 1030 698 l 257
 302 0 l 257
 152 0 l 257
 881 698 l 257
73 352 m 257
 194 433 l 257
 369 434 l 257
 386 452 l 257
 506 452 l 257
 470 351 l 257
 73 352 l 257
217 391 m 257
 65 344 l 257
 428 699 l 257
 529 700 l 257
 384 280 l 257
 260 280 l 257
 292 372 l 257
 308 378 l 257
 360 524 l 257
 217 391 l 257
971 129 m 256
 945 41 849 -8 763 -10 c 256
 704 -12 652 8 603 34 c 257
 667 133 l 257
 693 115 718 98 753 98 c 256
 783 98 844 112 851 148 c 256
 857 178 824 188 801 190 c 256
 757 193 714 181 672 171 c 257
 760 222 l 257
 797 244 838 268 884 266 c 256
 958 262 990 196 971 129 c 256
867 313 m 257
 796 215 l 257
 660 161 l 257
 808 416 l 257
 1060 417 l 257
 1023 314 l 257
 867 313 l 257
EndSplineSet
EndChar

StartChar: uni2159
Encoding: 8537 8537 162
Width: 864
VWidth: 0
Flags: HMW
LayerCount: 2
Fore
SplineSet
774 699 m 257
 924 699 l 257
 195 0 l 257
 46 0 l 257
 774 699 l 257
153 556 m 257
 189 661 l 257
 420 705 l 257
 272 274 l 257
 157 274 l 257
 263 580 l 257
 153 556 l 257
605 147 m 256
 597 121 607 92 637 89 c 256
 670 85 713 121 722 150 c 256
 730 176 722 205 692 209 c 256
 659 213 614 176 605 147 c 256
737 414 m 257
 898 414 l 257
 718 276 l 257
 682 262 l 257
 703 273 722 283 747 284 c 256
 822 286 854 212 837 148 c 256
 812 54 715 -12 620 -12 c 256
 526 -12 463 57 491 150 c 256
 506 201 545 241 582 276 c 257
 737 414 l 257
EndSplineSet
EndChar

StartChar: uni215A
Encoding: 8538 8538 163
Width: 900
VWidth: 0
Flags: HMW
LayerCount: 2
Fore
SplineSet
833 699 m 257
 983 699 l 257
 255 0 l 257
 105 0 l 257
 833 699 l 257
448 410 m 256
 422 322 327 272 241 270 c 256
 182 268 129 289 80 315 c 257
 144 414 l 257
 170 396 196 378 231 378 c 256
 261 378 321 393 328 429 c 256
 334 459 302 469 279 471 c 256
 235 474 191 462 149 452 c 257
 238 503 l 257
 275 525 315 549 361 547 c 256
 435 543 467 477 448 410 c 256
344 594 m 257
 273 495 l 257
 136 441 l 257
 284 697 l 257
 537 698 l 257
 500 595 l 257
 344 594 l 257
641 147 m 256
 633 121 642 92 672 89 c 256
 705 85 749 121 758 150 c 256
 766 176 757 205 727 209 c 256
 694 213 650 176 641 147 c 256
772 414 m 257
 933 414 l 257
 754 276 l 257
 717 262 l 257
 738 273 758 283 783 284 c 256
 858 286 889 212 872 148 c 256
 847 54 750 -12 655 -12 c 256
 561 -12 499 57 527 150 c 256
 542 201 581 241 618 276 c 257
 772 414 l 257
EndSplineSet
EndChar

StartChar: oneeighth
Encoding: 8539 8539 164
Width: 881
VWidth: 0
Flags: HMW
LayerCount: 2
Fore
SplineSet
774 699 m 257
 924 699 l 257
 195 0 l 257
 46 0 l 257
 774 699 l 257
153 556 m 257
 189 661 l 257
 420 704 l 257
 272 274 l 257
 157 274 l 257
 263 580 l 257
 153 556 l 257
606 321 m 256
 626 393 710 430 779 430 c 256
 844 430 917 392 896 317 c 256
 876 245 791 204 721 204 c 256
 655 204 586 247 606 321 c 256
711 306 m 256
 706 292 709 268 728 266 c 256
 749 264 778 292 784 310 c 256
 789 325 785 346 767 348 c 256
 746 350 718 324 711 306 c 256
522 116 m 256
 544 196 637 238 714 238 c 256
 786 238 863 194 840 112 c 256
 818 33 724 -10 648 -10 c 256
 577 -10 500 35 522 116 c 256
644 131 m 256
 637 113 642 87 665 85 c 256
 690 83 724 112 731 134 c 256
 737 151 730 176 709 178 c 256
 685 180 652 151 644 131 c 256
EndSplineSet
EndChar

StartChar: threeeighths
Encoding: 8540 8540 165
Width: 931
VWidth: 0
Flags: HMW
LayerCount: 2
Fore
SplineSet
825 699 m 257
 975 699 l 257
 245 0 l 257
 96 0 l 257
 825 699 l 257
265 483 m 257
 280 531 l 257
 310 538 361 548 371 584 c 256
 375 600 365 614 349 614 c 256
 321 614 302 591 286 572 c 257
 176 574 l 257
 211 650 276 707 364 708 c 256
 432 709 508 668 485 589 c 256
 459 498 344 487 265 483 c 257
229 269 m 256
 136 271 94 334 104 421 c 257
 215 421 l 257
 215 395 212 368 246 364 c 256
 271 361 310 386 318 410 c 256
 332 452 281 456 253 461 c 257
 272 516 l 257
 345 512 457 494 430 394 c 256
 407 310 309 267 229 269 c 256
656 321 m 256
 676 393 761 430 830 430 c 256
 895 430 967 392 946 317 c 256
 926 245 841 204 771 204 c 256
 705 204 636 247 656 321 c 256
761 306 m 256
 756 292 758 268 777 266 c 256
 798 264 828 292 834 310 c 256
 839 325 835 346 817 348 c 256
 796 350 768 324 761 306 c 256
572 116 m 256
 594 196 687 238 764 238 c 256
 836 238 913 194 890 112 c 256
 868 33 774 -10 698 -10 c 256
 627 -10 550 35 572 116 c 256
694 131 m 256
 687 113 692 87 715 85 c 256
 740 83 775 112 782 134 c 256
 788 151 780 176 759 178 c 256
 735 180 702 151 694 131 c 256
EndSplineSet
EndChar

StartChar: fiveeighths
Encoding: 8541 8541 166
Width: 940
VWidth: 0
Flags: HMW
LayerCount: 2
Fore
SplineSet
833 699 m 257
 983 699 l 257
 255 0 l 257
 105 0 l 257
 833 699 l 257
440 410 m 256
 414 322 318 272 232 270 c 256
 173 268 120 289 71 315 c 257
 136 414 l 257
 162 396 187 378 222 378 c 256
 252 378 312 393 319 429 c 256
 325 459 293 469 270 471 c 256
 226 474 183 462 141 452 c 257
 229 503 l 257
 266 525 307 549 353 547 c 256
 427 543 459 477 440 410 c 256
336 594 m 257
 265 495 l 257
 129 441 l 257
 277 697 l 257
 529 698 l 257
 492 595 l 257
 336 594 l 257
665 321 m 256
 685 393 770 430 839 430 c 256
 904 430 977 392 956 317 c 256
 936 245 850 204 780 204 c 256
 714 204 645 247 665 321 c 256
769 306 m 256
 764 292 768 268 787 266 c 256
 808 264 837 292 843 310 c 256
 848 325 844 346 826 348 c 256
 805 350 776 324 769 306 c 256
581 116 m 256
 603 196 696 238 773 238 c 256
 845 238 923 194 900 112 c 256
 878 33 783 -10 707 -10 c 256
 636 -10 559 35 581 116 c 256
703 131 m 256
 696 113 701 87 724 85 c 256
 749 83 783 112 790 134 c 256
 796 151 789 176 768 178 c 256
 744 180 711 151 703 131 c 256
EndSplineSet
EndChar

StartChar: seveneighths
Encoding: 8542 8542 167
Width: 837
VWidth: 0
Flags: HMW
LayerCount: 2
Fore
SplineSet
722 699 m 257
 871 699 l 257
 143 0 l 257
 -7 0 l 257
 722 699 l 257
162 589 m 257
 202 700 l 257
 551 699 l 257
 214 281 l 257
 79 281 l 257
 333 588 l 257
 162 589 l 257
562 321 m 256
 582 393 667 430 736 430 c 256
 801 430 873 392 852 317 c 256
 832 245 747 204 677 204 c 256
 611 204 542 247 562 321 c 256
666 306 m 256
 661 292 664 268 683 266 c 256
 704 264 734 292 740 310 c 256
 745 325 741 346 723 348 c 256
 702 350 673 324 666 306 c 256
477 116 m 256
 499 196 593 238 670 238 c 256
 742 238 819 194 796 112 c 256
 774 33 680 -10 604 -10 c 256
 533 -10 455 35 477 116 c 256
600 131 m 256
 593 113 598 87 621 85 c 256
 646 83 680 112 687 134 c 256
 693 151 686 176 665 178 c 256
 641 180 608 151 600 131 c 256
EndSplineSet
EndChar

StartChar: uni2074
Encoding: 8308 8308 168
Width: 414
VWidth: 0
Flags: HMW
LayerCount: 2
Fore
SplineSet
66 352 m 257
 186 433 l 257
 361 434 l 257
 377 452 l 257
 499 452 l 257
 463 351 l 257
 66 352 l 257
210 391 m 257
 56 344 l 257
 421 699 l 257
 520 700 l 257
 376 280 l 257
 252 280 l 257
 284 372 l 257
 300 378 l 257
 353 524 l 257
 210 391 l 257
EndSplineSet
EndChar

StartChar: uni2075
Encoding: 8309 8309 169
Width: 374
VWidth: 0
Flags: HMW
LayerCount: 2
Fore
SplineSet
440 410 m 256
 414 322 318 272 232 270 c 256
 173 268 120 289 71 315 c 257
 136 414 l 257
 162 396 187 378 222 378 c 256
 252 378 312 393 319 429 c 256
 325 459 293 469 270 471 c 256
 226 474 183 462 141 452 c 257
 229 503 l 257
 266 525 307 549 353 547 c 256
 427 543 459 477 440 410 c 256
336 594 m 257
 265 495 l 257
 129 441 l 257
 277 697 l 257
 529 698 l 257
 492 595 l 257
 336 594 l 257
EndSplineSet
EndChar

StartChar: uni2076
Encoding: 8310 8310 170
Width: 373
VWidth: 0
Flags: HMW
LayerCount: 2
Fore
SplineSet
220 427 m 256
 212 401 222 372 252 369 c 256
 285 365 328 401 337 430 c 256
 345 456 337 485 307 489 c 256
 274 493 229 456 220 427 c 256
352 694 m 257
 512 694 l 257
 332 556 l 257
 296 542 l 257
 317 553 337 563 362 564 c 256
 437 566 469 492 452 428 c 256
 427 334 329 268 234 268 c 256
 140 268 78 337 106 430 c 256
 121 481 160 521 197 556 c 257
 352 694 l 257
EndSplineSet
EndChar

StartChar: uni2077
Encoding: 8311 8311 171
Width: 364
VWidth: 0
Flags: HMW
LayerCount: 2
Fore
SplineSet
162 589 m 257
 202 700 l 257
 551 699 l 257
 214 281 l 257
 79 281 l 257
 333 588 l 257
 162 589 l 257
EndSplineSet
EndChar

StartChar: uni2078
Encoding: 8312 8312 172
Width: 353
VWidth: 0
Flags: HMW
LayerCount: 2
Fore
SplineSet
181 601 m 256
 201 673 285 710 354 710 c 256
 419 710 491 672 470 597 c 256
 450 525 365 484 295 484 c 256
 229 484 161 527 181 601 c 256
285 586 m 256
 280 572 283 548 302 546 c 256
 323 544 353 572 359 590 c 256
 364 605 359 626 341 628 c 256
 320 630 292 604 285 586 c 256
97 396 m 256
 119 476 211 518 288 518 c 256
 360 518 437 474 414 392 c 256
 392 313 299 270 223 270 c 256
 152 270 75 315 97 396 c 256
219 411 m 256
 212 393 217 367 240 365 c 256
 265 363 299 392 306 414 c 256
 312 431 305 456 284 458 c 256
 260 460 227 431 219 411 c 256
EndSplineSet
EndChar

StartChar: uni2079
Encoding: 8313 8313 173
Width: 368
VWidth: 0
Flags: HMW
LayerCount: 2
Fore
SplineSet
378 553 m 256
 386 579 378 608 348 611 c 256
 315 615 270 579 261 550 c 256
 253 524 263 494 293 491 c 256
 326 487 369 524 378 553 c 256
248 286 m 257
 86 286 l 257
 266 424 l 257
 303 438 l 257
 282 426 261 416 236 416 c 256
 161 416 130 487 147 552 c 256
 173 646 269 712 364 712 c 256
 458 712 521 643 493 550 c 256
 478 499 438 459 401 424 c 257
 248 286 l 257
EndSplineSet
EndChar

StartChar: uni2070
Encoding: 8304 8304 174
Width: 373
VWidth: 0
Flags: HMW
LayerCount: 2
Fore
SplineSet
238 489 m 256
 227 460 201 380 252 374 c 256
 305 368 346 452 362 491 c 256
 373 520 399 600 348 606 c 256
 295 612 254 528 238 489 c 256
126 491 m 256
 158 596 245 708 364 708 c 256
 488 708 502 585 473 489 c 256
 441 384 357 272 236 272 c 256
 114 272 97 396 126 491 c 256
EndSplineSet
EndChar

StartChar: uni2080
Encoding: 8320 8320 175
Width: 373
VWidth: 0
Flags: HMW
LayerCount: 2
Fore
SplineSet
142 209 m 256
 131 180 105 100 156 94 c 256
 209 88 250 172 266 211 c 256
 277 240 304 320 253 326 c 256
 200 332 158 248 142 209 c 256
30 211 m 256
 62 316 150 428 269 428 c 256
 393 428 407 305 378 209 c 256
 346 104 261 -8 140 -8 c 256
 18 -8 1 116 30 211 c 256
EndSplineSet
EndChar

StartChar: uni2084
Encoding: 8324 8324 176
Width: 420
VWidth: 0
Flags: HMW
LayerCount: 2
Fore
SplineSet
-31 72 m 257
 89 153 l 257
 264 154 l 257
 280 172 l 257
 401 172 l 257
 365 71 l 257
 -31 72 l 257
112 111 m 257
 -40 64 l 257
 323 419 l 257
 424 420 l 257
 279 0 l 257
 155 0 l 257
 186 92 l 257
 203 98 l 257
 256 244 l 257
 112 111 l 257
EndSplineSet
EndChar

StartChar: uni2085
Encoding: 8325 8325 177
Width: 385
VWidth: 0
Flags: HMW
LayerCount: 2
Fore
SplineSet
348 130 m 256
 322 42 227 -8 141 -10 c 256
 82 -12 29 9 -20 35 c 257
 45 134 l 257
 71 116 95 98 130 98 c 256
 160 98 221 113 228 149 c 256
 234 179 202 189 179 191 c 256
 135 194 92 182 50 172 c 257
 137 223 l 257
 174 245 215 269 261 267 c 256
 335 263 367 197 348 130 c 256
244 314 m 257
 173 215 l 257
 37 161 l 257
 185 417 l 257
 437 418 l 257
 400 315 l 257
 244 314 l 257
EndSplineSet
EndChar

StartChar: uni2086
Encoding: 8326 8326 178
Width: 386
VWidth: 0
Flags: HMW
LayerCount: 2
Fore
SplineSet
128 147 m 256
 120 121 131 92 161 89 c 256
 194 85 237 121 246 150 c 256
 254 176 246 205 216 209 c 256
 183 213 137 176 128 147 c 256
261 414 m 257
 421 414 l 257
 241 276 l 257
 205 262 l 257
 226 273 246 283 271 284 c 256
 346 286 378 212 361 148 c 256
 336 54 238 -12 143 -12 c 256
 49 -12 -13 57 15 150 c 256
 30 201 70 241 107 276 c 257
 261 414 l 257
EndSplineSet
EndChar

StartChar: uni2087
Encoding: 8327 8327 179
Width: 371
VWidth: 0
Flags: HMW
LayerCount: 2
Fore
SplineSet
72 309 m 257
 111 420 l 257
 460 419 l 257
 124 0 l 257
 -12 0 l 257
 242 308 l 257
 72 309 l 257
EndSplineSet
EndChar

StartChar: uni2088
Encoding: 8328 8328 180
Width: 361
VWidth: 0
Flags: HMW
LayerCount: 2
Fore
SplineSet
91 321 m 256
 111 393 195 430 264 430 c 256
 329 430 401 392 380 317 c 256
 360 245 275 204 205 204 c 256
 139 204 71 247 91 321 c 256
195 306 m 256
 190 292 193 268 212 266 c 256
 233 264 263 292 269 310 c 256
 274 325 269 346 251 348 c 256
 230 350 202 324 195 306 c 256
7 116 m 256
 29 196 121 238 198 238 c 256
 270 238 347 194 324 112 c 256
 302 33 209 -10 133 -10 c 256
 62 -10 -15 35 7 116 c 256
129 131 m 256
 122 113 127 87 150 85 c 256
 175 83 209 112 216 134 c 256
 222 151 215 176 194 178 c 256
 170 180 137 151 129 131 c 256
EndSplineSet
EndChar

StartChar: uni2089
Encoding: 8329 8329 181
Width: 391
VWidth: 0
Flags: HMW
LayerCount: 2
Fore
SplineSet
291 273 m 256
 299 299 289 328 259 331 c 256
 226 335 182 299 173 270 c 256
 165 244 174 214 204 211 c 256
 237 207 282 244 291 273 c 256
159 6 m 257
 -2 6 l 257
 179 144 l 257
 215 158 l 257
 194 146 173 136 148 136 c 256
 73 136 42 207 59 272 c 256
 85 366 182 432 277 432 c 256
 371 432 433 363 405 270 c 256
 390 219 351 179 314 144 c 257
 159 6 l 257
EndSplineSet
EndChar

StartChar: uni2081
Encoding: 8321 8321 182
Width: 354
VWidth: 0
Flags: HMW
LayerCount: 2
Fore
SplineSet
123 283 m 257
 160 388 l 257
 391 432 l 257
 242 1 l 257
 129 1 l 257
 234 307 l 257
 123 283 l 257
EndSplineSet
EndChar

StartChar: uni2082
Encoding: 8322 8322 183
Width: 407
VWidth: 0
Flags: HMW
LayerCount: 2
Fore
SplineSet
-35 3 m 257
 203 189 l 258
 235 213 287 245 298 286 c 256
 303 305 297 327 275 329 c 256
 238 333 213 289 197 263 c 257
 81 265 l 257
 118 355 191 431 295 431 c 256
 373 431 442 375 419 292 c 256
 406 245 367 210 329 182 c 258
 225 112 l 257
 369 110 l 257
 331 2 l 257
 -35 3 l 257
EndSplineSet
EndChar

StartChar: uni2083
Encoding: 8323 8323 184
Width: 369
VWidth: 0
Flags: HMW
LayerCount: 2
Fore
SplineSet
170 203 m 257
 185 251 l 257
 215 258 267 268 277 304 c 256
 281 320 271 334 255 334 c 256
 227 334 208 311 192 292 c 257
 81 294 l 257
 116 370 181 427 269 428 c 256
 337 429 413 388 390 309 c 256
 364 218 249 207 170 203 c 257
133 -11 m 256
 40 -9 -1 54 9 141 c 257
 120 141 l 257
 120 115 117 88 151 84 c 256
 176 81 215 106 223 130 c 256
 237 172 186 176 158 181 c 257
 177 236 l 257
 250 232 363 214 336 114 c 256
 313 30 213 -13 133 -11 c 256
EndSplineSet
EndChar

StartChar: Agrave
Encoding: 192 192 185
Width: 715
VWidth: 0
Flags: HMW
LayerCount: 2
Fore
SplineSet
165 109 m 257
 221 254 l 257
 567 255 l 257
 520 109 l 257
 165 109 l 257
450 407 m 257
 291 200 l 257
 289 154 l 257
 162 0 l 257
 -66 0 l 257
 557 752 l 257
 663 0 l 257
 455 0 l 257
 429 150 l 257
 459 200 l 257
 450 407 l 257
470 963 m 257
 604 1015 l 257
 696 848 l 257
 595 808 l 257
 470 963 l 257
EndSplineSet
EndChar

StartChar: Aacute
Encoding: 193 193 186
Width: 715
VWidth: 0
Flags: HMW
LayerCount: 2
Fore
SplineSet
165 109 m 257
 221 254 l 257
 567 255 l 257
 520 109 l 257
 165 109 l 257
450 407 m 257
 291 200 l 257
 289 154 l 257
 162 0 l 257
 -66 0 l 257
 557 752 l 257
 663 0 l 257
 455 0 l 257
 429 150 l 257
 459 200 l 257
 450 407 l 257
792 951 m 257
 578 809 l 257
 488 861 l 257
 677 1013 l 257
 792 951 l 257
EndSplineSet
EndChar

StartChar: Acircumflex
Encoding: 194 194 187
Width: 715
VWidth: 0
Flags: HMW
LayerCount: 2
Fore
SplineSet
165 109 m 257
 221 254 l 257
 567 255 l 257
 520 109 l 257
 165 109 l 257
450 407 m 257
 291 200 l 257
 289 154 l 257
 162 0 l 257
 -66 0 l 257
 557 752 l 257
 663 0 l 257
 455 0 l 257
 429 150 l 257
 459 200 l 257
 450 407 l 257
614 881 m 257
 506 802 l 257
 407 890 l 257
 645 1024 l 257
 804 878 l 257
 664 800 l 257
 614 881 l 257
EndSplineSet
EndChar

StartChar: Atilde
Encoding: 195 195 188
Width: 715
VWidth: 0
Flags: HMW
LayerCount: 2
Fore
SplineSet
165 109 m 257
 221 254 l 257
 567 255 l 257
 520 109 l 257
 165 109 l 257
450 407 m 257
 291 200 l 257
 289 154 l 257
 162 0 l 257
 -66 0 l 257
 557 752 l 257
 663 0 l 257
 455 0 l 257
 429 150 l 257
 459 200 l 257
 450 407 l 257
407 884 m 257
 439 931 489 981 551 978 c 256
 595 976 621 924 665 927 c 256
 699 929 726 959 750 980 c 257
 807 891 l 257
 769 850 710 801 649 806 c 256
 605 810 576 866 531 859 c 256
 502 854 483 831 466 810 c 257
 407 884 l 257
EndSplineSet
EndChar

StartChar: Adieresis
Encoding: 196 196 189
Width: 715
VWidth: 0
Flags: HMW
LayerCount: 2
Fore
SplineSet
165 109 m 257
 221 254 l 257
 567 255 l 257
 520 109 l 257
 165 109 l 257
450 407 m 257
 291 200 l 257
 289 154 l 257
 162 0 l 257
 -66 0 l 257
 557 752 l 257
 663 0 l 257
 455 0 l 257
 429 150 l 257
 459 200 l 257
 450 407 l 257
634 826 m 256
 648 875 704 913 754 913 c 256
 805 913 841 871 827 820 c 256
 813 771 757 733 707 733 c 256
 656 733 620 775 634 826 c 256
338 834 m 256
 352 883 408 922 458 922 c 256
 509 922 544 880 530 829 c 256
 516 780 461 741 411 741 c 256
 360 741 324 783 338 834 c 256
EndSplineSet
EndChar

StartChar: Aring
Encoding: 197 197 190
Width: 715
VWidth: 0
Flags: HMW
LayerCount: 2
Fore
SplineSet
165 109 m 257
 221 254 l 257
 567 255 l 257
 520 109 l 257
 165 109 l 257
450 407 m 257
 291 200 l 257
 289 154 l 257
 162 0 l 257
 -66 0 l 257
 557 752 l 257
 663 0 l 257
 455 0 l 257
 429 150 l 257
 459 200 l 257
 450 407 l 257
450 803 m 256
 468 869 541 922 609 922 c 256
 677 922 724 867 705 799 c 256
 687 732 613 681 544 681 c 256
 476 681 431 736 450 803 c 256
535 800 m 256
 530 784 535 759 555 757 c 256
 577 755 612 784 619 803 c 256
 624 819 618 845 598 847 c 256
 576 849 542 819 535 800 c 256
EndSplineSet
EndChar

StartChar: AE
Encoding: 198 198 191
Width: 1061
VWidth: 0
Flags: HMW
LayerCount: 2
Fore
SplineSet
257 130 m 257
 329 311 l 257
 618 311 l 257
 554 130 l 257
 257 130 l 257
606 700 m 257
 774 656 l 257
 210 0 l 257
 -46 0 l 257
 606 700 l 257
567 0 m 257
 622 160 l 257
 1001 160 l 257
 945 0 l 257
 567 0 l 257
771 540 m 257
 606 700 l 257
 1185 700 l 257
 1129 540 l 257
 771 540 l 257
664 285 m 257
 719 441 l 257
 1078 441 l 257
 1023 285 l 257
 664 285 l 257
718 700 m 257
 928 700 l 257
 688 0 l 257
 479 0 l 257
 718 700 l 257
EndSplineSet
EndChar

StartChar: Ccedilla
Encoding: 199 199 192
Width: 664
VWidth: 0
Flags: HMW
LayerCount: 2
Fore
SplineSet
302 350 m 256
 267 259 306 174 409 171 c 256
 493 169 569 213 637 256 c 257
 575 50 l 257
 507 10 434 -18 354 -18 c 256
 143 -18 30 153 92 350 c 256
 157 559 362 719 583 718 c 256
 656 718 716 694 773 649 c 257
 710 442 l 257
 672 497 623 529 553 529 c 256
 445 528 340 450 302 350 c 256
283 43 m 257
 417 38 l 257
 276 -87 l 257
 288 -84 302 -82 314 -83 c 256
 370 -87 396 -137 381 -189 c 256
 361 -258 286 -297 219 -300 c 256
 164 -303 114 -284 66 -258 c 257
 134 -185 l 257
 156 -198 180 -210 207 -209 c 256
 225 -208 275 -195 278 -172 c 256
 281 -151 248 -145 235 -144 c 256
 203 -142 170 -151 138 -157 c 257
 283 43 l 257
EndSplineSet
EndChar

StartChar: Egrave
Encoding: 200 200 193
Width: 584
VWidth: 0
Flags: HMW
LayerCount: 2
Fore
SplineSet
137 0 m 257
 193 160 l 257
 532 160 l 257
 475 0 l 257
 137 0 l 257
322 540 m 257
 378 700 l 257
 716 700 l 257
 660 540 l 257
 322 540 l 257
234 285 m 257
 289 441 l 257
 609 441 l 257
 554 285 l 257
 234 285 l 257
249 700 m 257
 435 700 l 257
 195 0 l 257
 10 0 l 257
 249 700 l 257
402 942 m 257
 535 995 l 257
 627 828 l 257
 527 787 l 257
 402 942 l 257
EndSplineSet
EndChar

StartChar: Eacute
Encoding: 201 201 194
Width: 584
VWidth: 0
Flags: HMW
LayerCount: 2
Fore
SplineSet
137 0 m 257
 193 160 l 257
 532 160 l 257
 475 0 l 257
 137 0 l 257
322 540 m 257
 378 700 l 257
 716 700 l 257
 660 540 l 257
 322 540 l 257
234 285 m 257
 289 441 l 257
 609 441 l 257
 554 285 l 257
 234 285 l 257
249 700 m 257
 435 700 l 257
 195 0 l 257
 10 0 l 257
 249 700 l 257
724 930 m 257
 510 788 l 257
 420 840 l 257
 610 992 l 257
 724 930 l 257
EndSplineSet
EndChar

StartChar: Ecircumflex
Encoding: 202 202 195
Width: 584
VWidth: 0
Flags: HMW
LayerCount: 2
Fore
SplineSet
137 0 m 257
 193 160 l 257
 532 160 l 257
 475 0 l 257
 137 0 l 257
322 540 m 257
 378 700 l 257
 716 700 l 257
 660 540 l 257
 322 540 l 257
234 285 m 257
 289 441 l 257
 609 441 l 257
 554 285 l 257
 234 285 l 257
249 700 m 257
 435 700 l 257
 195 0 l 257
 10 0 l 257
 249 700 l 257
558 889 m 257
 419 796 l 257
 377 841 l 257
 569 976 l 257
 682 831 l 257
 628 796 l 257
 558 889 l 257
EndSplineSet
EndChar

StartChar: Edieresis
Encoding: 203 203 196
Width: 584
VWidth: 0
Flags: HMW
LayerCount: 2
Fore
SplineSet
137 0 m 257
 193 160 l 257
 532 160 l 257
 475 0 l 257
 137 0 l 257
322 540 m 257
 378 700 l 257
 716 700 l 257
 660 540 l 257
 322 540 l 257
234 285 m 257
 289 441 l 257
 609 441 l 257
 554 285 l 257
 234 285 l 257
249 700 m 257
 435 700 l 257
 195 0 l 257
 10 0 l 257
 249 700 l 257
568 876 m 256
 582 925 638 963 688 963 c 256
 739 963 774 921 760 870 c 256
 746 821 691 783 641 783 c 256
 590 783 554 825 568 876 c 256
325 876 m 256
 339 925 394 963 444 963 c 256
 495 963 531 921 517 870 c 256
 503 821 447 783 397 783 c 256
 346 783 311 825 325 876 c 256
EndSplineSet
EndChar

StartChar: Igrave
Encoding: 204 204 197
Width: 325
VWidth: 0
Flags: HMW
LayerCount: 2
Fore
SplineSet
249 700 m 257
 447 700 l 257
 207 0 l 257
 10 0 l 257
 249 700 l 257
259 942 m 257
 393 995 l 257
 485 828 l 257
 384 787 l 257
 259 942 l 257
EndSplineSet
EndChar

StartChar: Iacute
Encoding: 205 205 198
Width: 325
VWidth: 0
Flags: HMW
LayerCount: 2
Fore
SplineSet
249 700 m 257
 447 700 l 257
 207 0 l 257
 10 0 l 257
 249 700 l 257
582 930 m 257
 368 788 l 257
 278 840 l 257
 467 992 l 257
 582 930 l 257
EndSplineSet
EndChar

StartChar: Icircumflex
Encoding: 206 206 199
Width: 325
VWidth: 0
Flags: HMW
LayerCount: 2
Fore
SplineSet
249 700 m 257
 447 700 l 257
 207 0 l 257
 10 0 l 257
 249 700 l 257
413 889 m 257
 275 796 l 257
 233 841 l 257
 426 976 l 257
 538 831 l 257
 484 796 l 257
 413 889 l 257
EndSplineSet
EndChar

StartChar: Idieresis
Encoding: 207 207 200
Width: 325
VWidth: 0
Flags: HMW
LayerCount: 2
Fore
SplineSet
249 700 m 257
 447 700 l 257
 207 0 l 257
 10 0 l 257
 249 700 l 257
432 873 m 256
 446 921 502 960 552 960 c 256
 603 960 638 918 624 867 c 256
 610 818 554 779 504 779 c 256
 453 779 418 823 432 873 c 256
188 873 m 256
 202 921 257 960 307 960 c 256
 358 960 395 918 381 867 c 256
 367 818 311 779 261 779 c 256
 210 779 174 823 188 873 c 256
EndSplineSet
EndChar

StartChar: Ntilde
Encoding: 209 209 201
Width: 752
VWidth: 0
Flags: HMW
LayerCount: 2
Fore
SplineSet
689 700 m 257
 874 700 l 257
 624 -31 l 257
 316 351 l 257
 195 0 l 257
 10 0 l 257
 260 731 l 257
 567 349 l 257
 689 700 l 257
380 852 m 257
 412 899 461 949 523 946 c 256
 567 944 593 892 637 895 c 256
 671 897 699 927 723 948 c 257
 779 859 l 257
 741 818 682 769 621 774 c 256
 577 778 547 833 502 826 c 256
 473 821 456 798 439 777 c 257
 380 852 l 257
EndSplineSet
EndChar

StartChar: Eth
Encoding: 208 208 202
Width: 706
VWidth: 0
Flags: HMW
LayerCount: 2
Fore
SplineSet
50 300 m 257
 89 409 l 257
 441 409 l 257
 402 300 l 257
 50 300 l 257
249 700 m 257
 450 700 l 257
 210 0 l 257
 10 0 l 257
 249 700 l 257
273 0 m 256
 137 0 l 257
 198 174 l 257
 303 174 l 257
 415 178 505 245 545 350 c 256
 582 446 551 520 444 525 c 258
 316 527 l 257
 377 700 l 257
 490 700 l 256
 694 695 808 548 746 350 c 256
 681 142 489 5 273 0 c 256
EndSplineSet
EndChar

StartChar: Ograve
Encoding: 210 210 203
Width: 782
VWidth: 0
Flags: HMW
LayerCount: 2
Fore
SplineSet
295 350 m 256
 265 269 276 166 382 163 c 256
 490 160 582 256 618 350 c 256
 649 432 639 535 532 537 c 256
 424 539 331 444 295 350 c 256
92 350 m 256
 156 552 355 718 571 718 c 256
 779 718 881 540 822 350 c 256
 758 146 558 -28 339 -27 c 256
 127 -26 33 160 92 350 c 256
510 942 m 257
 643 995 l 257
 735 828 l 257
 635 787 l 257
 510 942 l 257
EndSplineSet
EndChar

StartChar: Oacute
Encoding: 211 211 204
Width: 782
VWidth: 0
Flags: HMW
LayerCount: 2
Fore
SplineSet
295 350 m 256
 265 269 276 166 382 163 c 256
 490 160 582 256 618 350 c 256
 649 432 639 535 532 537 c 256
 424 539 331 444 295 350 c 256
92 350 m 256
 156 552 355 718 571 718 c 256
 779 718 881 540 822 350 c 256
 758 146 558 -28 339 -27 c 256
 127 -26 33 160 92 350 c 256
828 930 m 257
 614 788 l 257
 524 840 l 257
 713 992 l 257
 828 930 l 257
EndSplineSet
EndChar

StartChar: Ocircumflex
Encoding: 212 212 205
Width: 782
VWidth: 0
Flags: HMW
LayerCount: 2
Fore
SplineSet
295 350 m 256
 265 269 276 166 382 163 c 256
 490 160 582 256 618 350 c 256
 649 432 639 535 532 537 c 256
 424 539 331 444 295 350 c 256
92 350 m 256
 156 552 355 718 571 718 c 256
 779 718 881 540 822 350 c 256
 758 146 558 -28 339 -27 c 256
 127 -26 33 160 92 350 c 256
663 889 m 257
 525 796 l 257
 482 841 l 257
 675 976 l 257
 787 831 l 257
 733 796 l 257
 663 889 l 257
EndSplineSet
EndChar

StartChar: Otilde
Encoding: 213 213 206
Width: 782
VWidth: 0
Flags: HMW
LayerCount: 2
Fore
SplineSet
295 350 m 256
 265 269 276 166 382 163 c 256
 490 160 582 256 618 350 c 256
 649 432 639 535 532 537 c 256
 424 539 331 444 295 350 c 256
92 350 m 256
 156 552 355 718 571 718 c 256
 779 718 881 540 822 350 c 256
 758 146 558 -28 339 -27 c 256
 127 -26 33 160 92 350 c 256
476 858 m 257
 466 897 565 936 593 935 c 256
 632 934 655 888 694 891 c 256
 722 893 746 920 766 937 c 257
 804 890 l 257
 776 859 733 818 687 822 c 256
 649 825 628 869 590 867 c 256
 560 865 538 838 521 817 c 257
 476 858 l 257
EndSplineSet
EndChar

StartChar: Odieresis
Encoding: 214 214 207
Width: 782
VWidth: 0
Flags: HMW
LayerCount: 2
Fore
SplineSet
295 350 m 256
 265 269 276 166 382 163 c 256
 490 160 582 256 618 350 c 256
 649 432 639 535 532 537 c 256
 424 539 331 444 295 350 c 256
92 350 m 256
 156 552 355 718 571 718 c 256
 779 718 881 540 822 350 c 256
 758 146 558 -28 339 -27 c 256
 127 -26 33 160 92 350 c 256
660 873 m 256
 674 922 730 960 780 960 c 256
 831 960 866 918 852 867 c 256
 838 818 783 779 733 779 c 256
 682 779 646 822 660 873 c 256
417 873 m 256
 431 922 485 960 535 960 c 256
 586 960 623 918 609 867 c 256
 595 818 539 779 489 779 c 256
 438 779 403 822 417 873 c 256
EndSplineSet
EndChar

StartChar: Ugrave
Encoding: 217 217 208
Width: 683
VWidth: 0
Flags: HMW
LayerCount: 2
Fore
SplineSet
245 700 m 257
 439 700 l 257
 280 247 l 258
 266 201 267 146 327 143 c 256
 389 140 438 195 460 248 c 257
 617 700 l 257
 810 700 l 257
 651 230 l 258
 595 74 456 -35 287 -35 c 256
 128 -35 41 76 86 230 c 256
 245 700 l 257
444 934 m 257
 578 986 l 257
 669 819 l 257
 569 778 l 257
 444 934 l 257
EndSplineSet
EndChar

StartChar: Uacute
Encoding: 218 218 209
Width: 683
VWidth: 0
Flags: HMW
LayerCount: 2
Fore
SplineSet
245 700 m 257
 439 700 l 257
 280 247 l 258
 266 201 267 146 327 143 c 256
 389 140 438 195 460 248 c 257
 617 700 l 257
 810 700 l 257
 651 230 l 258
 595 74 456 -35 287 -35 c 256
 128 -35 41 76 86 230 c 256
 245 700 l 257
769 922 m 257
 555 780 l 257
 465 832 l 257
 655 984 l 257
 769 922 l 257
EndSplineSet
EndChar

StartChar: Ucircumflex
Encoding: 219 219 210
Width: 683
VWidth: 0
Flags: HMW
LayerCount: 2
Fore
SplineSet
245 700 m 257
 439 700 l 257
 280 247 l 258
 266 201 267 146 327 143 c 256
 389 140 438 195 460 248 c 257
 617 700 l 257
 810 700 l 257
 651 230 l 258
 595 74 456 -35 287 -35 c 256
 128 -35 41 76 86 230 c 256
 245 700 l 257
589 858 m 257
 482 779 l 257
 384 867 l 257
 621 1001 l 257
 780 854 l 257
 641 777 l 257
 589 858 l 257
EndSplineSet
EndChar

StartChar: Udieresis
Encoding: 220 220 211
Width: 683
VWidth: 0
Flags: HMW
LayerCount: 2
Fore
SplineSet
245 700 m 257
 439 700 l 257
 280 247 l 258
 266 201 267 146 327 143 c 256
 389 140 438 195 460 248 c 257
 617 700 l 257
 810 700 l 257
 651 230 l 258
 595 74 456 -35 287 -35 c 256
 128 -35 41 76 86 230 c 256
 245 700 l 257
635 873 m 256
 649 922 705 960 755 960 c 256
 806 960 841 918 827 867 c 256
 813 818 757 779 707 779 c 256
 656 779 621 822 635 873 c 256
343 873 m 256
 357 922 413 960 463 960 c 256
 514 960 549 918 535 867 c 256
 521 818 465 779 415 779 c 256
 364 779 329 822 343 873 c 256
EndSplineSet
EndChar

StartChar: Yacute
Encoding: 221 221 212
Width: 653
VWidth: 0
Flags: HMW
LayerCount: 2
Fore
SplineSet
754 922 m 257
 541 779 l 257
 450 832 l 257
 640 984 l 257
 754 922 l 257
619 699 m 257
 851 699 l 257
 465 270 l 257
 372 0 l 257
 174 0 l 257
 274 288 l 257
 184 700 l 257
 396 700 l 257
 425 465 l 257
 619 699 l 257
EndSplineSet
EndChar

StartChar: agrave
Encoding: 224 224 213
Width: 531
VWidth: 0
Flags: HMW
LayerCount: 2
Fore
SplineSet
180 137 m 256
 174 114 193 102 212 100 c 256
 269 95 307 146 334 187 c 257
 332 128 l 257
 294 47 225 -8 133 -9 c 256
 51 -10 -18 42 7 130 c 256
 35 227 144 275 238 276 c 256
 292 277 340 263 382 230 c 257
 358 153 l 257
 331 174 305 189 269 187 c 256
 240 185 189 169 180 137 c 256
168 306 m 257
 146 424 l 257
 216 451 290 474 366 474 c 256
 458 474 566 433 540 322 c 257
 431 0 l 257
 266 0 l 257
 368 282 l 257
 375 318 361 336 324 341 c 256
 272 347 216 324 168 306 c 257
284 690 m 257
 417 742 l 257
 509 575 l 257
 408 534 l 257
 284 690 l 257
EndSplineSet
Substitution2: "alt a" agrave.alt
EndChar

StartChar: aacute
Encoding: 225 225 214
Width: 531
VWidth: 0
Flags: HMW
LayerCount: 2
Fore
SplineSet
180 137 m 256
 174 114 193 102 212 100 c 256
 269 95 307 146 334 187 c 257
 332 128 l 257
 294 47 225 -8 133 -9 c 256
 51 -10 -18 42 7 130 c 256
 35 227 144 275 238 276 c 256
 292 277 340 263 382 230 c 257
 358 153 l 257
 331 174 305 189 269 187 c 256
 240 185 189 169 180 137 c 256
168 306 m 257
 146 424 l 257
 216 451 290 474 366 474 c 256
 458 474 566 433 540 322 c 257
 431 0 l 257
 266 0 l 257
 368 282 l 257
 375 318 361 336 324 341 c 256
 272 347 216 324 168 306 c 257
617 678 m 257
 403 535 l 257
 314 588 l 257
 504 739 l 257
 617 678 l 257
EndSplineSet
Substitution2: "alt a" aacute.alt
EndChar

StartChar: acircumflex
Encoding: 226 226 215
Width: 531
VWidth: 0
Flags: HMW
LayerCount: 2
Fore
SplineSet
180 137 m 256
 174 114 193 102 212 100 c 256
 269 95 307 146 334 187 c 257
 332 128 l 257
 294 47 225 -8 133 -9 c 256
 51 -10 -18 42 7 130 c 256
 35 227 144 275 238 276 c 256
 292 277 340 263 382 230 c 257
 358 153 l 257
 331 174 305 189 269 187 c 256
 240 185 189 169 180 137 c 256
168 306 m 257
 146 424 l 257
 216 451 290 474 366 474 c 256
 458 474 566 433 540 322 c 257
 431 0 l 257
 266 0 l 257
 368 282 l 257
 375 318 361 336 324 341 c 256
 272 347 216 324 168 306 c 257
433 614 m 257
 326 534 l 257
 227 623 l 257
 464 756 l 257
 624 610 l 257
 484 533 l 257
 433 614 l 257
EndSplineSet
Substitution2: "alt a" acircumflex.alt
EndChar

StartChar: atilde
Encoding: 227 227 216
Width: 531
VWidth: 0
Flags: HMW
LayerCount: 2
Fore
SplineSet
180 137 m 256
 174 114 193 102 212 100 c 256
 269 95 307 146 334 187 c 257
 332 128 l 257
 294 47 225 -8 133 -9 c 256
 51 -10 -18 42 7 130 c 256
 35 227 144 275 238 276 c 256
 292 277 340 263 382 230 c 257
 358 153 l 257
 331 174 305 189 269 187 c 256
 240 185 189 169 180 137 c 256
168 306 m 257
 146 424 l 257
 216 451 290 474 366 474 c 256
 458 474 566 433 540 322 c 257
 431 0 l 257
 266 0 l 257
 368 282 l 257
 375 318 361 336 324 341 c 256
 272 347 216 324 168 306 c 257
226 614 m 257
 258 661 307 711 369 708 c 256
 413 706 440 654 484 657 c 256
 518 659 545 689 569 710 c 257
 625 621 l 257
 587 580 529 531 468 536 c 256
 424 540 394 595 349 588 c 256
 320 583 302 560 285 539 c 257
 226 614 l 257
EndSplineSet
Substitution2: "alt a" atilde.alt
EndChar

StartChar: adieresis
Encoding: 228 228 217
Width: 531
VWidth: 0
Flags: HMW
LayerCount: 2
Fore
SplineSet
180 137 m 256
 174 114 193 102 212 100 c 256
 269 95 307 146 334 187 c 257
 332 128 l 257
 294 47 225 -8 133 -9 c 256
 51 -10 -18 42 7 130 c 256
 35 227 144 275 238 276 c 256
 292 277 340 263 382 230 c 257
 358 153 l 257
 331 174 305 189 269 187 c 256
 240 185 189 169 180 137 c 256
168 306 m 257
 146 424 l 257
 216 451 290 474 366 474 c 256
 458 474 566 433 540 322 c 257
 431 0 l 257
 266 0 l 257
 368 282 l 257
 375 318 361 336 324 341 c 256
 272 347 216 324 168 306 c 257
455 628 m 256
 469 677 524 716 574 716 c 256
 625 716 660 674 646 623 c 256
 632 574 577 535 527 535 c 256
 476 535 441 577 455 628 c 256
211 628 m 256
 225 677 280 716 330 716 c 256
 381 716 416 674 402 623 c 256
 388 574 333 535 283 535 c 256
 232 535 197 577 211 628 c 256
EndSplineSet
Substitution2: "alt a" adieresis.alt
EndChar

StartChar: aring
Encoding: 229 229 218
Width: 531
VWidth: 0
Flags: HMW
LayerCount: 2
Fore
SplineSet
180 137 m 256
 174 114 193 102 212 100 c 256
 269 95 307 146 334 187 c 257
 332 128 l 257
 294 47 225 -8 133 -9 c 256
 51 -10 -18 42 7 130 c 256
 35 227 144 275 238 276 c 256
 292 277 340 263 382 230 c 257
 358 153 l 257
 331 174 305 189 269 187 c 256
 240 185 189 169 180 137 c 256
168 306 m 257
 146 424 l 257
 216 451 290 474 366 474 c 256
 458 474 566 433 540 322 c 257
 431 0 l 257
 266 0 l 257
 368 282 l 257
 375 318 361 336 324 341 c 256
 272 347 216 324 168 306 c 257
311 657 m 256
 329 723 402 775 470 775 c 256
 538 775 585 721 566 653 c 256
 548 586 474 535 405 535 c 256
 337 535 292 590 311 657 c 256
396 654 m 256
 391 638 397 613 417 611 c 256
 439 609 473 638 480 657 c 256
 485 673 479 699 459 701 c 256
 437 703 403 673 396 654 c 256
EndSplineSet
Substitution2: "alt a" aring.alt
EndChar

StartChar: germandbls
Encoding: 223 223 219
Width: 563
VWidth: 0
Flags: HMW
LayerCount: 2
Fore
SplineSet
259 149 m 257
 326 161 390 193 415 262 c 256
 441 335 381 348 323 354 c 257
 361 476 l 257
 502 467 621 379 575 224 c 256
 527 60 369 -1 212 -9 c 257
 259 149 l 257
340 409 m 257
 372 513 l 257
 414 519 476 531 488 581 c 256
 497 615 476 639 442 639 c 256
 400 639 364 618 351 580 c 258
 150 0 l 257
 -15 0 l 257
 191 607 l 258
 232 727 352 798 479 798 c 256
 592 798 695 729 659 605 c 256
 619 463 472 416 340 409 c 257
EndSplineSet
EndChar

StartChar: ae
Encoding: 230 230 220
Width: 866
VWidth: 0
Flags: HMW
LayerCount: 2
Fore
SplineSet
180 137 m 256
 173 114 192 102 211 100 c 256
 267 95 303 146 328 188 c 257
 392 127 l 257
 348 32 264 -10 161 -9 c 256
 78 -9 -21 30 7 130 c 256
 34 227 145 275 238 276 c 256
 292 277 340 263 382 230 c 257
 358 153 l 257
 331 174 305 189 269 187 c 256
 240 185 189 169 180 137 c 256
168 306 m 257
 146 424 l 257
 215 450 290 475 366 474 c 256
 465 472 507 418 481 322 c 257
 418 130 l 257
 311 131 l 257
 367 280 l 257
 375 316 362 336 325 341 c 256
 273 348 215 324 168 306 c 257
412 194 m 257
 440 283 l 257
 865 283 l 257
 850 193 l 257
 412 194 l 257
690 242 m 258
 703 280 724 350 664 356 c 256
 603 362 563 298 540 252 c 258
 529 229 l 257
 511 185 503 120 565 113 c 256
 608 108 648 136 680 161 c 257
 831 129 l 257
 759 47 663 -10 551 -10 c 256
 405 -9 357 100 399 230 c 256
 404 247 412 263 419 279 c 256
 474 390 586 470 712 470 c 256
 848 470 899 359 866 238 c 256
 862 223 856 209 851 194 c 257
 680 215 l 257
 690 242 l 258
EndSplineSet
EndChar

StartChar: ccedilla
Encoding: 231 231 221
Width: 469
VWidth: 0
Flags: HMW
LayerCount: 2
Fore
SplineSet
225 229 m 256
 206 178 227 132 284 129 c 256
 338 125 388 158 430 188 c 257
 383 25 l 257
 338 4 291 -10 241 -10 c 256
 104 -10 8 93 49 231 c 256
 92 374 237 470 383 470 c 256
 431 470 474 456 516 435 c 257
 467 271 l 257
 445 308 419 334 374 333 c 256
 314 332 246 285 225 229 c 256
176 60 m 257
 310 55 l 257
 169 -70 l 257
 181 -67 195 -65 207 -66 c 256
 263 -70 289 -120 274 -172 c 256
 254 -241 177 -280 110 -283 c 256
 55 -286 7 -267 -41 -241 c 257
 27 -168 l 257
 49 -181 72 -193 99 -192 c 256
 117 -191 168 -178 171 -155 c 256
 174 -134 141 -128 128 -127 c 256
 96 -125 62 -134 30 -140 c 257
 176 60 l 257
EndSplineSet
EndChar

StartChar: egrave
Encoding: 232 232 222
Width: 559
VWidth: 0
Flags: HMW
LayerCount: 2
Fore
SplineSet
134 194 m 257
 162 282 l 257
 389 284 l 257
 393 316 396 353 354 357 c 256
 293 362 255 296 232 251 c 258
 221 229 l 257
 203 185 196 120 257 113 c 256
 300 108 340 136 372 161 c 257
 523 129 l 257
 451 46 356 -10 243 -10 c 256
 101 -10 10 88 51 230 c 256
 56 247 62 263 69 279 c 256
 125 398 248 470 378 470 c 256
 519 470 594 375 558 238 c 256
 554 223 549 209 544 194 c 257
 134 194 l 257
300 688 m 257
 434 740 l 257
 525 573 l 257
 425 532 l 257
 300 688 l 257
EndSplineSet
EndChar

StartChar: eacute
Encoding: 233 233 223
Width: 559
VWidth: 0
Flags: HMW
LayerCount: 2
Fore
SplineSet
134 194 m 257
 162 282 l 257
 389 284 l 257
 393 316 396 353 354 357 c 256
 293 362 255 296 232 251 c 258
 221 229 l 257
 203 185 196 120 257 113 c 256
 300 108 340 136 372 161 c 257
 523 129 l 257
 451 46 356 -10 243 -10 c 256
 101 -10 10 88 51 230 c 256
 56 247 62 263 69 279 c 256
 125 398 248 470 378 470 c 256
 519 470 594 375 558 238 c 256
 554 223 549 209 544 194 c 257
 134 194 l 257
631 676 m 257
 417 534 l 257
 327 586 l 257
 516 737 l 257
 631 676 l 257
EndSplineSet
EndChar

StartChar: ecircumflex
Encoding: 234 234 224
Width: 559
VWidth: 0
Flags: HMW
LayerCount: 2
Fore
SplineSet
134 194 m 257
 162 282 l 257
 389 284 l 257
 393 316 396 353 354 357 c 256
 293 362 255 296 232 251 c 258
 221 229 l 257
 203 185 196 120 257 113 c 256
 300 108 340 136 372 161 c 257
 523 129 l 257
 451 46 356 -10 243 -10 c 256
 101 -10 10 88 51 230 c 256
 56 247 62 263 69 279 c 256
 125 398 248 470 378 470 c 256
 519 470 594 375 558 238 c 256
 554 223 549 209 544 194 c 257
 134 194 l 257
446 610 m 257
 339 531 l 257
 240 619 l 257
 477 753 l 257
 636 607 l 257
 497 529 l 257
 446 610 l 257
EndSplineSet
EndChar

StartChar: edieresis
Encoding: 235 235 225
Width: 559
VWidth: 0
Flags: HMW
LayerCount: 2
Fore
SplineSet
134 194 m 257
 162 282 l 257
 389 284 l 257
 393 316 396 353 354 357 c 256
 293 362 255 296 232 251 c 258
 221 229 l 257
 203 185 196 120 257 113 c 256
 300 108 340 136 372 161 c 257
 523 129 l 257
 451 46 356 -10 243 -10 c 256
 101 -10 10 88 51 230 c 256
 56 247 62 263 69 279 c 256
 125 398 248 470 378 470 c 256
 519 470 594 375 558 238 c 256
 554 223 549 209 544 194 c 257
 134 194 l 257
467 625 m 256
 481 674 537 713 587 713 c 256
 638 713 673 670 659 619 c 256
 645 570 589 532 539 532 c 256
 488 532 453 574 467 625 c 256
223 625 m 256
 237 674 293 713 343 713 c 256
 394 713 429 670 415 619 c 256
 401 570 346 532 296 532 c 256
 245 532 209 574 223 625 c 256
EndSplineSet
EndChar

StartChar: igrave
Encoding: 236 236 226
Width: 265
VWidth: 0
Flags: HMW
LayerCount: 2
Fore
SplineSet
152 460 m 257
 319 460 l 257
 161 0 l 257
 -5 0 l 257
 152 460 l 257
136 689 m 257
 270 742 l 257
 362 575 l 257
 261 534 l 257
 136 689 l 257
EndSplineSet
EndChar

StartChar: dotlessi
Encoding: 305 305 227
Width: 265
VWidth: 0
Flags: HMW
LayerCount: 2
Fore
SplineSet
152 460 m 257
 319 460 l 257
 161 0 l 257
 -5 0 l 257
 152 460 l 257
EndSplineSet
EndChar

StartChar: kgreenlandic
Encoding: 312 312 228
Width: 587
VWidth: 0
Flags: HMW
LayerCount: 2
Fore
SplineSet
150 460 m 257
 315 460 l 257
 157 0 l 257
 -7 0 l 257
 150 460 l 257
459 459 m 257
 676 459 l 257
 414 263 l 257
 522 0 l 257
 338 0 l 257
 219 279 l 257
 459 459 l 257
EndSplineSet
EndChar

StartChar: iacute
Encoding: 237 237 229
Width: 265
VWidth: 0
Flags: HMW
LayerCount: 2
Fore
SplineSet
152 460 m 257
 319 460 l 257
 161 0 l 257
 -5 0 l 257
 152 460 l 257
480 677 m 257
 266 535 l 257
 176 587 l 257
 366 739 l 257
 480 677 l 257
EndSplineSet
EndChar

StartChar: icircumflex
Encoding: 238 238 230
Width: 265
VWidth: 0
Flags: HMW
LayerCount: 2
Fore
SplineSet
152 460 m 257
 319 460 l 257
 161 0 l 257
 -5 0 l 257
 152 460 l 257
295 612 m 257
 188 533 l 257
 89 621 l 257
 326 755 l 257
 486 608 l 257
 347 531 l 257
 295 612 l 257
EndSplineSet
EndChar

StartChar: idieresis
Encoding: 239 239 231
Width: 265
VWidth: 0
Flags: HMW
LayerCount: 2
Fore
SplineSet
152 460 m 257
 319 460 l 257
 161 0 l 257
 -5 0 l 257
 152 460 l 257
318 630 m 256
 332 679 388 717 438 717 c 256
 489 717 524 675 510 624 c 256
 496 575 441 536 391 536 c 256
 340 536 304 579 318 630 c 256
74 630 m 256
 88 679 144 717 194 717 c 256
 245 717 281 675 267 624 c 256
 253 575 197 536 147 536 c 256
 96 536 60 579 74 630 c 256
EndSplineSet
EndChar

StartChar: ntilde
Encoding: 241 241 232
Width: 557
VWidth: 0
Flags: HMW
LayerCount: 2
Fore
SplineSet
324 460 m 257
 166 0 l 257
 -7 0 l 257
 151 460 l 257
 324 460 l 257
375 280 m 257
 382 306 391 345 354 352 c 256
 313 359 280 309 262 281 c 257
 230 274 l 257
 266 371 331 469 446 471 c 256
 554 473 582 390 556 298 c 257
 455 0 l 257
 275 0 l 257
 375 280 l 257
235 611 m 257
 267 658 315 708 377 705 c 256
 422 703 447 651 492 654 c 256
 526 656 554 685 578 706 c 257
 634 618 l 257
 596 577 537 527 476 532 c 256
 432 536 403 592 358 585 c 256
 329 580 310 557 293 536 c 257
 235 611 l 257
EndSplineSet
EndChar

StartChar: ograve
Encoding: 242 242 233
Width: 568
VWidth: 0
Flags: HMW
LayerCount: 2
Fore
SplineSet
50 231 m 256
 92 371 235 471 380 471 c 256
 517 471 608 364 568 229 c 256
 526 89 382 -10 238 -10 c 256
 101 -10 10 96 50 231 c 256
225 229 m 256
 210 190 216 137 267 134 c 256
 321 131 375 184 393 231 c 256
 408 270 402 324 351 327 c 256
 297 330 243 276 225 229 c 256
315 689 m 257
 448 742 l 257
 540 575 l 257
 439 534 l 257
 315 689 l 257
EndSplineSet
EndChar

StartChar: oacute
Encoding: 243 243 234
Width: 568
VWidth: 0
Flags: HMW
LayerCount: 2
Fore
SplineSet
50 231 m 256
 92 371 235 471 380 471 c 256
 517 471 608 364 568 229 c 256
 526 89 382 -10 238 -10 c 256
 101 -10 10 96 50 231 c 256
225 229 m 256
 210 190 216 137 267 134 c 256
 321 131 375 184 393 231 c 256
 408 270 402 324 351 327 c 256
 297 330 243 276 225 229 c 256
617 677 m 257
 403 535 l 257
 313 587 l 257
 502 739 l 257
 617 677 l 257
EndSplineSet
EndChar

StartChar: ocircumflex
Encoding: 244 244 235
Width: 568
VWidth: 0
Flags: HMW
LayerCount: 2
Fore
SplineSet
50 231 m 256
 92 371 235 471 380 471 c 256
 517 471 608 364 568 229 c 256
 526 89 382 -10 238 -10 c 256
 101 -10 10 96 50 231 c 256
225 229 m 256
 210 190 216 137 267 134 c 256
 321 131 375 184 393 231 c 256
 408 270 402 324 351 327 c 256
 297 330 243 276 225 229 c 256
448 614 m 257
 342 534 l 257
 243 623 l 257
 479 756 l 257
 639 610 l 257
 500 532 l 257
 448 614 l 257
EndSplineSet
EndChar

StartChar: otilde
Encoding: 245 245 236
Width: 568
VWidth: 0
Flags: HMW
LayerCount: 2
Fore
SplineSet
50 231 m 256
 92 371 235 471 380 471 c 256
 517 471 608 364 568 229 c 256
 526 89 382 -10 238 -10 c 256
 101 -10 10 96 50 231 c 256
225 229 m 256
 210 190 216 137 267 134 c 256
 321 131 375 184 393 231 c 256
 408 270 402 324 351 327 c 256
 297 330 243 276 225 229 c 256
241 610 m 257
 231 661 347 706 384 705 c 256
 429 704 452 651 497 654 c 256
 531 656 560 685 584 706 c 257
 640 618 l 257
 602 577 543 527 482 532 c 256
 438 536 408 592 363 585 c 256
 334 580 317 557 300 536 c 257
 241 610 l 257
EndSplineSet
EndChar

StartChar: odieresis
Encoding: 246 246 237
Width: 568
VWidth: 0
Flags: HMW
LayerCount: 2
Fore
SplineSet
50 231 m 256
 92 371 235 471 380 471 c 256
 517 471 608 364 568 229 c 256
 526 89 382 -10 238 -10 c 256
 101 -10 10 96 50 231 c 256
225 229 m 256
 210 190 216 137 267 134 c 256
 321 131 375 184 393 231 c 256
 408 270 402 324 351 327 c 256
 297 330 243 276 225 229 c 256
470 630 m 256
 484 679 540 717 590 717 c 256
 641 717 676 675 662 624 c 256
 648 575 592 536 542 536 c 256
 491 536 456 579 470 630 c 256
226 630 m 256
 240 679 296 717 346 717 c 256
 397 717 432 675 418 624 c 256
 404 575 349 536 299 536 c 256
 248 536 212 579 226 630 c 256
EndSplineSet
EndChar

StartChar: ugrave
Encoding: 249 249 238
Width: 557
VWidth: 0
Flags: HMW
LayerCount: 2
Fore
SplineSet
282 0 m 257
 441 460 l 257
 614 460 l 257
 455 0 l 257
 282 0 l 257
232 180 m 257
 225 154 215 115 252 108 c 256
 293 101 327 151 345 179 c 257
 377 186 l 257
 341 89 274 -9 159 -11 c 256
 51 -13 24 70 50 162 c 257
 151 460 l 257
 332 460 l 257
 232 180 l 257
314 689 m 257
 448 742 l 257
 539 575 l 257
 439 534 l 257
 314 689 l 257
EndSplineSet
EndChar

StartChar: uacute
Encoding: 250 250 239
Width: 557
VWidth: 0
Flags: HMW
LayerCount: 2
Fore
SplineSet
282 0 m 257
 441 460 l 257
 614 460 l 257
 455 0 l 257
 282 0 l 257
232 180 m 257
 225 154 215 115 252 108 c 256
 293 101 327 151 345 179 c 257
 377 186 l 257
 341 89 274 -9 159 -11 c 256
 51 -13 24 70 50 162 c 257
 151 460 l 257
 332 460 l 257
 232 180 l 257
604 677 m 257
 391 535 l 257
 301 587 l 257
 491 739 l 257
 604 677 l 257
EndSplineSet
EndChar

StartChar: ucircumflex
Encoding: 251 251 240
Width: 557
VWidth: 0
Flags: HMW
LayerCount: 2
Fore
SplineSet
282 0 m 257
 441 460 l 257
 614 460 l 257
 455 0 l 257
 282 0 l 257
232 180 m 257
 225 154 215 115 252 108 c 256
 293 101 327 151 345 179 c 257
 377 186 l 257
 341 89 274 -9 159 -11 c 256
 51 -13 24 70 50 162 c 257
 151 460 l 257
 332 460 l 257
 232 180 l 257
443 614 m 257
 335 534 l 257
 236 623 l 257
 473 756 l 257
 633 610 l 257
 493 532 l 257
 443 614 l 257
EndSplineSet
EndChar

StartChar: udieresis
Encoding: 252 252 241
Width: 557
VWidth: 0
Flags: HMW
LayerCount: 2
Fore
SplineSet
282 0 m 257
 441 460 l 257
 614 460 l 257
 455 0 l 257
 282 0 l 257
232 180 m 257
 225 154 215 115 252 108 c 256
 293 101 327 151 345 179 c 257
 377 186 l 257
 341 89 274 -9 159 -11 c 256
 51 -13 24 70 50 162 c 257
 151 460 l 257
 332 460 l 257
 232 180 l 257
465 628 m 256
 479 676 533 716 583 716 c 256
 634 716 671 673 657 622 c 256
 643 573 587 535 537 535 c 256
 486 535 451 578 465 628 c 256
221 628 m 256
 235 676 290 716 340 716 c 256
 391 716 426 673 412 622 c 256
 398 573 343 535 293 535 c 256
 242 535 207 578 221 628 c 256
EndSplineSet
EndChar

StartChar: yacute
Encoding: 253 253 242
Width: 516
VWidth: 0
Flags: HMW
LayerCount: 2
Fore
SplineSet
640 459 m 257
 124 -219 l 257
 -54 -219 l 257
 140 37 l 257
 93 460 l 257
 271 460 l 257
 283 87 l 257
 189 89 l 257
 458 459 l 257
 640 459 l 257
602 677 m 257
 388 535 l 257
 299 587 l 257
 488 739 l 257
 602 677 l 257
EndSplineSet
EndChar

StartChar: thorn
Encoding: 254 254 243
Width: 595
VWidth: 0
Flags: HMW
LayerCount: 2
Fore
SplineSet
90 -220 m 257
 -83 -220 l 257
 259 780 l 257
 432 780 l 257
 90 -220 l 257
594 229 m 256
 558 111 450 -10 318 -10 c 256
 186 -10 165 129 196 231 c 256
 231 346 330 469 460 469 c 256
 592 469 627 337 594 229 c 256
416 231 m 256
 431 271 422 328 370 331 c 256
 315 334 259 276 241 229 c 256
 226 190 233 132 285 129 c 256
 340 126 398 184 416 231 c 256
EndSplineSet
EndChar

StartChar: ydieresis
Encoding: 255 255 244
Width: 516
VWidth: 0
Flags: HMW
LayerCount: 2
Fore
SplineSet
640 459 m 257
 124 -219 l 257
 -54 -219 l 257
 140 37 l 257
 93 460 l 257
 271 460 l 257
 283 87 l 257
 189 89 l 257
 458 459 l 257
 640 459 l 257
443 625 m 256
 457 674 513 713 563 713 c 256
 614 713 649 670 635 619 c 256
 621 570 565 532 515 532 c 256
 464 532 429 574 443 625 c 256
199 625 m 256
 213 674 268 713 318 713 c 256
 369 713 405 670 391 619 c 256
 377 570 322 532 272 532 c 256
 221 532 185 574 199 625 c 256
EndSplineSet
EndChar

StartChar: Amacron
Encoding: 256 256 245
Width: 715
VWidth: 0
Flags: HMW
LayerCount: 2
Fore
SplineSet
165 109 m 257
 221 254 l 257
 567 255 l 257
 520 109 l 257
 165 109 l 257
450 407 m 257
 291 200 l 257
 289 154 l 257
 162 0 l 257
 -66 0 l 257
 557 752 l 257
 663 0 l 257
 455 0 l 257
 429 150 l 257
 459 200 l 257
 450 407 l 257
398 808 m 257
 451 959 l 257
 813 959 l 257
 760 808 l 257
 398 808 l 257
EndSplineSet
EndChar

StartChar: amacron
Encoding: 257 257 246
Width: 531
VWidth: 0
Flags: HMW
LayerCount: 2
Fore
SplineSet
180 137 m 256
 174 114 193 102 212 100 c 256
 269 95 307 146 334 187 c 257
 332 128 l 257
 294 47 225 -8 133 -9 c 256
 51 -10 -18 42 7 130 c 256
 35 227 144 275 238 276 c 256
 292 277 340 263 382 230 c 257
 358 153 l 257
 331 174 305 189 269 187 c 256
 240 185 189 169 180 137 c 256
168 306 m 257
 146 424 l 257
 216 451 290 474 366 474 c 256
 458 474 566 433 540 322 c 257
 431 0 l 257
 266 0 l 257
 368 282 l 257
 375 318 361 336 324 341 c 256
 272 347 216 324 168 306 c 257
216 537 m 257
 269 688 l 257
 633 688 l 257
 580 537 l 257
 216 537 l 257
EndSplineSet
Substitution2: "alt a" amacron.alt
EndChar

StartChar: breve
Encoding: 728 728 247
Width: 513
VWidth: 0
Flags: HMW
LayerCount: 2
Fore
SplineSet
324 850 m 257
 425 850 l 257
 427 826 428 801 458 797 c 256
 490 793 514 827 531 849 c 257
 641 848 l 257
 608 765 542 704 448 703 c 256
 355 702 315 763 324 850 c 257
EndSplineSet
EndChar

StartChar: Abreve
Encoding: 258 258 248
Width: 715
VWidth: 0
Flags: HMW
LayerCount: 2
Fore
SplineSet
165 109 m 257
 221 254 l 257
 567 255 l 257
 520 109 l 257
 165 109 l 257
450 407 m 257
 291 200 l 257
 289 154 l 257
 162 0 l 257
 -66 0 l 257
 557 752 l 257
 663 0 l 257
 455 0 l 257
 429 150 l 257
 459 200 l 257
 450 407 l 257
470 956 m 257
 571 956 l 257
 572 932 571 907 601 903 c 256
 633 899 658 933 676 955 c 257
 787 953 l 257
 752 870 684 810 590 809 c 256
 496 808 459 870 470 956 c 257
EndSplineSet
EndChar

StartChar: abreve
Encoding: 259 259 249
Width: 531
VWidth: 0
Flags: HMW
LayerCount: 2
Fore
SplineSet
180 137 m 256
 174 114 193 102 212 100 c 256
 269 95 307 146 334 187 c 257
 332 128 l 257
 294 47 225 -8 133 -9 c 256
 51 -10 -18 42 7 130 c 256
 35 227 144 275 238 276 c 256
 292 277 340 263 382 230 c 257
 358 153 l 257
 331 174 305 189 269 187 c 256
 240 185 189 169 180 137 c 256
168 306 m 257
 146 424 l 257
 216 451 290 474 366 474 c 256
 458 474 566 433 540 322 c 257
 431 0 l 257
 266 0 l 257
 368 282 l 257
 375 318 361 336 324 341 c 256
 272 347 216 324 168 306 c 257
287 683 m 257
 388 683 l 257
 389 659 389 634 419 630 c 256
 451 626 476 660 494 682 c 257
 604 680 l 257
 569 597 501 536 407 535 c 256
 313 534 276 597 287 683 c 257
EndSplineSet
Substitution2: "alt a" abreve.alt
EndChar

StartChar: Aogonek
Encoding: 260 260 250
Width: 715
VWidth: 0
Flags: HMW
LayerCount: 2
Fore
SplineSet
165 109 m 257
 221 254 l 257
 567 255 l 257
 520 109 l 257
 165 109 l 257
450 407 m 257
 291 200 l 257
 289 154 l 257
 162 0 l 257
 -66 0 l 257
 557 752 l 257
 663 0 l 257
 455 0 l 257
 429 150 l 257
 459 200 l 257
 450 407 l 257
568 -104 m 257
 578 -183 l 257
 546 -205 511 -221 472 -220 c 256
 415 -219 373 -177 388 -118 c 256
 408 -42 499 -5 563 25 c 257
 604 0 l 257
 570 -25 513 -48 499 -92 c 256
 496 -105 495 -121 511 -124 c 256
 528 -127 553 -111 568 -104 c 257
EndSplineSet
EndChar

StartChar: aogonek
Encoding: 261 261 251
Width: 531
VWidth: 0
Flags: HMW
LayerCount: 2
Fore
SplineSet
180 137 m 256
 174 115 193 102 212 100 c 256
 268 95 307 146 334 187 c 257
 332 128 l 257
 294 47 225 -8 133 -9 c 256
 50 -10 -17 43 8 131 c 256
 36 228 144 275 238 276 c 256
 292 277 340 263 382 230 c 257
 358 153 l 257
 331 174 305 189 269 187 c 256
 240 185 189 169 180 137 c 256
168 306 m 257
 146 424 l 257
 216 451 290 474 366 474 c 256
 458 474 566 433 540 322 c 257
 431 0 l 257
 266 0 l 257
 368 282 l 257
 375 318 361 336 324 341 c 256
 272 347 216 324 168 306 c 257
356 -104 m 257
 365 -183 l 257
 333 -205 298 -221 259 -220 c 256
 202 -219 160 -177 175 -118 c 256
 195 -42 287 -5 351 25 c 257
 391 0 l 257
 357 -25 301 -48 287 -92 c 256
 284 -105 284 -121 300 -124 c 256
 317 -127 341 -111 356 -104 c 257
EndSplineSet
Substitution2: "alt a" aogonek.alt
EndChar

StartChar: Cacute
Encoding: 262 262 252
Width: 664
VWidth: 0
Flags: HMW
LayerCount: 2
Fore
SplineSet
302 350 m 256
 267 259 306 174 409 171 c 256
 493 169 569 213 637 256 c 257
 575 50 l 257
 507 10 434 -18 354 -18 c 256
 143 -18 30 153 92 350 c 256
 157 559 362 719 583 718 c 256
 656 718 716 694 773 649 c 257
 710 442 l 257
 672 497 623 529 553 529 c 256
 445 528 340 450 302 350 c 256
790 922 m 257
 576 780 l 257
 487 832 l 257
 676 984 l 257
 790 922 l 257
EndSplineSet
EndChar

StartChar: cacute
Encoding: 263 263 253
Width: 469
VWidth: 0
Flags: HMW
LayerCount: 2
Fore
SplineSet
225 229 m 256
 206 178 227 132 284 129 c 256
 338 125 388 158 430 188 c 257
 383 25 l 257
 338 4 291 -10 241 -10 c 256
 104 -10 8 93 49 231 c 256
 92 374 237 470 383 470 c 256
 431 470 474 456 516 435 c 257
 467 271 l 257
 445 308 419 334 374 333 c 256
 314 332 246 285 225 229 c 256
591 674 m 257
 377 532 l 257
 287 584 l 257
 477 736 l 257
 591 674 l 257
EndSplineSet
EndChar

StartChar: Ccircumflex
Encoding: 264 264 254
Width: 664
VWidth: 0
Flags: HMW
LayerCount: 2
Fore
SplineSet
302 350 m 256
 267 259 306 174 409 171 c 256
 493 169 569 213 637 256 c 257
 575 50 l 257
 507 10 434 -18 354 -18 c 256
 143 -18 30 153 92 350 c 256
 157 559 362 719 583 718 c 256
 656 718 716 694 773 649 c 257
 710 442 l 257
 672 497 623 529 553 529 c 256
 445 528 340 450 302 350 c 256
650 858 m 257
 543 779 l 257
 444 867 l 257
 681 1001 l 257
 841 854 l 257
 701 777 l 257
 650 858 l 257
EndSplineSet
EndChar

StartChar: ccircumflex
Encoding: 265 265 255
Width: 469
VWidth: 0
Flags: HMW
LayerCount: 2
Fore
SplineSet
225 229 m 256
 206 178 227 132 284 129 c 256
 338 125 388 158 430 188 c 257
 383 25 l 257
 338 4 291 -10 241 -10 c 256
 104 -10 8 93 49 231 c 256
 92 374 237 470 383 470 c 256
 431 470 474 456 516 435 c 257
 467 271 l 257
 445 308 419 334 374 333 c 256
 314 332 246 285 225 229 c 256
411 610 m 257
 304 531 l 257
 205 619 l 257
 442 753 l 257
 602 607 l 257
 462 529 l 257
 411 610 l 257
EndSplineSet
EndChar

StartChar: Cdotaccent
Encoding: 266 266 256
Width: 664
VWidth: 0
Flags: HMW
LayerCount: 2
Fore
SplineSet
302 350 m 256
 267 259 306 174 409 171 c 256
 493 169 569 213 637 256 c 257
 575 50 l 257
 507 10 434 -18 354 -18 c 256
 143 -18 30 153 92 350 c 256
 157 559 362 719 583 718 c 256
 656 718 716 694 773 649 c 257
 710 442 l 257
 672 497 623 529 553 529 c 256
 445 528 340 450 302 350 c 256
517 873 m 256
 531 922 587 960 637 960 c 256
 688 960 724 918 710 867 c 256
 696 818 640 779 590 779 c 256
 539 779 503 822 517 873 c 256
EndSplineSet
EndChar

StartChar: cdotaccent
Encoding: 267 267 257
Width: 469
VWidth: 0
Flags: HMW
LayerCount: 2
Fore
SplineSet
225 229 m 256
 206 178 227 132 284 129 c 256
 338 125 388 158 430 188 c 257
 383 25 l 257
 338 4 291 -10 241 -10 c 256
 104 -10 8 93 49 231 c 256
 92 374 237 470 383 470 c 256
 431 470 474 456 516 435 c 257
 467 271 l 257
 445 308 419 334 374 333 c 256
 314 332 246 285 225 229 c 256
321 633 m 256
 335 682 391 721 441 721 c 256
 492 721 527 679 513 628 c 256
 499 579 444 540 394 540 c 256
 343 540 307 582 321 633 c 256
EndSplineSet
EndChar

StartChar: Ccaron
Encoding: 268 268 258
Width: 664
VWidth: 0
Flags: HMW
LayerCount: 2
Fore
SplineSet
302 350 m 256
 267 259 306 174 409 171 c 256
 493 169 569 213 637 256 c 257
 575 50 l 257
 507 10 434 -18 354 -18 c 256
 143 -18 30 153 92 350 c 256
 157 559 362 719 583 718 c 256
 656 718 716 694 773 649 c 257
 710 442 l 257
 672 497 623 529 553 529 c 256
 445 528 340 450 302 350 c 256
654 921 m 257
 762 1001 l 257
 860 912 l 257
 623 778 l 257
 463 925 l 257
 603 1002 l 257
 654 921 l 257
EndSplineSet
EndChar

StartChar: ccaron
Encoding: 269 269 259
Width: 469
VWidth: 0
Flags: HMW
LayerCount: 2
Fore
SplineSet
225 229 m 256
 206 178 227 132 284 129 c 256
 338 125 388 158 430 188 c 257
 383 25 l 257
 338 4 291 -10 241 -10 c 256
 104 -10 8 93 49 231 c 256
 92 374 237 470 383 470 c 256
 431 470 474 456 516 435 c 257
 467 271 l 257
 445 308 419 334 374 333 c 256
 314 332 246 285 225 229 c 256
416 673 m 257
 522 753 l 257
 621 664 l 257
 384 531 l 257
 224 677 l 257
 364 755 l 257
 416 673 l 257
EndSplineSet
EndChar

StartChar: Dcaron
Encoding: 270 270 260
Width: 706
VWidth: 0
Flags: HMW
LayerCount: 2
Fore
SplineSet
249 700 m 257
 450 700 l 257
 210 0 l 257
 10 0 l 257
 249 700 l 257
273 0 m 256
 137 0 l 257
 198 174 l 257
 303 174 l 257
 415 178 505 245 545 350 c 256
 582 446 551 520 444 525 c 258
 316 527 l 257
 377 700 l 257
 490 700 l 256
 694 695 808 548 746 350 c 256
 681 142 489 5 273 0 c 256
620 921 m 257
 726 1001 l 257
 825 912 l 257
 589 778 l 257
 429 925 l 257
 568 1002 l 257
 620 921 l 257
EndSplineSet
EndChar

StartChar: dcaron
Encoding: 271 271 261
Width: 595
VWidth: 0
Flags: HMW
LayerCount: 2
Fore
SplineSet
589 780 m 257
 762 780 l 257
 494 0 l 257
 322 0 l 257
 589 780 l 257
50 231 m 256
 86 349 195 470 327 470 c 256
 459 470 479 331 448 229 c 256
 413 114 315 -9 185 -9 c 256
 53 -9 17 123 50 231 c 256
229 229 m 256
 214 189 222 132 274 129 c 256
 329 126 385 184 403 231 c 256
 418 270 412 328 360 331 c 256
 305 334 247 276 229 229 c 256
863 778 m 257
 1030 743 l 257
 823 499 l 257
 693 525 l 257
 863 778 l 257
EndSplineSet
EndChar

StartChar: Dcroat
Encoding: 272 272 262
Width: 706
VWidth: 0
Flags: HMW
LayerCount: 2
Fore
SplineSet
47 293 m 257
 85 402 l 257
 430 402 l 257
 391 293 l 257
 47 293 l 257
249 700 m 257
 450 700 l 257
 210 0 l 257
 10 0 l 257
 249 700 l 257
273 0 m 256
 137 0 l 257
 198 174 l 257
 303 174 l 257
 415 178 505 245 545 350 c 256
 582 446 551 520 444 525 c 258
 316 527 l 257
 377 700 l 257
 490 700 l 256
 694 695 808 548 746 350 c 256
 681 142 489 5 273 0 c 256
EndSplineSet
EndChar

StartChar: dcroat
Encoding: 273 273 263
Width: 595
VWidth: 0
Flags: HMW
LayerCount: 2
Fore
SplineSet
410 556 m 257
 448 665 l 257
 809 665 l 257
 770 556 l 257
 410 556 l 257
589 780 m 257
 762 780 l 257
 494 0 l 257
 322 0 l 257
 589 780 l 257
50 231 m 256
 86 349 195 470 327 470 c 256
 459 470 479 331 448 229 c 256
 413 114 315 -9 185 -9 c 256
 53 -9 17 123 50 231 c 256
229 229 m 256
 214 189 222 132 274 129 c 256
 329 126 385 184 403 231 c 256
 418 270 412 328 360 331 c 256
 305 334 247 276 229 229 c 256
EndSplineSet
EndChar

StartChar: Emacron
Encoding: 274 274 264
Width: 584
VWidth: 0
Flags: HMW
LayerCount: 2
Fore
SplineSet
137 0 m 257
 193 160 l 257
 532 160 l 257
 475 0 l 257
 137 0 l 257
322 540 m 257
 378 700 l 257
 716 700 l 257
 660 540 l 257
 322 540 l 257
234 285 m 257
 289 441 l 257
 609 441 l 257
 554 285 l 257
 234 285 l 257
249 700 m 257
 435 700 l 257
 195 0 l 257
 10 0 l 257
 249 700 l 257
327 779 m 257
 379 930 l 257
 743 930 l 257
 690 778 l 257
 327 779 l 257
EndSplineSet
EndChar

StartChar: emacron
Encoding: 275 275 265
Width: 559
VWidth: 0
Flags: HMW
LayerCount: 2
Fore
SplineSet
134 194 m 257
 162 282 l 257
 389 284 l 257
 393 316 396 353 354 357 c 256
 293 362 255 296 232 251 c 258
 221 229 l 257
 203 185 196 120 257 113 c 256
 300 108 340 136 372 161 c 257
 523 129 l 257
 451 46 356 -10 243 -10 c 256
 101 -10 10 88 51 230 c 256
 56 247 62 263 69 279 c 256
 125 398 248 470 378 470 c 256
 519 470 594 375 558 238 c 256
 554 223 549 209 544 194 c 257
 134 194 l 257
228 531 m 257
 281 682 l 257
 645 682 l 257
 591 531 l 257
 228 531 l 257
EndSplineSet
EndChar

StartChar: Ebreve
Encoding: 276 276 266
Width: 584
VWidth: 0
Flags: HMW
LayerCount: 2
Fore
SplineSet
137 0 m 257
 193 160 l 257
 532 160 l 257
 475 0 l 257
 137 0 l 257
322 540 m 257
 378 700 l 257
 716 700 l 257
 660 540 l 257
 322 540 l 257
234 285 m 257
 289 441 l 257
 609 441 l 257
 554 285 l 257
 234 285 l 257
249 700 m 257
 435 700 l 257
 195 0 l 257
 10 0 l 257
 249 700 l 257
398 927 m 257
 499 927 l 257
 500 903 499 878 529 874 c 256
 561 870 587 904 605 926 c 257
 716 924 l 257
 681 841 612 780 518 779 c 256
 424 778 387 841 398 927 c 257
EndSplineSet
EndChar

StartChar: ebreve
Encoding: 277 277 267
Width: 559
VWidth: 0
Flags: HMW
LayerCount: 2
Fore
SplineSet
134 194 m 257
 162 282 l 257
 389 284 l 257
 393 316 396 353 354 357 c 256
 293 362 255 296 232 251 c 258
 221 229 l 257
 203 185 196 120 257 113 c 256
 300 108 340 136 372 161 c 257
 523 129 l 257
 451 46 356 -10 243 -10 c 256
 101 -10 10 88 51 230 c 256
 56 247 62 263 69 279 c 256
 125 398 248 470 378 470 c 256
 519 470 594 375 558 238 c 256
 554 223 549 209 544 194 c 257
 134 194 l 257
300 679 m 257
 402 679 l 257
 403 655 402 630 432 626 c 256
 464 622 489 656 507 678 c 257
 618 676 l 257
 583 593 514 533 420 532 c 256
 326 531 289 593 300 679 c 257
EndSplineSet
EndChar

StartChar: Edotaccent
Encoding: 278 278 268
Width: 584
VWidth: 0
Flags: HMW
LayerCount: 2
Fore
SplineSet
137 0 m 257
 193 160 l 257
 532 160 l 257
 475 0 l 257
 137 0 l 257
322 540 m 257
 378 700 l 257
 716 700 l 257
 660 540 l 257
 322 540 l 257
234 285 m 257
 289 441 l 257
 609 441 l 257
 554 285 l 257
 234 285 l 257
249 700 m 257
 435 700 l 257
 195 0 l 257
 10 0 l 257
 249 700 l 257
443 873 m 256
 457 922 513 960 563 960 c 256
 614 960 649 918 635 867 c 256
 621 818 566 779 516 779 c 256
 465 779 429 822 443 873 c 256
EndSplineSet
EndChar

StartChar: edotaccent
Encoding: 279 279 269
Width: 559
VWidth: 0
Flags: HMW
LayerCount: 2
Fore
SplineSet
134 194 m 257
 162 282 l 257
 389 284 l 257
 393 316 396 353 354 357 c 256
 293 362 255 296 232 251 c 258
 221 229 l 257
 203 185 196 120 257 113 c 256
 300 108 340 136 372 161 c 257
 523 129 l 257
 451 46 356 -10 243 -10 c 256
 101 -10 10 88 51 230 c 256
 56 247 62 263 69 279 c 256
 125 398 248 470 378 470 c 256
 519 470 594 375 558 238 c 256
 554 223 549 209 544 194 c 257
 134 194 l 257
345 625 m 256
 359 674 415 713 465 713 c 256
 516 713 551 670 537 619 c 256
 523 570 467 532 417 532 c 256
 366 532 331 574 345 625 c 256
EndSplineSet
EndChar

StartChar: Eogonek
Encoding: 280 280 270
Width: 584
VWidth: 0
Flags: HMW
LayerCount: 2
Fore
SplineSet
137 0 m 257
 193 160 l 257
 532 160 l 257
 475 0 l 257
 137 0 l 257
322 540 m 257
 378 700 l 257
 716 700 l 257
 660 540 l 257
 322 540 l 257
234 285 m 257
 289 441 l 257
 609 441 l 257
 554 285 l 257
 234 285 l 257
249 700 m 257
 435 700 l 257
 195 0 l 257
 10 0 l 257
 249 700 l 257
295 -104 m 257
 304 -183 l 257
 272 -205 237 -221 198 -220 c 256
 141 -219 99 -177 114 -118 c 256
 134 -42 226 -5 290 25 c 257
 330 0 l 257
 296 -25 240 -48 226 -92 c 256
 223 -105 222 -121 238 -124 c 256
 255 -127 280 -111 295 -104 c 257
EndSplineSet
EndChar

StartChar: eogonek
Encoding: 281 281 271
Width: 559
VWidth: 0
Flags: HMW
LayerCount: 2
Fore
SplineSet
134 194 m 257
 162 282 l 257
 389 284 l 257
 393 316 396 353 354 357 c 256
 293 362 255 296 232 251 c 258
 221 229 l 257
 203 185 196 120 257 113 c 256
 300 108 340 136 372 161 c 257
 523 129 l 257
 451 46 356 -10 243 -10 c 256
 101 -10 10 88 51 230 c 256
 56 247 62 263 69 279 c 256
 125 398 248 470 378 470 c 256
 519 470 594 375 558 238 c 256
 554 223 549 209 544 194 c 257
 134 194 l 257
228 -93 m 257
 238 -172 l 257
 206 -194 171 -209 132 -208 c 256
 75 -207 33 -166 48 -107 c 256
 68 -31 159 7 223 37 c 257
 263 6 l 257
 227 -14 173 -39 159 -81 c 256
 155 -94 155 -109 171 -112 c 256
 188 -115 213 -100 228 -93 c 257
EndSplineSet
EndChar

StartChar: Ecaron
Encoding: 282 282 272
Width: 584
VWidth: 0
Flags: HMW
LayerCount: 2
Fore
SplineSet
137 0 m 257
 193 160 l 257
 532 160 l 257
 475 0 l 257
 137 0 l 257
322 540 m 257
 378 700 l 257
 716 700 l 257
 660 540 l 257
 322 540 l 257
234 285 m 257
 289 441 l 257
 609 441 l 257
 554 285 l 257
 234 285 l 257
249 700 m 257
 435 700 l 257
 195 0 l 257
 10 0 l 257
 249 700 l 257
548 921 m 257
 656 1001 l 257
 754 912 l 257
 517 778 l 257
 358 925 l 257
 497 1002 l 257
 548 921 l 257
EndSplineSet
EndChar

StartChar: ecaron
Encoding: 283 283 273
Width: 559
VWidth: 0
Flags: HMW
LayerCount: 2
Fore
SplineSet
134 194 m 257
 162 282 l 257
 389 284 l 257
 393 316 396 353 354 357 c 256
 293 362 255 296 232 251 c 258
 221 229 l 257
 203 185 196 120 257 113 c 256
 300 108 340 136 372 161 c 257
 523 129 l 257
 451 46 356 -10 243 -10 c 256
 101 -10 10 88 51 230 c 256
 56 247 62 263 69 279 c 256
 125 398 248 470 378 470 c 256
 519 470 594 375 558 238 c 256
 554 223 549 209 544 194 c 257
 134 194 l 257
450 673 m 257
 557 753 l 257
 656 664 l 257
 419 531 l 257
 260 677 l 257
 399 755 l 257
 450 673 l 257
EndSplineSet
EndChar

StartChar: Gcircumflex
Encoding: 284 284 274
Width: 778
VWidth: 0
Flags: HMW
LayerCount: 2
Fore
SplineSet
426 245 m 257
 478 393 l 257
 821 392 l 257
 763 175 587 -26 348 -27 c 256
 134 -27 31 156 92 350 c 256
 158 559 366 720 587 718 c 256
 710 717 795 652 848 544 c 257
 653 461 l 257
 637 512 609 546 551 548 c 256
 435 552 332 451 293 350 c 256
 258 259 274 147 391 144 c 256
 473 142 537 191 591 247 c 257
 426 245 l 257
654 858 m 257
 548 779 l 257
 449 867 l 257
 686 1001 l 257
 845 854 l 257
 706 777 l 257
 654 858 l 257
EndSplineSet
EndChar

StartChar: gcircumflex
Encoding: 285 285 275
Width: 587
VWidth: 0
Flags: HMW
LayerCount: 2
Fore
SplineSet
-33 -33 m 257
 126 -35 l 257
 128 -75 135 -102 182 -103 c 256
 249 -105 299 -45 323 11 c 257
 479 460 l 257
 644 460 l 257
 491 9 l 258
 439 -135 323 -241 165 -242 c 256
 29 -243 -44 -168 -33 -33 c 257
53 239 m 256
 89 357 197 470 327 470 c 256
 457 470 484 342 452 238 c 256
 418 124 319 7 191 7 c 256
 61 7 20 131 53 239 c 256
232 237 m 256
 217 194 230 149 280 146 c 256
 332 143 390 194 406 240 c 256
 421 282 409 327 360 331 c 256
 307 335 248 284 232 237 c 256
482 610 m 257
 375 531 l 257
 276 619 l 257
 513 753 l 257
 673 607 l 257
 533 529 l 257
 482 610 l 257
EndSplineSet
EndChar

StartChar: Gbreve
Encoding: 286 286 276
Width: 778
VWidth: 0
Flags: HMW
LayerCount: 2
Fore
SplineSet
426 245 m 257
 478 393 l 257
 821 392 l 257
 763 175 587 -26 348 -27 c 256
 134 -27 31 156 92 350 c 256
 158 559 366 720 587 718 c 256
 710 717 795 652 848 544 c 257
 653 461 l 257
 637 512 609 546 551 548 c 256
 435 552 332 451 293 350 c 256
 258 259 274 147 391 144 c 256
 473 142 537 191 591 247 c 257
 426 245 l 257
508 927 m 257
 610 927 l 257
 611 903 610 878 640 874 c 256
 672 870 698 904 716 926 c 257
 826 924 l 257
 791 841 723 780 629 779 c 256
 535 778 497 841 508 927 c 257
EndSplineSet
EndChar

StartChar: gbreve
Encoding: 287 287 277
Width: 587
VWidth: 0
Flags: HMW
LayerCount: 2
Fore
SplineSet
-33 -33 m 257
 126 -35 l 257
 128 -75 135 -102 182 -103 c 256
 249 -105 299 -45 323 11 c 257
 479 460 l 257
 644 460 l 257
 491 9 l 258
 439 -135 323 -241 165 -242 c 256
 29 -243 -44 -168 -33 -33 c 257
53 239 m 256
 89 357 197 470 327 470 c 256
 457 470 484 342 452 238 c 256
 418 124 319 7 191 7 c 256
 61 7 20 131 53 239 c 256
232 237 m 256
 217 194 230 149 280 146 c 256
 332 143 390 194 406 240 c 256
 421 282 409 327 360 331 c 256
 307 335 248 284 232 237 c 256
336 679 m 257
 437 679 l 257
 438 655 438 630 468 626 c 256
 500 622 524 656 542 678 c 257
 653 676 l 257
 618 593 550 533 456 532 c 256
 362 531 325 593 336 679 c 257
EndSplineSet
EndChar

StartChar: Gdotaccent
Encoding: 288 288 278
Width: 778
VWidth: 0
Flags: HMW
LayerCount: 2
Fore
SplineSet
426 245 m 257
 478 393 l 257
 821 392 l 257
 763 175 587 -26 348 -27 c 256
 134 -27 31 156 92 350 c 256
 158 559 366 720 587 718 c 256
 710 717 795 652 848 544 c 257
 653 461 l 257
 637 512 609 546 551 548 c 256
 435 552 332 451 293 350 c 256
 258 259 274 147 391 144 c 256
 473 142 537 191 591 247 c 257
 426 245 l 257
554 873 m 256
 568 922 623 960 673 960 c 256
 724 960 760 918 746 867 c 256
 732 818 677 779 627 779 c 256
 576 779 540 822 554 873 c 256
EndSplineSet
EndChar

StartChar: gdotaccent
Encoding: 289 289 279
Width: 587
VWidth: 0
Flags: HMW
LayerCount: 2
Fore
SplineSet
-33 -33 m 257
 126 -35 l 257
 128 -75 135 -102 182 -103 c 256
 249 -105 299 -45 323 11 c 257
 479 460 l 257
 644 460 l 257
 491 9 l 258
 439 -135 323 -241 165 -242 c 256
 29 -243 -44 -168 -33 -33 c 257
53 239 m 256
 89 357 197 470 327 470 c 256
 457 470 484 342 452 238 c 256
 418 124 319 7 191 7 c 256
 61 7 20 131 53 239 c 256
232 237 m 256
 217 194 230 149 280 146 c 256
 332 143 390 194 406 240 c 256
 421 282 409 327 360 331 c 256
 307 335 248 284 232 237 c 256
362 631 m 256
 376 680 432 719 482 719 c 256
 533 719 568 677 554 626 c 256
 540 577 484 538 434 538 c 256
 383 538 348 580 362 631 c 256
EndSplineSet
EndChar

StartChar: uni0122
Encoding: 290 290 280
Width: 778
VWidth: 0
Flags: HMW
LayerCount: 2
Fore
SplineSet
426 245 m 257
 478 393 l 257
 821 392 l 257
 763 175 587 -26 348 -27 c 256
 134 -27 31 156 92 350 c 256
 158 559 366 720 587 718 c 256
 710 717 795 652 848 544 c 257
 653 461 l 257
 637 512 609 546 551 548 c 256
 435 552 332 451 293 350 c 256
 258 259 274 147 391 144 c 256
 473 142 537 191 591 247 c 257
 426 245 l 257
228 -89 m 257
 396 -124 l 257
 188 -368 l 257
 57 -342 l 257
 228 -89 l 257
EndSplineSet
EndChar

StartChar: Hcircumflex
Encoding: 292 292 281
Width: 763
VWidth: 0
Flags: HMW
LayerCount: 2
Fore
SplineSet
148 277 m 257
 210 454 l 257
 731 454 l 257
 670 277 l 257
 148 277 l 257
691 700 m 257
 886 700 l 257
 645 0 l 257
 452 0 l 257
 691 700 l 257
249 700 m 257
 444 700 l 257
 202 0 l 257
 10 0 l 257
 249 700 l 257
629 858 m 257
 522 779 l 257
 423 867 l 257
 660 1001 l 257
 820 854 l 257
 681 777 l 257
 629 858 l 257
EndSplineSet
EndChar

StartChar: hcircumflex
Encoding: 293 293 282
Width: 548
VWidth: 0
Flags: HMW
LayerCount: 2
Fore
SplineSet
434 780 m 257
 166 0 l 257
 -7 0 l 257
 260 780 l 257
 434 780 l 257
375 280 m 257
 382 306 392 345 355 352 c 256
 314 359 280 309 262 281 c 257
 231 282 l 257
 268 379 334 477 449 479 c 256
 557 481 577 397 551 307 c 256
 447 0 l 257
 275 0 l 257
 375 280 l 257
523 920 m 257
 416 840 l 257
 317 929 l 257
 554 1062 l 257
 713 916 l 257
 574 838 l 257
 523 920 l 257
EndSplineSet
EndChar

StartChar: Itilde
Encoding: 296 296 283
Width: 325
VWidth: 0
Flags: HMW
LayerCount: 2
Fore
SplineSet
249 700 m 257
 447 700 l 257
 207 0 l 257
 10 0 l 257
 249 700 l 257
204 858 m 257
 236 905 284 955 346 952 c 256
 391 950 415 898 460 901 c 256
 494 903 523 933 547 954 c 257
 603 865 l 257
 565 824 505 775 444 780 c 256
 400 784 372 840 327 833 c 256
 298 828 279 805 262 784 c 257
 204 858 l 257
EndSplineSet
EndChar

StartChar: itilde
Encoding: 297 297 284
Width: 265
VWidth: 0
Flags: HMW
LayerCount: 2
Fore
SplineSet
152 460 m 257
 319 460 l 257
 161 0 l 257
 -5 0 l 257
 152 460 l 257
88 611 m 257
 120 658 169 708 231 705 c 256
 276 703 300 651 345 654 c 256
 379 656 408 685 432 706 c 257
 488 618 l 257
 450 577 390 527 329 532 c 256
 285 536 256 592 211 585 c 256
 182 580 164 557 147 536 c 257
 88 611 l 257
EndSplineSet
EndChar

StartChar: Imacron
Encoding: 298 298 285
Width: 325
VWidth: 0
Flags: HMW
LayerCount: 2
Fore
SplineSet
249 700 m 257
 447 700 l 257
 207 0 l 257
 10 0 l 257
 249 700 l 257
192 779 m 257
 245 930 l 257
 608 930 l 257
 555 778 l 257
 192 779 l 257
EndSplineSet
EndChar

StartChar: imacron
Encoding: 299 299 286
Width: 265
VWidth: 0
Flags: HMW
LayerCount: 2
Fore
SplineSet
152 460 m 257
 319 460 l 257
 161 0 l 257
 -5 0 l 257
 152 460 l 257
77 531 m 257
 130 682 l 257
 494 682 l 257
 441 531 l 257
 77 531 l 257
EndSplineSet
EndChar

StartChar: Ibreve
Encoding: 300 300 287
Width: 325
VWidth: 0
Flags: HMW
LayerCount: 2
Fore
SplineSet
249 700 m 257
 447 700 l 257
 207 0 l 257
 10 0 l 257
 249 700 l 257
264 927 m 257
 365 927 l 257
 366 903 366 878 396 874 c 256
 428 870 453 904 471 926 c 257
 581 924 l 257
 546 841 478 780 384 779 c 256
 290 778 253 841 264 927 c 257
EndSplineSet
EndChar

StartChar: ibreve
Encoding: 301 301 288
Width: 265
VWidth: 0
Flags: HMW
LayerCount: 2
Fore
SplineSet
152 460 m 257
 319 460 l 257
 161 0 l 257
 -5 0 l 257
 152 460 l 257
149 679 m 257
 249 679 l 257
 250 655 250 630 280 626 c 256
 312 622 338 656 356 678 c 257
 466 676 l 257
 431 593 363 533 269 532 c 256
 175 531 138 593 149 679 c 257
EndSplineSet
EndChar

StartChar: Iogonek
Encoding: 302 302 289
Width: 325
VWidth: 0
Flags: HMW
LayerCount: 2
Fore
SplineSet
249 700 m 257
 447 700 l 257
 207 0 l 257
 10 0 l 257
 249 700 l 257
138 -101 m 257
 149 -180 l 257
 117 -202 82 -218 43 -217 c 256
 -14 -216 -57 -175 -42 -116 c 256
 -23 -40 69 -3 133 27 c 257
 174 -2 l 257
 137 -22 83 -47 69 -90 c 256
 65 -103 66 -118 82 -121 c 256
 99 -124 123 -108 138 -101 c 257
EndSplineSet
EndChar

StartChar: iogonek
Encoding: 303 303 290
Width: 265
VWidth: 0
Flags: HMW
LayerCount: 2
Fore
SplineSet
196 629 m 256
 210 678 265 717 315 717 c 256
 366 717 403 674 389 623 c 256
 375 574 319 536 269 536 c 256
 218 536 182 578 196 629 c 256
152 460 m 257
 319 460 l 257
 161 0 l 257
 -5 0 l 257
 152 460 l 257
93 -104 m 257
 102 -183 l 257
 70 -205 35 -221 -4 -220 c 256
 -61 -219 -102 -177 -87 -118 c 256
 -67 -42 24 -5 88 25 c 257
 128 0 l 257
 94 -25 38 -48 24 -92 c 256
 21 -105 20 -121 36 -124 c 256
 53 -127 78 -111 93 -104 c 257
EndSplineSet
EndChar

StartChar: Idotaccent
Encoding: 304 304 291
Width: 325
VWidth: 0
Flags: HMW
LayerCount: 2
Fore
SplineSet
249 700 m 257
 447 700 l 257
 207 0 l 257
 10 0 l 257
 249 700 l 257
309 873 m 256
 323 922 379 960 429 960 c 256
 480 960 515 918 501 867 c 256
 487 818 432 779 382 779 c 256
 331 779 295 822 309 873 c 256
EndSplineSet
EndChar

StartChar: uni0136
Encoding: 310 310 292
Width: 702
VWidth: 0
Flags: HMW
LayerCount: 2
Fore
SplineSet
249 700 m 257
 451 700 l 257
 211 0 l 257
 10 0 l 257
 249 700 l 257
650 699 m 257
 887 699 l 257
 503 364 l 257
 648 0 l 257
 430 0 l 257
 280 375 l 257
 650 699 l 257
232 -62 m 257
 400 -97 l 257
 192 -341 l 257
 61 -315 l 257
 232 -62 l 257
EndSplineSet
EndChar

StartChar: uni0137
Encoding: 311 311 293
Width: 587
VWidth: 0
Flags: HMW
LayerCount: 2
Fore
SplineSet
259 780 m 257
 425 780 l 257
 157 0 l 257
 -7 0 l 257
 259 780 l 257
459 459 m 257
 676 459 l 257
 414 263 l 257
 522 0 l 257
 338 0 l 257
 219 279 l 257
 459 459 l 257
161 -62 m 257
 328 -97 l 257
 121 -341 l 257
 -10 -315 l 257
 161 -62 l 257
EndSplineSet
EndChar

StartChar: Lacute
Encoding: 313 313 294
Width: 522
VWidth: 0
Flags: HMW
LayerCount: 2
Fore
SplineSet
250 700 m 257
 444 700 l 257
 261 169 l 257
 528 169 l 257
 469 0 l 257
 10 0 l 257
 250 700 l 257
722 922 m 257
 508 780 l 257
 418 832 l 257
 607 984 l 257
 722 922 l 257
EndSplineSet
EndChar

StartChar: lacute
Encoding: 314 314 295
Width: 267
VWidth: 0
Flags: HMW
LayerCount: 2
Fore
SplineSet
260 780 m 257
 434 780 l 257
 165 0 l 257
 -7 0 l 257
 260 780 l 257
583 983 m 257
 369 841 l 257
 279 893 l 257
 468 1045 l 257
 583 983 l 257
EndSplineSet
EndChar

StartChar: uni013B
Encoding: 315 315 296
Width: 522
VWidth: 0
Flags: HMW
LayerCount: 2
Fore
SplineSet
250 700 m 257
 444 700 l 257
 261 169 l 257
 528 169 l 257
 469 0 l 257
 10 0 l 257
 250 700 l 257
172 -62 m 257
 339 -97 l 257
 132 -341 l 257
 1 -315 l 257
 172 -62 l 257
EndSplineSet
EndChar

StartChar: uni013C
Encoding: 316 316 297
Width: 267
VWidth: 0
Flags: HMW
LayerCount: 2
Fore
SplineSet
260 780 m 257
 434 780 l 257
 165 0 l 257
 -7 0 l 257
 260 780 l 257
11 -62 m 257
 179 -97 l 257
 -29 -341 l 257
 -160 -315 l 257
 11 -62 l 257
EndSplineSet
EndChar

StartChar: Lcaron
Encoding: 317 317 298
Width: 522
VWidth: 0
Flags: HMW
LayerCount: 2
Fore
SplineSet
250 700 m 257
 444 700 l 257
 261 169 l 257
 528 169 l 257
 469 0 l 257
 10 0 l 257
 250 700 l 257
601 716 m 257
 768 681 l 257
 561 437 l 257
 430 463 l 257
 601 716 l 257
EndSplineSet
EndChar

StartChar: lcaron
Encoding: 318 318 299
Width: 267
VWidth: 0
Flags: HMW
LayerCount: 2
Fore
SplineSet
260 780 m 257
 434 780 l 257
 165 0 l 257
 -7 0 l 257
 260 780 l 257
553 778 m 257
 721 743 l 257
 513 499 l 257
 382 525 l 257
 553 778 l 257
EndSplineSet
EndChar

StartChar: Ldot
Encoding: 319 319 300
Width: 522
VWidth: 0
Flags: HMW
LayerCount: 2
Fore
SplineSet
250 700 m 257
 444 700 l 257
 261 169 l 257
 528 169 l 257
 469 0 l 257
 10 0 l 257
 250 700 l 257
419 438 m 256
 434 492 494 541 551 541 c 256
 609 541 643 488 628 434 c 256
 613 380 553 331 496 331 c 256
 438 331 404 384 419 438 c 256
EndSplineSet
EndChar

StartChar: ldot
Encoding: 320 320 301
Width: 484
VWidth: 0
Flags: HMW
LayerCount: 2
Fore
SplineSet
260 780 m 257
 434 780 l 257
 165 0 l 257
 -7 0 l 257
 260 780 l 257
332 409 m 256
 347 463 407 511 464 511 c 256
 522 511 555 459 540 405 c 256
 525 351 466 302 409 302 c 256
 351 302 317 355 332 409 c 256
EndSplineSet
EndChar

StartChar: eth
Encoding: 240 240 302
Width: 660
VWidth: 0
Flags: HMW
LayerCount: 2
Fore
SplineSet
459 252 m 256
 477 298 462 351 406 353 c 256
 347 356 285 303 265 250 c 256
 247 203 263 153 318 151 c 256
 376 149 439 199 459 252 c 256
525 696 m 257
 625 464 l 258
 654 396 671 324 649 251 c 256
 602 93 446 -18 282 -18 c 256
 126 -18 27 100 75 252 c 256
 112 369 225 476 352 480 c 256
 400 482 431 461 465 430 c 257
 432 454 l 257
 299 696 l 257
 525 696 l 257
247 521 m 257
 272 602 l 257
 735 602 l 257
 708 521 l 257
 247 521 l 257
EndSplineSet
EndChar

StartChar: racute
Encoding: 341 341 303
Width: 409
VWidth: 0
Flags: HMW
LayerCount: 2
Fore
SplineSet
320 460 m 257
 161 0 l 257
 -7 0 l 257
 151 460 l 257
 320 460 l 257
386 280 m 257
 374 293 362 305 342 306 c 256
 288 308 256 247 234 208 c 257
 219 282 l 257
 253 364 324 477 427 472 c 256
 461 470 480 451 500 427 c 257
 386 280 l 257
571 675 m 257
 357 533 l 257
 267 585 l 257
 457 737 l 257
 571 675 l 257
EndSplineSet
EndChar

StartChar: rcaron
Encoding: 345 345 304
Width: 409
VWidth: 0
Flags: HMW
LayerCount: 2
Fore
SplineSet
320 460 m 257
 161 0 l 257
 -7 0 l 257
 151 460 l 257
 320 460 l 257
386 280 m 257
 374 293 362 305 342 306 c 256
 288 308 256 247 234 208 c 257
 219 282 l 257
 253 364 324 477 427 472 c 256
 461 470 480 451 500 427 c 257
 386 280 l 257
396 674 m 257
 502 754 l 257
 601 665 l 257
 365 532 l 257
 205 678 l 257
 344 755 l 257
 396 674 l 257
EndSplineSet
EndChar

StartChar: Rcaron
Encoding: 344 344 305
Width: 637
VWidth: 0
Flags: HMW
LayerCount: 2
Fore
SplineSet
302 307 m 257
 488 307 l 257
 578 0 l 257
 367 0 l 257
 302 307 l 257
249 700 m 257
 444 700 l 257
 202 0 l 257
 10 0 l 257
 249 700 l 257
313 533 m 257
 370 700 l 257
 503 700 l 256
 642 696 749 613 705 464 c 256
 660 314 514 233 364 229 c 256
 207 229 l 257
 261 380 l 257
 379 380 l 257
 428 383 484 407 502 457 c 256
 518 502 492 527 449 531 c 257
 313 533 l 257
566 921 m 257
 673 1001 l 257
 771 912 l 257
 534 778 l 257
 374 925 l 257
 514 1002 l 257
 566 921 l 257
EndSplineSet
EndChar

StartChar: uni0213
Encoding: 531 531 306
Width: 409
VWidth: 0
Flags: HMW
LayerCount: 2
Fore
SplineSet
320 460 m 257
 161 0 l 257
 -7 0 l 257
 151 460 l 257
 320 460 l 257
386 280 m 257
 374 293 362 305 342 306 c 256
 288 308 256 247 234 208 c 257
 219 282 l 257
 253 364 324 477 427 472 c 256
 461 470 480 451 500 427 c 257
 386 280 l 257
196 530 m 257
 293 532 l 257
 310 554 334 588 366 585 c 256
 400 582 402 559 405 531 c 257
 507 532 l 257
 528 611 510 677 416 679 c 256
 316 681 243 611 196 530 c 257
EndSplineSet
EndChar

StartChar: uni0212
Encoding: 530 530 307
Width: 637
VWidth: 0
Flags: HMW
LayerCount: 2
Fore
SplineSet
302 307 m 257
 488 307 l 257
 578 0 l 257
 367 0 l 257
 302 307 l 257
249 700 m 257
 444 700 l 257
 202 0 l 257
 10 0 l 257
 249 700 l 257
313 533 m 257
 370 700 l 257
 503 700 l 256
 642 696 749 613 705 464 c 256
 660 314 514 233 364 229 c 256
 207 229 l 257
 261 380 l 257
 379 380 l 257
 428 383 484 407 502 457 c 256
 518 502 492 527 449 531 c 257
 313 533 l 257
377 777 m 257
 474 779 l 257
 491 801 514 834 546 831 c 256
 580 828 583 805 586 777 c 257
 687 778 l 257
 708 857 691 924 597 926 c 256
 497 928 424 858 377 777 c 257
EndSplineSet
EndChar

StartChar: OE
Encoding: 338 338 308
Width: 926
VWidth: 0
Flags: HMW
LayerCount: 2
Fore
SplineSet
568 285 m 257
 623 441 l 257
 986 441 l 257
 932 285 l 257
 568 285 l 257
616 670 m 257
 803 670 l 257
 583 30 l 257
 397 30 l 257
 616 670 l 257
904 159 m 257
 854 0 l 257
 324 0 l 256
 130 7 37 171 92 350 c 256
 152 544 336 694 540 700 c 256
 1094 700 l 257
 1037 540 l 257
 676 540 l 257
 655 527 l 257
 544 527 l 257
 429 523 334 459 292 350 c 256
 253 250 292 179 401 174 c 258
 510 173 l 257
 529 160 l 257
 904 159 l 257
EndSplineSet
EndChar

StartChar: oe
Encoding: 339 339 309
Width: 846
VWidth: 0
Flags: HMW
LayerCount: 2
Fore
SplineSet
672 250 m 258
 683 285 700 350 647 356 c 256
 591 363 548 301 527 259 c 258
 513 230 l 257
 496 188 482 114 546 109 c 256
 590 105 629 137 661 162 c 257
 810 129 l 257
 748 56 656 -11 555 -10 c 256
 422 -9 395 124 426 230 c 256
 431 247 437 263 444 279 c 256
 492 380 597 471 714 470 c 256
 843 469 873 338 844 234 c 256
 840 221 835 207 830 194 c 257
 666 232 l 257
 672 250 l 258
466 194 m 257
 494 282 l 257
 839 282 l 257
 829 193 l 257
 466 194 l 257
54 231 m 256
 91 354 208 471 343 470 c 256
 478 469 498 337 466 230 c 256
 430 113 334 -8 201 -9 c 256
 67 -10 20 117 54 231 c 256
222 229 m 256
 207 189 212 137 264 134 c 256
 319 131 367 184 385 231 c 256
 400 270 399 324 346 326 c 256
 291 328 240 276 222 229 c 256
EndSplineSet
EndChar

StartChar: a.alt
Encoding: 65536 -1 310
Width: 595
VWidth: 0
Flags: HMW
LayerCount: 2
Fore
SplineSet
480 460 m 257
 653 460 l 257
 494 0 l 257
 322 0 l 257
 480 460 l 257
50 231 m 256
 86 349 195 470 327 470 c 256
 459 470 477 331 446 229 c 256
 411 114 315 -9 185 -9 c 256
 53 -9 17 123 50 231 c 256
229 229 m 256
 214 189 222 132 274 129 c 256
 329 126 382 184 400 231 c 256
 415 270 412 328 360 331 c 256
 305 334 247 276 229 229 c 256
EndSplineSet
EndChar

StartChar: Jcircumflex
Encoding: 308 308 312
Width: 340
VWidth: 0
Flags: HMW
LayerCount: 2
Fore
SplineSet
-150 -50 m 257
 -131 -65 -111 -83 -85 -82 c 256
 -42 -81 -9 -39 7 -3 c 257
 250 700 l 257
 462 700 l 257
 207 -53 l 257
 160 -181 35 -245 -97 -245 c 256
 -169 -245 -232 -220 -292 -183 c 257
 -150 -50 l 257
417 858 m 257
 311 779 l 257
 212 867 l 257
 448 1001 l 257
 608 854 l 257
 469 777 l 257
 417 858 l 257
EndSplineSet
EndChar

StartChar: jcircumflex
Encoding: 309 309 313
Width: 262
VWidth: 0
Flags: HMW
LayerCount: 2
Fore
SplineSet
-121 -65 m 257
 -113 -76 -104 -89 -88 -90 c 256
 -56 -91 -29 -53 -17 -28 c 257
 152 460 l 257
 317 460 l 257
 135 -78 l 258
 99 -175 13 -245 -94 -244 c 256
 -146 -244 -183 -222 -220 -188 c 257
 -121 -65 l 257
293 610 m 257
 186 531 l 257
 87 619 l 257
 324 753 l 257
 484 607 l 257
 345 529 l 257
 293 610 l 257
EndSplineSet
EndChar

StartChar: Nacute
Encoding: 323 323 314
Width: 752
VWidth: 0
Flags: HMW
LayerCount: 2
Fore
SplineSet
689 700 m 257
 874 700 l 257
 624 -31 l 257
 316 351 l 257
 195 0 l 257
 10 0 l 257
 260 731 l 257
 567 349 l 257
 689 700 l 257
771 907 m 257
 557 765 l 257
 467 817 l 257
 657 969 l 257
 771 907 l 257
EndSplineSet
EndChar

StartChar: nacute
Encoding: 324 324 315
Width: 557
VWidth: 0
Flags: HMW
LayerCount: 2
Fore
SplineSet
324 460 m 257
 166 0 l 257
 -7 0 l 257
 151 460 l 257
 324 460 l 257
375 280 m 257
 382 306 391 345 354 352 c 256
 313 359 280 309 262 281 c 257
 231 274 l 257
 266 370 331 469 446 471 c 256
 554 473 582 390 556 298 c 257
 455 0 l 257
 275 0 l 257
 375 280 l 257
622 674 m 257
 408 532 l 257
 319 584 l 257
 509 736 l 257
 622 674 l 257
EndSplineSet
EndChar

StartChar: uni0145
Encoding: 325 325 316
Width: 752
VWidth: 0
Flags: HMW
LayerCount: 2
Fore
SplineSet
249 -62 m 257
 416 -98 l 257
 209 -342 l 257
 79 -316 l 257
 249 -62 l 257
689 700 m 257
 874 700 l 257
 624 -31 l 257
 316 351 l 257
 195 0 l 257
 10 0 l 257
 260 731 l 257
 567 349 l 257
 689 700 l 257
EndSplineSet
EndChar

StartChar: uni0146
Encoding: 326 326 317
Width: 557
VWidth: 0
Flags: HMW
LayerCount: 2
Fore
SplineSet
324 460 m 257
 166 0 l 257
 -7 0 l 257
 151 460 l 257
 324 460 l 257
375 280 m 257
 382 306 391 345 354 352 c 256
 313 359 280 309 262 281 c 257
 230 274 l 257
 266 371 331 469 446 471 c 256
 554 473 582 390 556 298 c 257
 455 0 l 257
 275 0 l 257
 375 280 l 257
156 -62 m 257
 323 -97 l 257
 116 -341 l 257
 -15 -315 l 257
 156 -62 l 257
EndSplineSet
EndChar

StartChar: Ncaron
Encoding: 327 327 318
Width: 752
VWidth: 0
Flags: HMW
LayerCount: 2
Fore
SplineSet
593 912 m 257
 700 992 l 257
 799 903 l 257
 562 770 l 257
 403 916 l 257
 542 993 l 257
 593 912 l 257
689 700 m 257
 874 700 l 257
 624 -31 l 257
 316 351 l 257
 195 0 l 257
 10 0 l 257
 260 731 l 257
 567 349 l 257
 689 700 l 257
EndSplineSet
EndChar

StartChar: ncaron
Encoding: 328 328 319
Width: 557
VWidth: 0
Flags: HMW
LayerCount: 2
Fore
SplineSet
324 460 m 257
 166 0 l 257
 -7 0 l 257
 151 460 l 257
 324 460 l 257
375 280 m 257
 382 306 391 345 354 352 c 256
 313 359 280 309 262 281 c 257
 230 274 l 257
 266 371 331 469 446 471 c 256
 554 473 582 390 556 298 c 257
 455 0 l 257
 275 0 l 257
 375 280 l 257
445 673 m 257
 553 753 l 257
 652 664 l 257
 414 531 l 257
 255 677 l 257
 394 755 l 257
 445 673 l 257
EndSplineSet
EndChar

StartChar: Omacron
Encoding: 332 332 320
Width: 782
VWidth: 0
Flags: HMW
LayerCount: 2
Fore
SplineSet
295 350 m 256
 265 269 276 166 382 163 c 256
 490 160 582 256 618 350 c 256
 649 432 639 535 532 537 c 256
 424 539 331 444 295 350 c 256
92 350 m 256
 156 552 355 718 571 718 c 256
 779 718 881 540 822 350 c 256
 758 146 558 -28 339 -27 c 256
 127 -26 33 160 92 350 c 256
421 779 m 257
 474 930 l 257
 837 930 l 257
 783 778 l 257
 421 779 l 257
EndSplineSet
EndChar

StartChar: omacron
Encoding: 333 333 321
Width: 568
VWidth: 0
Flags: HMW
LayerCount: 2
Fore
SplineSet
50 231 m 256
 92 371 235 471 380 471 c 256
 517 471 608 364 568 229 c 256
 526 89 382 -10 238 -10 c 256
 101 -10 10 96 50 231 c 256
225 229 m 256
 210 190 216 137 267 134 c 256
 321 131 375 184 393 231 c 256
 408 270 402 324 351 327 c 256
 297 330 243 276 225 229 c 256
230 531 m 257
 283 682 l 257
 645 682 l 257
 592 531 l 257
 230 531 l 257
EndSplineSet
EndChar

StartChar: Obreve
Encoding: 334 334 322
Width: 782
VWidth: 0
Flags: HMW
LayerCount: 2
Fore
SplineSet
295 350 m 256
 265 269 276 166 382 163 c 256
 490 160 582 256 618 350 c 256
 649 432 639 535 532 537 c 256
 424 539 331 444 295 350 c 256
92 350 m 256
 156 552 355 718 571 718 c 256
 779 718 881 540 822 350 c 256
 758 146 558 -28 339 -27 c 256
 127 -26 33 160 92 350 c 256
493 927 m 257
 594 927 l 257
 595 903 595 878 625 874 c 256
 657 870 682 904 700 926 c 257
 810 924 l 257
 775 841 707 780 613 779 c 256
 519 778 482 841 493 927 c 257
EndSplineSet
EndChar

StartChar: obreve
Encoding: 335 335 323
Width: 568
VWidth: 0
Flags: HMW
LayerCount: 2
Fore
SplineSet
50 231 m 256
 92 371 235 471 380 471 c 256
 517 471 608 364 568 229 c 256
 526 89 382 -10 238 -10 c 256
 101 -10 10 96 50 231 c 256
225 229 m 256
 210 190 216 137 267 134 c 256
 321 131 375 184 393 231 c 256
 408 270 402 324 351 327 c 256
 297 330 243 276 225 229 c 256
301 679 m 257
 403 679 l 257
 404 655 403 630 433 626 c 256
 465 622 490 656 508 678 c 257
 619 676 l 257
 584 593 516 533 422 532 c 256
 328 531 290 593 301 679 c 257
EndSplineSet
EndChar

StartChar: Racute
Encoding: 340 340 324
Width: 637
VWidth: 0
Flags: HMW
LayerCount: 2
Fore
SplineSet
302 307 m 257
 488 307 l 257
 578 0 l 257
 367 0 l 257
 302 307 l 257
249 700 m 257
 444 700 l 257
 202 0 l 257
 10 0 l 257
 249 700 l 257
313 533 m 257
 370 700 l 257
 503 700 l 256
 642 696 749 613 705 464 c 256
 660 314 514 233 364 229 c 256
 207 229 l 257
 261 380 l 257
 379 380 l 257
 428 383 484 407 502 457 c 256
 518 502 492 527 449 531 c 257
 313 533 l 257
728 922 m 257
 514 780 l 257
 424 832 l 257
 614 984 l 257
 728 922 l 257
EndSplineSet
EndChar

StartChar: uni0156
Encoding: 342 342 325
Width: 637
VWidth: 0
Flags: HMW
LayerCount: 2
Fore
SplineSet
302 307 m 257
 488 307 l 257
 578 0 l 257
 367 0 l 257
 302 307 l 257
249 700 m 257
 444 700 l 257
 202 0 l 257
 10 0 l 257
 249 700 l 257
313 533 m 257
 370 700 l 257
 503 700 l 256
 642 696 749 613 705 464 c 256
 660 314 514 233 364 229 c 256
 207 229 l 257
 261 380 l 257
 379 380 l 257
 428 383 484 407 502 457 c 256
 518 502 492 527 449 531 c 257
 313 533 l 257
229 -62 m 257
 396 -97 l 257
 190 -341 l 257
 59 -315 l 257
 229 -62 l 257
EndSplineSet
EndChar

StartChar: uni0157
Encoding: 343 343 326
Width: 409
VWidth: 0
Flags: HMW
LayerCount: 2
Fore
SplineSet
320 460 m 257
 161 0 l 257
 -7 0 l 257
 151 460 l 257
 320 460 l 257
386 280 m 257
 374 293 362 305 342 306 c 256
 288 308 256 247 234 208 c 257
 219 282 l 257
 253 364 324 477 427 472 c 256
 461 470 480 451 500 427 c 257
 386 280 l 257
9 -62 m 257
 176 -97 l 257
 -31 -341 l 257
 -161 -315 l 257
 9 -62 l 257
EndSplineSet
EndChar

StartChar: Scedilla
Encoding: 350 350 327
Width: 613
VWidth: 0
Flags: HMW
LayerCount: 2
Fore
SplineSet
184 260 m 257
 203 203 230 144 299 145 c 256
 334 145 379 163 394 198 c 256
 416 250 339 272 305 289 c 256
 215 332 158 412 188 514 c 256
 227 644 366 718 496 718 c 256
 604 718 685 668 711 561 c 257
 550 481 l 257
 534 519 514 552 467 552 c 256
 438 552 394 535 381 506 c 256
 359 456 462 432 492 419 c 256
 583 379 625 294 596 197 c 256
 553 51 403 -28 257 -27 c 256
 136 -26 51 48 28 165 c 257
 184 260 l 257
230 60 m 257
 365 55 l 257
 223 -70 l 257
 235 -67 249 -64 261 -65 c 256
 317 -69 343 -120 328 -172 c 256
 308 -241 232 -280 165 -283 c 256
 110 -286 62 -267 14 -241 c 257
 81 -168 l 257
 103 -181 128 -193 155 -192 c 256
 173 -191 222 -178 225 -155 c 256
 228 -134 195 -128 182 -127 c 256
 150 -125 117 -134 85 -140 c 257
 230 60 l 257
EndSplineSet
EndChar

StartChar: scedilla
Encoding: 351 351 328
Width: 446
VWidth: 0
Flags: HMW
LayerCount: 2
Fore
SplineSet
73 178 m 257
 106 144 149 97 203 103 c 256
 219 104 247 117 252 134 c 256
 262 169 211 179 189 189 c 256
 126 216 86 267 107 337 c 256
 133 425 229 468 315 469 c 256
 385 470 446 442 502 407 c 257
 420 293 l 257
 392 324 359 356 314 354 c 256
 298 354 267 346 260 329 c 256
 246 293 317 280 338 271 c 256
 398 246 437 197 419 129 c 256
 393 32 303 -20 207 -22 c 256
 120 -24 46 13 -20 61 c 257
 73 178 l 257
172 64 m 257
 307 60 l 257
 166 -66 l 257
 178 -63 191 -60 203 -61 c 256
 259 -65 286 -116 271 -168 c 256
 251 -237 174 -276 107 -279 c 256
 52 -281 3 -262 -44 -236 c 257
 22 -163 l 257
 44 -176 69 -189 96 -188 c 256
 114 -187 165 -173 168 -150 c 256
 171 -129 137 -124 124 -123 c 256
 92 -121 59 -130 27 -136 c 257
 172 64 l 257
EndSplineSet
EndChar

StartChar: Zcaron
Encoding: 381 381 329
Width: 607
VWidth: 0
Flags: HMW
LayerCount: 2
Fore
SplineSet
181 523 m 257
 243 700 l 257
 790 699 l 257
 310 170 l 257
 566 169 l 257
 506 0 l 257
 -57 0 l 257
 416 522 l 257
 181 523 l 257
580 921 m 257
 687 1001 l 257
 786 912 l 257
 550 778 l 257
 390 925 l 257
 529 1002 l 257
 580 921 l 257
EndSplineSet
EndChar

StartChar: zcaron
Encoding: 382 382 330
Width: 503
VWidth: 0
Flags: HMW
LayerCount: 2
Fore
SplineSet
445 673 m 257
 552 752 l 257
 651 664 l 257
 414 530 l 257
 255 676 l 257
 394 754 l 257
 445 673 l 257
268 300 m 257
 103 301 l 257
 158 460 l 257
 610 459 l 257
 308 160 l 257
 468 160 l 257
 412 0 l 257
 -49 0 l 257
 268 300 l 257
EndSplineSet
EndChar

StartChar: Ydieresis
Encoding: 376 376 331
Width: 653
VWidth: 0
Flags: HMW
LayerCount: 2
Fore
SplineSet
333 887 m 256
 347 935 403 974 453 974 c 256
 504 974 539 932 525 881 c 256
 511 832 455 794 405 794 c 256
 354 794 319 837 333 887 c 256
624 887 m 256
 638 935 694 974 744 974 c 256
 795 974 830 932 816 881 c 256
 802 832 746 794 696 794 c 256
 645 794 610 837 624 887 c 256
619 699 m 257
 851 699 l 257
 465 270 l 257
 372 0 l 257
 174 0 l 257
 274 288 l 257
 184 700 l 257
 396 700 l 257
 425 465 l 257
 619 699 l 257
EndSplineSet
EndChar

StartChar: Scaron
Encoding: 352 352 332
Width: 613
VWidth: 0
Flags: HMW
LayerCount: 2
Fore
SplineSet
184 260 m 257
 203 203 230 144 299 145 c 256
 334 145 379 163 394 198 c 256
 416 250 339 272 305 289 c 256
 215 332 159 414 189 515 c 256
 228 645 366 718 496 718 c 256
 603 718 686 668 711 561 c 257
 549 481 l 257
 533 519 516 552 469 552 c 256
 439 552 394 535 381 506 c 256
 358 456 462 432 492 419 c 256
 583 379 625 294 596 197 c 256
 553 51 403 -28 257 -27 c 256
 136 -26 51 48 28 165 c 257
 184 260 l 257
568 921 m 257
 675 1001 l 257
 774 912 l 257
 537 778 l 257
 378 925 l 257
 517 1002 l 257
 568 921 l 257
EndSplineSet
EndChar

StartChar: scaron
Encoding: 353 353 333
Width: 446
VWidth: 0
Flags: HMW
LayerCount: 2
Fore
SplineSet
74 178 m 257
 109 145 150 107 204 109 c 256
 218 109 246 116 251 132 c 256
 260 161 176 180 157 190 c 256
 102 218 73 274 91 334 c 256
 119 428 225 468 315 469 c 256
 385 469 447 443 502 407 c 257
 421 293 l 257
 388 324 351 347 304 347 c 256
 289 347 256 341 251 324 c 256
 242 294 320 278 338 270 c 256
 398 245 437 196 419 129 c 256
 393 32 301 -21 205 -22 c 256
 118 -24 44 12 -20 61 c 257
 74 178 l 257
380 657 m 257
 487 736 l 257
 586 648 l 257
 349 514 l 257
 189 660 l 257
 328 738 l 257
 380 657 l 257
EndSplineSet
EndChar

StartChar: Lslash
Encoding: 321 321 334
Width: 530
VWidth: 0
Flags: HMW
LayerCount: 2
Fore
SplineSet
59 298 m 257
 39 386 l 257
 500 652 l 257
 521 566 l 257
 59 298 l 257
250 700 m 257
 444 700 l 257
 261 169 l 257
 528 169 l 257
 469 0 l 257
 10 0 l 257
 250 700 l 257
EndSplineSet
EndChar

StartChar: lslash
Encoding: 322 322 335
Width: 267
VWidth: 0
Flags: HMW
LayerCount: 2
Fore
SplineSet
43 298 m 257
 23 386 l 257
 441 623 l 257
 460 538 l 257
 43 298 l 257
260 780 m 257
 434 780 l 257
 165 0 l 257
 -7 0 l 257
 260 780 l 257
EndSplineSet
EndChar

StartChar: uni0218
Encoding: 536 536 336
Width: 613
VWidth: 0
Flags: HMW
LayerCount: 2
Fore
SplineSet
184 260 m 257
 203 203 230 144 299 145 c 256
 334 145 379 163 394 198 c 256
 416 250 339 272 305 289 c 256
 215 332 159 414 189 515 c 256
 228 645 366 718 496 718 c 256
 603 718 686 668 711 561 c 257
 549 481 l 257
 533 519 516 552 469 552 c 256
 439 552 394 535 381 506 c 256
 358 456 462 432 492 419 c 256
 583 379 625 294 596 197 c 256
 553 51 403 -28 257 -27 c 256
 136 -26 51 48 28 165 c 257
 184 260 l 257
151 -72 m 257
 319 -107 l 257
 111 -351 l 257
 -20 -325 l 257
 151 -72 l 257
EndSplineSet
EndChar

StartChar: uni0219
Encoding: 537 537 337
Width: 446
VWidth: 0
Flags: HMW
LayerCount: 2
Fore
SplineSet
74 178 m 257
 109 145 150 107 204 109 c 256
 218 109 246 116 251 132 c 256
 260 161 176 180 157 190 c 256
 102 218 73 274 91 334 c 256
 119 428 225 468 315 469 c 256
 385 469 447 443 502 407 c 257
 421 293 l 257
 388 324 351 347 304 347 c 256
 289 347 256 341 251 324 c 256
 242 294 320 278 338 270 c 256
 398 245 437 196 419 129 c 256
 393 32 301 -21 205 -22 c 256
 118 -24 44 12 -20 61 c 257
 74 178 l 257
101 -68 m 257
 267 -103 l 257
 61 -347 l 257
 -70 -321 l 257
 101 -68 l 257
EndSplineSet
EndChar

StartChar: pi
Encoding: 960 960 338
Width: 587
VWidth: 0
Flags: HMW
LayerCount: 2
Fore
SplineSet
175 430 m 257
 336 430 l 257
 187 0 l 257
 27 0 l 257
 175 430 l 257
128 460 m 257
 657 460 l 257
 606 317 l 257
 78 317 l 257
 128 460 l 257
410 430 m 257
 571 430 l 257
 486 191 l 257
 474 151 476 137 514 122 c 257
 473 -8 l 257
 380 -7 275 -1 306 121 c 257
 410 430 l 257
EndSplineSet
EndChar

StartChar: trademark
Encoding: 8482 8482 339
Width: 728
VWidth: 0
Flags: HMW
LayerCount: 2
Fore
SplineSet
178 611 m 257
 209 700 l 257
 494 700 l 257
 463 611 l 257
 371 611 l 257
 280 350 l 257
 181 350 l 257
 271 611 l 257
 178 611 l 257
727 599 m 257
 846 731 l 257
 772 350 l 257
 671 350 l 257
 727 599 l 257
550 719 m 257
 579 579 l 257
 471 351 l 257
 363 351 l 257
 550 719 l 257
851 733 m 257
 797 584 l 257
 586 379 l 257
 509 603 l 257
 550 716 l 257
 621 522 l 257
 851 733 l 257
EndSplineSet
EndChar

StartChar: uni2219
Encoding: 8729 8729 340
Width: 310
VWidth: 0
Flags: HMW
LayerCount: 2
Fore
SplineSet
151 455 m 256
 166 509 227 558 284 558 c 256
 342 558 375 505 360 451 c 256
 345 397 285 348 228 348 c 256
 170 348 136 401 151 455 c 256
EndSplineSet
EndChar

StartChar: agrave.alt
Encoding: 65537 -1 341
Width: 595
VWidth: 0
Flags: HMW
LayerCount: 2
Fore
SplineSet
480 460 m 257
 653 460 l 257
 494 0 l 257
 322 0 l 257
 480 460 l 257
50 231 m 256
 86 349 195 470 327 470 c 256
 459 470 477 331 446 229 c 256
 411 114 315 -9 185 -9 c 256
 53 -9 17 123 50 231 c 256
229 229 m 256
 214 189 222 132 274 129 c 256
 329 126 382 184 400 231 c 256
 415 270 412 328 360 331 c 256
 305 334 247 276 229 229 c 256
310 686 m 257
 444 739 l 257
 535 572 l 257
 435 531 l 257
 310 686 l 257
EndSplineSet
EndChar

StartChar: aacute.alt
Encoding: 65538 -1 342
Width: 595
VWidth: 0
Flags: HMW
LayerCount: 2
Fore
SplineSet
480 460 m 257
 653 460 l 257
 494 0 l 257
 322 0 l 257
 480 460 l 257
50 231 m 256
 86 349 195 470 327 470 c 256
 459 470 477 331 446 229 c 256
 411 114 315 -9 185 -9 c 256
 53 -9 17 123 50 231 c 256
229 229 m 256
 214 189 222 132 274 129 c 256
 329 126 382 184 400 231 c 256
 415 270 412 328 360 331 c 256
 305 334 247 276 229 229 c 256
622 674 m 257
 408 532 l 257
 318 584 l 257
 508 736 l 257
 622 674 l 257
EndSplineSet
EndChar

StartChar: acircumflex.alt
Encoding: 65539 -1 343
Width: 595
VWidth: 0
Flags: HMW
LayerCount: 2
Fore
SplineSet
480 460 m 257
 653 460 l 257
 494 0 l 257
 322 0 l 257
 480 460 l 257
50 231 m 256
 86 349 195 470 327 470 c 256
 459 470 477 331 446 229 c 256
 411 114 315 -9 185 -9 c 256
 53 -9 17 123 50 231 c 256
229 229 m 256
 214 189 222 132 274 129 c 256
 329 126 382 184 400 231 c 256
 415 270 412 328 360 331 c 256
 305 334 247 276 229 229 c 256
469 610 m 257
 361 531 l 257
 262 619 l 257
 500 753 l 257
 660 607 l 257
 520 529 l 257
 469 610 l 257
EndSplineSet
EndChar

StartChar: atilde.alt
Encoding: 65540 -1 344
Width: 595
VWidth: 0
Flags: HMW
LayerCount: 2
Fore
SplineSet
480 460 m 257
 653 460 l 257
 494 0 l 257
 322 0 l 257
 480 460 l 257
50 231 m 256
 86 349 195 470 327 470 c 256
 459 470 477 331 446 229 c 256
 411 114 315 -9 185 -9 c 256
 53 -9 17 123 50 231 c 256
229 229 m 256
 214 189 222 132 274 129 c 256
 329 126 382 184 400 231 c 256
 415 270 412 328 360 331 c 256
 305 334 247 276 229 229 c 256
270 610 m 257
 300 661 347 706 413 705 c 256
 458 704 482 651 527 654 c 256
 561 656 589 685 613 706 c 257
 669 618 l 257
 631 577 573 527 512 532 c 256
 468 536 438 592 393 585 c 256
 364 580 346 557 329 536 c 257
 270 610 l 257
EndSplineSet
EndChar

StartChar: adieresis.alt
Encoding: 65541 -1 345
Width: 595
VWidth: 0
Flags: HMW
LayerCount: 2
Fore
SplineSet
480 460 m 257
 653 460 l 257
 494 0 l 257
 322 0 l 257
 480 460 l 257
50 231 m 256
 86 349 195 470 327 470 c 256
 459 470 477 331 446 229 c 256
 411 114 315 -9 185 -9 c 256
 53 -9 17 123 50 231 c 256
229 229 m 256
 214 189 222 132 274 129 c 256
 329 126 382 184 400 231 c 256
 415 270 412 328 360 331 c 256
 305 334 247 276 229 229 c 256
482 625 m 256
 496 674 551 713 601 713 c 256
 652 713 688 670 674 619 c 256
 660 570 605 532 555 532 c 256
 504 532 468 574 482 625 c 256
238 625 m 256
 252 674 308 713 358 713 c 256
 409 713 444 670 430 619 c 256
 416 570 360 532 310 532 c 256
 259 532 224 574 238 625 c 256
EndSplineSet
EndChar

StartChar: aring.alt
Encoding: 65542 -1 346
Width: 595
VWidth: 0
Flags: HMW
LayerCount: 2
Fore
SplineSet
480 460 m 257
 653 460 l 257
 494 0 l 257
 322 0 l 257
 480 460 l 257
50 231 m 256
 86 349 195 470 327 470 c 256
 459 470 477 331 446 229 c 256
 411 114 315 -9 185 -9 c 256
 53 -9 17 123 50 231 c 256
229 229 m 256
 214 189 222 132 274 129 c 256
 329 126 382 184 400 231 c 256
 415 270 412 328 360 331 c 256
 305 334 247 276 229 229 c 256
330 654 m 256
 348 720 421 772 489 772 c 256
 557 772 605 718 586 650 c 256
 568 583 494 532 425 532 c 256
 357 532 311 587 330 654 c 256
416 650 m 256
 411 634 416 609 436 607 c 256
 458 605 493 635 500 654 c 256
 505 670 499 695 479 697 c 256
 457 699 423 669 416 650 c 256
EndSplineSet
EndChar

StartChar: amacron.alt
Encoding: 65543 -1 347
Width: 595
VWidth: 0
Flags: HMW
LayerCount: 2
Fore
SplineSet
480 460 m 257
 653 460 l 257
 494 0 l 257
 322 0 l 257
 480 460 l 257
50 231 m 256
 86 349 195 470 327 470 c 256
 459 470 477 331 446 229 c 256
 411 114 315 -9 185 -9 c 256
 53 -9 17 123 50 231 c 256
229 229 m 256
 214 189 222 132 274 129 c 256
 329 126 382 184 400 231 c 256
 415 270 412 328 360 331 c 256
 305 334 247 276 229 229 c 256
250 534 m 257
 302 685 l 257
 666 685 l 257
 613 534 l 257
 250 534 l 257
EndSplineSet
EndChar

StartChar: abreve.alt
Encoding: 65544 -1 348
Width: 595
VWidth: 0
Flags: HMW
LayerCount: 2
Fore
SplineSet
480 460 m 257
 653 460 l 257
 494 0 l 257
 322 0 l 257
 480 460 l 257
50 231 m 256
 86 349 195 470 327 470 c 256
 459 470 477 331 446 229 c 256
 411 114 315 -9 185 -9 c 256
 53 -9 17 123 50 231 c 256
229 229 m 256
 214 189 222 132 274 129 c 256
 329 126 382 184 400 231 c 256
 415 270 412 328 360 331 c 256
 305 334 247 276 229 229 c 256
305 679 m 257
 407 679 l 257
 408 655 408 630 438 626 c 256
 470 622 496 656 513 678 c 257
 623 676 l 257
 588 593 521 533 427 532 c 256
 333 531 294 593 305 679 c 257
EndSplineSet
EndChar

StartChar: aogonek.alt
Encoding: 65545 -1 349
Width: 595
VWidth: 0
Flags: HMW
LayerCount: 2
Fore
SplineSet
480 460 m 257
 653 460 l 257
 494 0 l 257
 322 0 l 257
 480 460 l 257
50 231 m 256
 86 349 195 470 327 470 c 256
 459 470 477 331 446 229 c 256
 411 114 315 -9 185 -9 c 256
 53 -9 17 123 50 231 c 256
229 229 m 256
 214 189 222 132 274 129 c 256
 329 126 382 184 400 231 c 256
 415 270 412 328 360 331 c 256
 305 334 247 276 229 229 c 256
418 -104 m 257
 428 -183 l 257
 396 -205 361 -221 322 -220 c 256
 265 -219 223 -177 238 -118 c 256
 258 -42 350 -5 414 25 c 257
 453 0 l 257
 419 -25 364 -48 350 -92 c 256
 347 -105 346 -121 362 -124 c 256
 379 -127 403 -111 418 -104 c 257
EndSplineSet
EndChar

StartChar: dagger
Encoding: 8224 8224 350
Width: 615
VWidth: 0
Flags: HMW
LayerCount: 2
Fore
SplineSet
214 540 m 257
 667 540 l 257
 621 397 l 257
 169 397 l 257
 214 540 l 257
409 700 m 257
 570 700 l 257
 307 -150 l 257
 147 -150 l 257
 409 700 l 257
EndSplineSet
EndChar

StartChar: daggerdbl
Encoding: 8225 8225 351
Width: 615
VWidth: 0
Flags: HMW
LayerCount: 2
Fore
SplineSet
100 171 m 257
 553 171 l 257
 508 28 l 257
 55 28 l 257
 100 171 l 257
214 540 m 257
 667 540 l 257
 621 397 l 257
 169 397 l 257
 214 540 l 257
409 700 m 257
 570 700 l 257
 307 -150 l 257
 147 -150 l 257
 409 700 l 257
EndSplineSet
EndChar

StartChar: ellipsis
Encoding: 8230 8230 352
Width: 878
VWidth: 0
Flags: HMW
LayerCount: 2
Fore
SplineSet
23 80 m 256
 38 134 99 183 156 183 c 256
 214 183 247 130 232 76 c 256
 217 22 157 -27 100 -27 c 256
 42 -27 8 26 23 80 c 256
305 80 m 256
 320 134 381 183 438 183 c 256
 496 183 530 130 515 76 c 256
 500 22 439 -27 382 -27 c 256
 324 -27 290 26 305 80 c 256
588 80 m 256
 603 134 663 183 720 183 c 256
 778 183 812 130 797 76 c 256
 782 22 721 -27 664 -27 c 256
 606 -27 573 26 588 80 c 256
EndSplineSet
EndChar

StartChar: uniFF10
Encoding: 65296 65296 353
Width: 608
VWidth: 0
Flags: HMW
LayerCount: 2
Fore
SplineSet
266 350 m 256
 248 301 203 161 292 156 c 256
 384 151 446 279 472 350 c 256
 490 399 535 539 446 544 c 256
 354 549 292 421 266 350 c 256
82 350 m 256
 138 526 280 714 482 714 c 256
 689 714 706 506 657 350 c 256
 601 172 460 -15 256 -14 c 256
 52 -13 33 195 82 350 c 256
EndSplineSet
EndChar

StartChar: uniFF11
Encoding: 65297 65297 354
Width: 608
VWidth: 0
Flags: HMW
LayerCount: 2
Fore
SplineSet
203 472 m 257
 264 645 l 257
 643 717 l 257
 397 0 l 257
 212 0 l 257
 388 513 l 257
 203 472 l 257
EndSplineSet
EndChar

StartChar: uniFF12
Encoding: 65298 65298 355
Width: 608
VWidth: 0
Flags: HMW
LayerCount: 2
Fore
SplineSet
-55 0 m 257
 339 312 l 258
 392 354 471 403 493 472 c 256
 505 507 493 543 451 546 c 256
 388 550 346 483 322 435 c 257
 133 437 l 257
 188 592 323 716 495 715 c 256
 625 715 733 619 693 483 c 256
 670 404 605 345 539 299 c 258
 366 182 l 257
 611 181 l 257
 549 0 l 257
 -55 0 l 257
EndSplineSet
EndChar

StartChar: uniFF13
Encoding: 65299 65299 356
Width: 608
VWidth: 0
Flags: HMW
LayerCount: 2
Fore
SplineSet
320 338 m 257
 344 419 l 257
 394 427 480 446 495 505 c 256
 502 535 486 556 456 558 c 256
 408 561 375 520 351 484 c 257
 173 486 l 257
 224 619 344 713 489 714 c 256
 603 715 724 646 685 516 c 256
 640 363 454 341 320 338 c 257
253 -18 m 256
 103 -16 28 94 54 236 c 257
 239 235 l 257
 233 187 235 143 293 139 c 256
 341 136 394 169 411 214 c 256
 438 286 356 295 305 300 c 257
 333 395 l 257
 455 391 641 357 593 192 c 256
 552 50 391 -20 253 -18 c 256
EndSplineSet
EndChar

StartChar: uniFF14
Encoding: 65300 65300 357
Width: 608
VWidth: 0
Flags: HMW
LayerCount: 2
Fore
SplineSet
-15 120 m 257
 186 256 l 257
 438 258 l 257
 465 287 l 257
 642 287 l 257
 583 119 l 257
 -15 120 l 257
197 186 m 257
 -24 111 l 257
 535 699 l 257
 695 700 l 257
 455 0 l 257
 253 0 l 257
 305 154 l 257
 332 165 l 257
 421 416 l 257
 197 186 l 257
EndSplineSet
EndChar

StartChar: uniFF15
Encoding: 65301 65301 358
Width: 608
VWidth: 0
Flags: HMW
LayerCount: 2
Fore
SplineSet
600 221 m 256
 555 73 397 -12 249 -14 c 256
 152 -15 67 14 -12 59 c 257
 97 227 l 257
 139 194 185 168 242 167 c 256
 298 166 380 187 399 248 c 256
 417 304 359 319 315 321 c 256
 243 323 171 307 102 288 c 257
 255 376 l 257
 319 415 383 450 461 448 c 256
 585 444 633 329 600 221 c 256
421 527 m 257
 307 364 l 257
 89 278 l 257
 331 699 l 257
 746 700 l 257
 686 528 l 257
 421 527 l 257
EndSplineSet
EndChar

StartChar: uniFF16
Encoding: 65302 65302 359
Width: 608
VWidth: 0
Flags: HMW
LayerCount: 2
Fore
SplineSet
239 250 m 256
 221 203 237 153 292 151 c 256
 350 149 412 199 432 252 c 256
 450 298 435 351 379 353 c 256
 320 356 259 303 239 250 c 256
463 695 m 257
 719 695 l 257
 419 458 l 257
 362 438 l 257
 398 461 435 478 479 478 c 256
 603 478 653 357 622 250 c 256
 576 91 418 -18 255 -18 c 256
 99 -18 2 99 49 251 c 256
 75 336 141 405 205 464 c 258
 463 695 l 257
EndSplineSet
EndChar

StartChar: uniFF17
Encoding: 65303 65303 360
Width: 608
VWidth: 0
Flags: HMW
LayerCount: 2
Fore
SplineSet
147 514 m 257
 212 700 l 257
 787 699 l 257
 227 0 l 257
 10 0 l 257
 435 513 l 257
 147 514 l 257
EndSplineSet
EndChar

StartChar: uniFF18
Encoding: 65304 65304 361
Width: 608
VWidth: 0
Flags: HMW
LayerCount: 2
Fore
SplineSet
208 532 m 256
 244 655 381 718 501 718 c 256
 610 718 724 654 688 530 c 256
 653 407 513 338 393 338 c 256
 283 338 173 410 208 532 c 256
380 511 m 256
 370 484 377 449 411 445 c 256
 447 440 492 483 503 514 c 256
 513 542 505 575 471 579 c 256
 435 583 391 543 380 511 c 256
68 191 m 256
 107 326 259 398 391 398 c 256
 510 398 634 324 595 189 c 256
 556 55 402 -18 271 -18 c 256
 153 -18 29 57 68 191 c 256
269 219 m 256
 256 185 266 145 308 142 c 256
 352 139 401 183 415 223 c 256
 426 256 414 293 375 296 c 256
 333 299 284 256 269 219 c 256
EndSplineSet
EndChar

StartChar: uniFF19
Encoding: 65305 65305 362
Width: 608
VWidth: 0
Flags: HMW
LayerCount: 2
Fore
SplineSet
500 450 m 256
 518 497 501 547 446 549 c 256
 388 551 326 501 306 448 c 256
 288 402 303 349 359 347 c 256
 418 344 480 397 500 450 c 256
276 5 m 257
 20 5 l 257
 319 242 l 257
 376 262 l 257
 340 239 303 222 259 222 c 256
 135 222 86 343 117 450 c 256
 163 609 321 718 484 718 c 256
 640 718 737 601 690 449 c 256
 664 364 598 295 534 236 c 258
 276 5 l 257
EndSplineSet
EndChar

StartChar: caron
Encoding: 711 711 363
Width: 451
VWidth: 0
Flags: HMW
LayerCount: 2
Fore
SplineSet
398 686 m 257
 504 766 l 257
 603 677 l 257
 366 544 l 257
 207 690 l 257
 346 768 l 257
 398 686 l 257
EndSplineSet
EndChar

StartChar: napostrophe
Encoding: 329 329 364
Width: 739
VWidth: 0
Flags: HMW
LayerCount: 2
Fore
SplineSet
507 460 m 257
 349 0 l 257
 175 0 l 257
 334 460 l 257
 507 460 l 257
557 280 m 257
 564 306 574 345 537 352 c 256
 496 359 463 309 445 281 c 257
 413 274 l 257
 449 371 514 469 629 471 c 256
 737 473 765 390 739 298 c 257
 638 0 l 257
 457 0 l 257
 557 280 l 257
279 700 m 257
 460 699 l 257
 270 437 l 257
 139 437 l 257
 279 700 l 257
EndSplineSet
EndChar

StartChar: IJ
Encoding: 306 306 365
Width: 631
VWidth: 0
Flags: HMW
LayerCount: 2
Fore
SplineSet
141 -50 m 257
 160 -65 180 -83 206 -82 c 256
 249 -81 282 -39 298 -3 c 257
 541 700 l 257
 753 700 l 257
 497 -53 l 257
 450 -181 326 -245 194 -245 c 256
 122 -245 59 -220 -1 -183 c 257
 141 -50 l 257
249 700 m 257
 447 700 l 257
 207 0 l 257
 10 0 l 257
 249 700 l 257
EndSplineSet
EndChar

StartChar: ij
Encoding: 307 307 366
Width: 523
VWidth: 0
Flags: HMW
LayerCount: 2
Fore
SplineSet
455 629 m 256
 469 678 525 717 575 717 c 256
 626 717 661 674 647 623 c 256
 633 574 578 536 528 536 c 256
 477 536 441 578 455 629 c 256
139 -65 m 257
 147 -64 163 -89 173 -90 c 256
 204 -94 232 -51 243 -28 c 257
 413 460 l 257
 577 460 l 257
 395 -78 l 258
 359 -175 273 -245 166 -244 c 256
 114 -244 77 -222 40 -188 c 257
 139 -65 l 257
196 629 m 256
 210 678 265 717 315 717 c 256
 366 717 403 674 389 623 c 256
 375 574 319 536 269 536 c 256
 218 536 182 578 196 629 c 256
152 460 m 257
 319 460 l 257
 161 0 l 257
 -5 0 l 257
 152 460 l 257
EndSplineSet
EndChar

StartChar: uni0237
Encoding: 567 567 367
Width: 262
VWidth: 0
Flags: HMW
LayerCount: 2
Fore
SplineSet
-121 -65 m 257
 -113 -76 -104 -89 -88 -90 c 256
 -56 -91 -29 -53 -17 -28 c 257
 152 460 l 257
 317 460 l 257
 135 -78 l 258
 99 -175 13 -245 -94 -244 c 256
 -146 -244 -183 -222 -220 -188 c 257
 -121 -65 l 257
EndSplineSet
EndChar

StartChar: Sacute
Encoding: 346 346 368
Width: 613
VWidth: 0
Flags: HMW
LayerCount: 2
Fore
SplineSet
184 260 m 257
 203 203 230 144 299 145 c 256
 334 145 379 163 394 198 c 256
 416 250 339 272 305 289 c 256
 215 332 159 414 189 515 c 256
 228 645 366 718 496 718 c 256
 603 718 686 668 711 561 c 257
 549 481 l 257
 533 519 516 552 469 552 c 256
 439 552 394 535 381 506 c 256
 358 456 462 432 492 419 c 256
 583 379 625 294 596 197 c 256
 553 51 403 -28 257 -27 c 256
 136 -26 51 48 28 165 c 257
 184 260 l 257
751 922 m 257
 537 780 l 257
 447 832 l 257
 637 984 l 257
 751 922 l 257
EndSplineSet
EndChar

StartChar: sacute
Encoding: 347 347 369
Width: 446
VWidth: 0
Flags: HMW
LayerCount: 2
Fore
SplineSet
74 178 m 257
 109 145 150 107 204 109 c 256
 218 109 246 116 251 132 c 256
 260 161 176 180 157 190 c 256
 102 218 73 274 91 334 c 256
 119 428 225 468 315 469 c 256
 385 469 447 443 502 407 c 257
 421 293 l 257
 388 324 351 347 304 347 c 256
 289 347 256 341 251 324 c 256
 242 294 320 278 338 270 c 256
 398 245 437 196 419 129 c 256
 393 32 301 -21 205 -22 c 256
 118 -24 44 12 -20 61 c 257
 74 178 l 257
569 674 m 257
 355 532 l 257
 265 584 l 257
 454 736 l 257
 569 674 l 257
EndSplineSet
EndChar

StartChar: Scircumflex
Encoding: 348 348 370
Width: 613
VWidth: 0
Flags: HMW
LayerCount: 2
Fore
SplineSet
184 260 m 257
 203 203 230 144 299 145 c 256
 334 145 379 163 394 198 c 256
 416 250 339 272 305 289 c 256
 215 332 159 414 189 515 c 256
 228 645 366 718 496 718 c 256
 603 718 686 668 711 561 c 257
 549 481 l 257
 533 519 516 552 469 552 c 256
 439 552 394 535 381 506 c 256
 358 456 462 432 492 419 c 256
 583 379 625 294 596 197 c 256
 553 51 403 -28 257 -27 c 256
 136 -26 51 48 28 165 c 257
 184 260 l 257
564 858 m 257
 456 779 l 257
 357 867 l 257
 595 1001 l 257
 754 854 l 257
 615 777 l 257
 564 858 l 257
EndSplineSet
EndChar

StartChar: scircumflex
Encoding: 349 349 371
Width: 446
VWidth: 0
Flags: HMW
LayerCount: 2
Fore
SplineSet
74 178 m 257
 109 145 150 107 204 109 c 256
 218 109 246 116 251 132 c 256
 260 161 176 180 157 190 c 256
 102 218 73 274 91 334 c 256
 119 428 225 468 315 469 c 256
 385 469 447 443 502 407 c 257
 421 293 l 257
 388 324 351 347 304 347 c 256
 289 347 256 341 251 324 c 256
 242 294 320 278 338 270 c 256
 398 245 437 196 419 129 c 256
 393 32 301 -21 205 -22 c 256
 118 -24 44 12 -20 61 c 257
 74 178 l 257
397 610 m 257
 291 531 l 257
 192 619 l 257
 428 753 l 257
 588 607 l 257
 449 529 l 257
 397 610 l 257
EndSplineSet
EndChar

StartChar: uni1E9E
Encoding: 7838 7838 372
Width: 896
VWidth: 0
Flags: HMW
LayerCount: 2
Fore
SplineSet
512 -18 m 256
 360 -16 301 98 329 236 c 257
 490 235 l 257
 484 188 487 143 545 139 c 256
 593 135 645 168 662 214 c 256
 688 286 608 295 556 300 c 257
 579 379 l 257
 696 376 887 345 841 184 c 256
 802 49 643 -20 512 -18 c 256
573 346 m 257
 595 420 l 257
 646 426 715 439 733 496 c 256
 752 554 673 561 633 560 c 256
 487 558 372 450 321 318 c 257
 211 0 l 257
 17 0 l 257
 137 352 l 258
 213 569 426 708 654 710 c 256
 767 711 983 678 936 516 c 256
 893 368 701 349 573 346 c 257
EndSplineSet
EndChar

StartChar: Zacute
Encoding: 377 377 373
Width: 607
VWidth: 0
Flags: HW
LayerCount: 2
Fore
SplineSet
181 523 m 257
 243 700 l 257
 790 699 l 257
 310 170 l 257
 566 169 l 257
 506 0 l 257
 -57 0 l 257
 416 522 l 257
 181 523 l 257
760 922 m 257
 547 780 l 257
 456 832 l 257
 646 984 l 257
 760 922 l 257
EndSplineSet
EndChar

StartChar: zacute
Encoding: 378 378 374
Width: 511
VWidth: 0
Flags: HW
LayerCount: 2
Fore
SplineSet
266 300 m 257
 103 301 l 257
 158 460 l 257
 610 459 l 257
 309 160 l 257
 468 159 l 257
 412 0 l 257
 -49 0 l 257
 266 300 l 257
626 677 m 257
 412 535 l 257
 322 587 l 257
 512 739 l 257
 626 677 l 257
EndSplineSet
EndChar

StartChar: Zdotaccent
Encoding: 379 379 375
Width: 607
VWidth: 0
Flags: HW
LayerCount: 2
Fore
SplineSet
181 523 m 257
 243 700 l 257
 790 699 l 257
 310 170 l 257
 566 169 l 257
 506 0 l 257
 -57 0 l 257
 416 522 l 257
 181 523 l 257
475 873 m 256
 489 922 545 960 595 960 c 256
 646 960 681 918 667 867 c 256
 653 818 598 779 548 779 c 256
 497 779 461 822 475 873 c 256
EndSplineSet
EndChar

StartChar: zdotaccent
Encoding: 380 380 376
Width: 511
VWidth: 0
Flags: HW
LayerCount: 2
Fore
SplineSet
266 300 m 257
 103 301 l 257
 158 460 l 257
 610 459 l 257
 309 160 l 257
 468 159 l 257
 412 0 l 257
 -49 0 l 257
 266 300 l 257
341 630 m 256
 355 679 411 717 461 717 c 256
 512 717 548 675 534 624 c 256
 520 575 465 536 415 536 c 256
 364 536 327 579 341 630 c 256
EndSplineSet
EndChar

StartChar: Tcaron
Encoding: 356 356 377
Width: 560
VWidth: 0
Flags: HW
LayerCount: 2
Fore
SplineSet
122 523 m 257
 184 700 l 257
 748 700 l 257
 686 523 l 257
 502 523 l 257
 322 0 l 257
 129 0 l 257
 308 523 l 257
 122 523 l 257
532 921 m 257
 639 1001 l 257
 738 912 l 257
 501 778 l 257
 342 925 l 257
 481 1002 l 257
 532 921 l 257
EndSplineSet
EndChar

StartChar: tcaron
Encoding: 357 357 378
Width: 499
VWidth: 0
Flags: HW
LayerCount: 2
Fore
SplineSet
105 460 m 257
 427 460 l 257
 377 317 l 257
 54 317 l 257
 105 460 l 257
238 620 m 257
 403 620 l 257
 190 0 l 257
 25 0 l 257
 238 620 l 257
591 776 m 257
 759 741 l 257
 551 497 l 257
 421 523 l 257
 591 776 l 257
EndSplineSet
EndChar

StartChar: Uring
Encoding: 366 366 379
Width: 683
VWidth: 0
Flags: HW
LayerCount: 2
Fore
SplineSet
245 700 m 257
 439 700 l 257
 280 247 l 258
 266 201 267 146 327 143 c 256
 389 140 438 195 460 248 c 257
 617 700 l 257
 810 700 l 257
 651 230 l 258
 595 74 456 -35 287 -35 c 256
 128 -35 41 76 86 230 c 256
 245 700 l 257
467 902 m 256
 485 968 558 1020 626 1020 c 256
 694 1020 742 966 723 898 c 256
 705 831 631 779 562 779 c 256
 494 779 448 835 467 902 c 256
552 898 m 256
 547 882 553 857 573 855 c 256
 595 853 630 882 637 901 c 256
 642 917 636 943 616 945 c 256
 594 947 559 917 552 898 c 256
EndSplineSet
EndChar

StartChar: uring
Encoding: 367 367 380
Width: 557
VWidth: 0
Flags: HW
LayerCount: 2
Fore
SplineSet
282 0 m 257
 441 460 l 257
 614 460 l 257
 455 0 l 257
 282 0 l 257
232 180 m 257
 225 154 215 115 252 108 c 256
 293 101 327 151 345 179 c 257
 375 186 l 257
 340 90 274 -9 159 -11 c 256
 51 -13 24 70 50 162 c 257
 151 460 l 257
 332 460 l 257
 232 180 l 257
319 654 m 256
 337 720 411 772 479 772 c 256
 547 772 594 718 575 650 c 256
 557 583 483 532 414 532 c 256
 346 532 300 587 319 654 c 256
405 650 m 256
 400 634 405 610 425 608 c 256
 447 606 482 635 489 654 c 256
 494 670 488 695 468 697 c 256
 446 699 412 669 405 650 c 256
EndSplineSet
EndChar
